<?xml version="1.0" encoding="UTF-8"?>
<svg viewBox="0 0 309.85 348.14" xmlns="http://www.w3.org/2000/svg">
 <g fill-rule="evenodd" stroke="#000" stroke-miterlimit="10" stroke-width=".036">
  <path d="m24.635 210.91c0.035999 7.345 1.08 15.517 3.42 24.66 2.304 9.217 5.616 20.053 10.224 30.024 4.536 9.899 9.972 19.584 16.704 28.656 6.588 8.928 14.076 17.208 22.86 24.552 8.748 7.164 17.928 13.68 29.34 18.432 11.304 4.608 25.848 8.389 38.232 9.54 12.349 1.008 23.688-0.28799 35.136-3.06 11.305-2.952 22.428-7.704 32.4-13.968 9.828-6.48 19.008-15.769 26.279-23.545 7.236-7.703 11.701-14.76 16.705-22.535 4.895-8.101 9.107-16.057 12.635-24.553 3.457-8.496 6.084-17.855 8.172-25.596 2.088-7.812 3.313-14.4 4.105-20.448 1.979 1.008 4.428 1.44 7.488 1.44 3.131-0.10799 7.307 0.10701 10.584-1.729 3.096-1.907 5.902-4.859 7.848-9.54 1.764-4.932 3.203-12.023 3.059-18.756-0.25198-6.804-2.268-15.803-4.104-21.167-1.908-5.436-4.283-8.352-7.127-10.548-3.061-2.232-6.984-2.34-10.26-2.412-3.313-0.144-6.338 0.43201-9.217 1.728 1.801-6.66 1.801-14.94 0-25.272-1.873-10.512-5.363-23.832-10.908-36.504-5.688-12.672-17.027-30.096-22.5-39.06-5.508-9.108-5.797-10.188-10.439-14.76-4.789-4.608-10.189-9.144-17.857-12.492-7.883-3.42-17.352-6.084-28.402-7.452-11.232-1.404-23.869-2.304-37.477-0.756-13.716 1.368-29.88 4.032-43.344 9.54-13.572 5.508-25.632 14.004-36.468 23.544-10.908 9.504-20.124 21.456-27.648 33.084-7.416 11.556-12.888 26.784-16.704 35.82-3.96 8.856-5.4 12.384-6.84 17.388-1.512 4.896-2.196 9.072-2.052 11.952 0.144 2.808 1.008 4.356 2.736 4.788-4.644-0.36-8.352 0.68399-11.268 2.736-2.916 2.088-4.536 5.472-6.12 9.864-1.764 4.356-3.528 9.359-3.744 15.696-0.252 6.228 0.144 16.128 2.7 21.491 2.448 5.112 8.532 8.028 12.276 9.576 3.6 1.479 6.84 1.407 9.576-0.358z"/>
  <path d="m31.807 153.23c4.428-2.34 9-5.364 14.004-9.216 4.932-3.924 11.088-9 15.696-13.968 4.536-5.148 8.424-11.52 11.232-16.056 2.664-4.536 4.212-8.172 4.788-10.908 10.944 2.736 21.024 4.428 31.068 5.472 9.936 0.936 19.548 0.396 28.296 0.324 8.532-0.216 15.3 0.10799 23.22-1.368 7.92-1.656 16.813-4.752 24.191-7.488 7.201-2.772 13.572-4.968 19.117-8.532 5.398-3.708 9.791-7.848 13.318-12.96 2.773 5.868 5.725 11.988 8.857 18.756 3.168 6.696 6.371 13.86 9.898 21.492 3.457 7.632 7.416 16.848 10.908 23.616 3.42 6.516 6.877 12.168 9.541 15.696 2.52 3.348 3.635 3.888 5.832 5.112 2.088 1.26 4.355 2.016 6.803 2.412-0.46698 1.224-0.646 2.592-0.68399 4.104-0.107 1.512 0.10901 4.068 0.36099 4.751 0.143 0.504 0.61102-0.324 1.008-1.368 0.39502-1.188 0.57602-3.312 1.367-5.112 0.72101-1.908 1.691-3.6 3.061-5.472 1.295-1.872 2.699-4.14 4.787-5.436 1.98-1.476 4.176-2.484 7.164-2.736 2.844-0.324 7.271-0.79199 10.225 1.368 2.951 2.16 5.473 6.948 7.164 11.592 1.404 4.5 2.088 9.864 2.051 15.696-0.069977 5.903-0.43198 14.22-2.051 19.115-1.729 4.608-4.213 7.236-7.848 8.856-3.744 1.62-10.369 1.8-13.645 0.68401-3.24-1.224-4.572-6.804-5.797-7.848-1.223-1.08-1.836-0.252-1.691 1.368 0.107 1.404 2.195 3.312 2.377 7.523 0.10702 4.141-0.10898 9.253-2.053 17.713-2.16 8.567-5.939 22.392-10.512 32.867-4.789 10.332-10.404 19.692-16.848 28.62-6.336 8.893-12.816 16.704-21.24 24.265-8.568 7.487-19.801 15.3-29.664 20.231-10.008 4.824-18.359 7.164-29.629 8.424-11.412 1.152-25.991 0.504-37.763-1.8-11.808-2.52-21.888-6.768-32.328-13.032-10.512-6.264-21.348-15.048-29.988-24.264-8.784-9.36-15.948-21.204-21.636-30.96-5.652-9.792-9.072-18.612-12.06-27-3.132-8.46-4.932-16.596-6.084-22.896-1.188-6.337-1.296-11.053-0.612-14.58 2.196-2.269 3.528-4.393 4.428-6.229 0.756-1.979 0.828-5.112 0.36-5.112-0.576-0.035004-1.908 3.24-3.42 5.112-1.584 1.8-3.24 4.932-5.796 5.796-2.664 0.79199-6.84 0.648-9.9-1.008-3.096-1.728-6.912-4.752-8.532-9.216-1.836-4.536-2.124-11.628-1.692-17.388 0.468-5.868 2.268-12.852 4.428-17.064 1.98-4.212 4.752-6.372 7.488-7.848 2.664-1.548 5.868-1.26 8.208-1.368 2.052-0.36 3.132-0.36 4.788 0 1.692 0.28799 4.104 0.89999 5.436 2.376 1.26 1.476 1.872 5.904 2.412 6.48 0.504 0.396 0.9-1.872 0.648-3.744-0.429-1.94-1.401-4.604-3.057-7.844z" fill="#eaa769"/>
  <path d="m14.735 178.51c0.396-2.088 1.188-5.22 2.376-7.164 1.152-2.088 3.168-3.816 4.788-4.788 1.584-1.116 3.276-2.052 4.788-1.008 1.44 1.008 3.816 6.048 4.068 7.488 0.144 1.188-2.268 1.512-3.06 0.68399-0.864-0.864-1.224-4.284-2.052-5.111-1.008-0.864-2.016-0.972-3.42 0.36-1.44 1.224-4.248 4.824-5.112 7.488-0.936 2.664-0.72 6.048-0.324 8.208 0.324 2.052 1.116 3.456 2.376 4.067 1.152 0.36 4.14-1.403 4.788-1.008 0.432 0.36 0.108 3.276-1.368 3.744-1.548 0.468-5.832 0.18001-7.164-1.008-1.26-1.368-1.08-4.896-1.008-6.84-0.144-1.98-0.18-3.168 0.324-5.112z"/>
  <path d="m294.38 184.74c-0.14499-2.231-0.57599-5.22-1.295-7.416-0.97302-2.195-2.594-4.283-4.033-5.435-1.477-1.296-2.951-2.556-4.572-1.692-1.799 0.828-4.68 5.363-5.146 6.804-0.43399 1.332 1.943 1.655 2.951 1.115 0.89999-0.647 1.729-4.176 2.771-4.752 1.045-0.71901 2.016-0.71901 3.313 0.82799 1.188 1.477 3.385 5.364 3.959 8.172 0.396 2.7-0.215 6.12-0.86301 8.172-0.68399 2.017-1.764 3.204-2.951 3.708-1.332 0.252-3.924-2.088-4.572-1.728-0.72101 0.324-0.504 3.204 0.79098 3.924 1.369 0.64801 5.545 1.08 7.236 0.036011 1.584-1.188 1.477-4.644 2.016-6.624 0.43201-1.944 0.46698-3.095 0.39499-5.112z"/>
  <path d="m286.28 178.15c-0.14499 0.685 1.512 3.528 2.053 5.473 0.35901 1.871 0.39499 5.292 0.68399 5.796 0.324 0.35901 1.332-1.404 1.367-3.061-0.035004-1.764-0.71899-5.436-1.367-6.84-0.75598-1.511-2.592-2.015-2.737-1.368z"/>
  <path d="m127.99 162.13c0 4.536 3.672 8.208 8.208 8.208 4.5 0 8.172-3.672 8.172-8.208 0-4.5-3.672-8.172-8.172-8.172-4.536 0-8.208 3.672-8.208 8.172z"/>
  <path d="m161.07 162.49c0 4.5 3.672 8.172 8.209 8.172 4.535 0 8.172-3.672 8.172-8.172 0-4.536-3.637-8.208-8.172-8.208-4.537 0-8.209 3.672-8.209 8.208z"/>
  <path d="m118.45 140.64c2.304-0.864 8.388-2.232 12.96-2.736 4.464-0.612 12.06-0.972 13.644-0.68401 1.368 0.28799-0.612 0.972-5.112 2.052-4.716 1.08-18.54 3.348-22.176 3.744-3.636 0.108-1.656-1.512 0.684-2.376z"/>
  <path d="m171.26 139.35c2.555 0.036011 8.531 0.936 13.066 2.16 4.357 0.972 11.594 3.564 12.961 4.32 1.115 0.756-0.89999 0.72-5.508 0.035995-4.717-0.828-18.541-3.492-22.031-4.536-3.457-1.116-1.01-2.052 1.512-1.98z"/>
  <path d="m82.631 109.83c2.124 0.936 8.388 2.088 12.96 3.06 4.608 0.864 12.348 2.052 14.328 2.052 1.764-0.288-0.18-1.944-3.06-2.736-2.952-0.792-10.224-0.936-14.328-1.692-4.212-0.936-8.604-2.88-10.26-3.06-1.728-0.10799-1.836 1.332 0.35999 2.376z"/>
  <path d="m219.43 97.874c0.82799 3.096 3.023 8.64 4.787 11.916 1.621 3.24 5.184 8.064 5.436 7.524 0.18201-0.68401-2.34-7.272-4.066-11.592-1.873-4.536-5.473-13.32-6.48-14.688-1.046-1.26-0.61499 3.564 0.32301 6.84z"/>
  <path d="m112.66 113.93c0 0.576 1.296 1.008 2.88 1.008 1.62 0 2.916-0.43201 2.916-1.008 0-0.576-1.296-1.044-2.916-1.044-1.584 0-2.88 0.468-2.88 1.044z"/>
  <path d="m231.17 119.91c-0.506 0.252-0.289 1.62 0.504 3.024 0.756 1.404 1.799 2.304 2.303 2.016 0.504-0.252 0.252-1.62-0.50401-3.024-0.791-1.404-1.836-2.304-2.303-2.016z"/>
  <path d="m97.643 243.93l3.06-1.368c1.044 6.336 2.916 12.204 5.472 17.748 2.484 5.58 5.508 10.836 9.9 15.336 4.392 4.32 9.648 7.848 16.344 10.584 6.696 2.664 15.084 6.012 23.22 5.472 7.957-0.647 17.603-4.716 24.228-8.892 6.588-4.32 11.123-10.26 15.012-16.021 3.709-5.724 5.688-12.995 7.488-18.071 1.764-5.148 2.736-9.36 3.061-12.637l4.104 0.36c-1.98 7.164-4.32 13.932-7.164 20.448-2.844 6.552-5.869 13.067-9.9 18.432-4.104 5.112-8.389 9.468-14.652 12.636-6.588 3.097-15.408 5.832-23.543 6.12-8.208 0.108-16.992-1.548-24.552-5.111-7.668-3.744-15.516-10.656-20.484-16.704-4.968-6.12-7.344-14.725-9.216-19.44-1.946-4.753-2.738-7.669-2.378-8.892z"/>
  <path d="m94.583 243.6c2.088-1.188 3.852-1.62 6.12-2.412 2.268-0.864 6.948-3.24 7.524-2.7 0.396 0.396-2.304 3.601-4.788 5.437-2.592 1.728-8.064 4.355-10.584 5.111-2.628 0.612-5.436-0.144-5.112-1.008 0.36-1.009 4.536-3.312 6.84-4.428z"/>
  <path d="m211.51 235.39c-2.449-0.648-4.105-0.864-6.518-1.08-2.447-0.468-7.631-1.692-7.92-1.152-0.395 0.576 2.881 3.061 5.797 4.393 2.881 1.151 8.676 2.7 11.412 2.844 2.771 0 5.111-1.188 4.787-2.052-0.50401-0.90199-5.291-2.305-7.558-2.953z"/>
  <path d="m76.511 101.15c-1.404 4.212-3.492 8.244-6.12 12.492-2.772 4.212-5.4 7.776-9.828 12.492-4.608 4.716-11.808 10.98-17.028 15.192-5.256 4.14-10.512 7.668-14.112 9.036-3.708 1.08-6.336 0.18001-7.452-1.872-1.152-2.124-0.468-5.256 0.792-10.368 1.08-5.184 2.844-11.736 6.408-20.232 3.528-8.64 9-21.06 14.904-30.852 5.724-9.864 12.24-19.044 19.944-27.396 7.74-8.496 16.38-16.272 26.064-22.356 9.54-6.084 19.584-10.224 31.104-13.536 11.448-3.348 26.352-5.292 37.512-6.12 11.053-0.864 19.332 0 28.729 1.332 9.324 1.296 18.611 2.448 26.891 6.372 8.102 3.78 16.201 10.8 21.816 16.74 5.473 5.94 7.381 12.024 11.412 18.648 3.996 6.624 8.965 14.328 12.527 20.736 3.385 6.192 5.293 9.504 7.957 16.74 2.627 7.128 6.047 18.612 7.74 26.1 1.512 7.38 1.799 13.176 1.836 18.36 0.107 5.076-0.46899 9.144-1.584 12.204-1.26 3.06-3.348 5.796-5.869 6.12-2.664 0.252-5.902-0.46799-9.576-4.5-3.707-4.14-7.955-11.808-12.203-19.944-4.283-8.28-8.676-18.648-13.32-29.016-4.715-10.404-9.684-21.132-14.904-32.724 2.197-3.276 3.709-7.488 4.537-12.492 0.71899-5.256 0.43199-15.408 0.252-17.82-0.18001-2.412-0.936 1.224-1.297 3.96-0.46701 2.736-0.18001 7.74-1.367 12.528-1.297 4.68-2.592 10.656-6.121 15.444-3.6 4.716-7.955 8.64-15.408 12.744-7.631 4.068-20.158 8.676-29.807 11.448-9.756 2.52-17.82 3.564-27.937 4.248-10.188 0.612-23.04 0.252-32.436-0.252-9.468-0.432-17.316-1.188-23.688-2.664-6.48-1.62-10.296-4.536-14.508-7.092-4.32-2.772-9.396-8.316-10.764-8.856s1.44 4.104 2.736 5.76c1.224 1.512 2.988 2.268 5.004 3.816 2.052 1.512 4.392 3.42 7.164 5.58z" fill="#7f3f00"/>
  <path d="m40.943 136.18c0.936-1.548 6.408-4.968 9.072-7.2 2.52-2.268 3.672-3.384 6.372-6.12 2.556-2.88 8.028-9.864 9.324-10.656 1.152-0.86401-0.071999 3.132-1.872 5.868-2.016 2.628-5.724 7.056-9.036 10.368-3.276 3.348-8.136 7.884-10.404 9.324-2.412 1.224-4.392-0.144-3.456-1.584z"/>
  <path d="m35.327 141.43c0.252 0.396 1.332 0.108 2.412-0.576 1.08-0.72 1.764-1.62 1.512-1.98-0.252-0.39601-1.332-0.108-2.412 0.57599-1.08 0.72-1.764 1.62-1.512 1.98z"/>
  <path d="m75.467 88.442c2.016 1.368 7.884 4.968 12.744 6.912 4.716 1.872 9.576 3.528 15.696 4.536 6.12 0.936 17.676 1.116 20.484 1.08 2.592-0.144-1.368-1.368-4.788-1.872-3.564-0.504-11.196-0.576-15.948-1.332-4.824-0.9-9.18-2.52-12.78-3.744-3.636-1.296-6.696-2.808-9.036-3.96-2.484-1.332-4.536-3.132-5.58-3.456-1.188-0.288-2.7 0.324-0.792 1.836z"/>
  <path d="m97.787 91.106c0.324 1.116 2.412 5.004 3.744 6.66 1.188 1.548 3.132 3.168 3.456 2.916 0.144-0.324-1.26-2.844-2.124-4.5-0.9-1.692-2.16-4.536-2.952-5.328-0.936-0.864-2.34-0.97199-2.124 0.25201z"/>
  <path d="m92.459 92.69c0.036003 0.72 1.08 2.7 2.16 3.996 0.972 1.116 3.096 3.204 3.456 2.952 0.25201-0.288-1.656-3.42-2.124-4.536-0.684-1.296-0.756-2.232-1.332-2.664-0.648-0.468-2.16-0.43201-2.16 0.252z"/>
  <path d="m155.24 95.57c4.319-1.98 17.063-6.12 24.479-9.072 7.344-3.132 13.68-6.048 19.152-9.036 5.256-3.096 9.469-6.3 12.779-8.784 3.24-2.484 5.4-4.86 6.912-5.58 1.477-0.648 2.701-0.108 1.873 1.332-1.045 1.332-4.357 3.96-7.453 6.372-3.131 2.304-6.443 4.608-10.908 7.452-4.715 2.664-10.584 6.336-16.486 9.072-6.121 2.628-13.537 5.292-18.9 7.164-5.365 1.836-10.549 3.456-12.492 3.744-1.98 0.108-3.204-0.648 1.044-2.664z"/>
  <path d="m156.86 51.146c3.313-0.828 11.951-1.368 19.404-1.62 7.523-0.18 17.676-0.36 25.02 0.288 7.164 0.468 14.725 1.908 17.82 2.916 2.988 0.936 2.051 2.736 0.252 2.916-1.945 0.035999-5.939-1.872-11.16-2.376-5.293-0.612-13.248-1.116-19.691-1.08-6.553-0.071999-13.178 0.468-18.613 0.792-5.4 0.18-11.447 1.044-13.572 0.792-2.232-0.36-2.844-1.98 0.54001-2.628z"/>
  <path d="m164.31 26.918c3.816 1.368 19.729 3.276 28.729 6.408 8.855 3.132 19.656 10.26 24.191 12.204 4.32 1.729 3.672-0.324 2.377-1.584-1.439-1.368-5.545-3.78-10.369-6.12-4.967-2.448-12.096-6.12-18.611-8.244-6.553-2.196-15.516-4.392-19.943-4.788-4.538-0.54-10.045 0.684-6.374 2.124z"/>
  <path d="m227.89 52.19c1.439 2.124 7.705 8.064 10.873 11.988 2.951 3.816 5.363 9.072 6.947 10.908 1.584 1.692 3.023 1.512 2.377-0.54-0.828-2.196-4.32-8.136-7.164-11.988-3.061-3.96-8.244-9.396-10.404-11.16-2.233-1.764-4.034-1.368-2.629 0.792z"/>
  <path d="m228.68 67.346c1.115 1.044 5.904 7.668 8.244 12.24 2.23 4.5 4.283 11.268 5.328 14.904 0.826 3.492 0.35901 5.292 0.252 6.372-0.217 0.936-0.252 1.872-1.08-0.252-0.97299-2.232-2.018-7.92-3.961-12.492-2.016-4.68-5.977-11.412-7.451-14.904-1.477-3.492-2.522-7.02-1.332-5.868z"/>
  <path d="m253.16 139.71c0.86499 2.052 4.645 8.64 6.912 11.448 2.125 2.7 4.537 4.428 6.121 5.04 1.439 0.468 2.879-0.89999 2.916-1.332-0.14499-0.324-1.764-0.072006-2.916-0.79199-1.188-0.90001-2.701-2.412-3.996-4.248-1.439-1.944-3.133-5.076-4.248-6.912-1.152-1.908-2.268-3.78-2.953-4.248-0.898-0.648-2.662-1.044-1.836 1.044z"/>
  <path d="m270.48 154.54c0.324 0.324 1.332-0.108 2.268-1.008 0.93799-0.864 1.441-1.872 1.152-2.196-0.32398-0.324-1.332 0.108-2.268 1.008-0.97302 0.864-1.477 1.872-1.152 2.196z"/>
  <path d="m217.23 34.586c0.21701-2.664 2.125-9 2.664-13.32 0.21701-4.5-0.93599-10.368-0.539-12.744 0.287-2.448 2.232-2.664 2.916-1.62 0.64801 1.044 1.008 4.032 1.08 7.704-0.071991 3.636-0.43199 9.684-1.08 13.572-0.756 3.672-2.412 7.668-3.168 8.784-0.86499 1.008-2.087 0.216-1.873-2.376z"/>
  <path d="m223.9 36.71c1.836-2.664 7.957-7.452 11.412-11.448 3.24-4.14 6.049-8.172 8.281-12.492 2.051-4.428 3.455-11.232 4.787-13.032 1.26-1.656 3.707-0.36 3.168 2.916-0.61099 3.096-3.707 10.404-6.66 15.696-3.023 5.292-7.848 11.592-11.16 15.408-3.42 3.672-7.451 5.76-9.035 6.408-1.801 0.396-2.485-0.936-0.793-3.456z"/>
  <path d="m232.14 41.75c1.584-1.62 4.969-5.4 9.037-6.912 3.924-1.512 12.311-2.088 14.615-1.872 2.123 0.18 0.756 2.448-1.332 3.204-2.305 0.648-8.1-0.288-11.412 1.08-3.24 1.296-5.867 5.724-7.74 6.912-1.871 1.116-3.023 0-3.455-0.288-0.614-0.36-1.297-0.792 0.287-2.124z"/>
  <path d="m107.51 330.32c1.836 1.477 6.552 3.996 11.088 5.761 4.356 1.691 10.44 2.987 15.192 4.031 4.68 0.89999 10.98 1.477 12.78 1.332 1.656-0.323-0.035995-1.872-2.7-2.699-2.88-0.79199-9.144-0.86401-13.788-2.017-4.68-1.26-10.116-3.492-13.824-5.04-3.744-1.584-7.056-3.852-8.424-4.032-1.548-0.323-2.124 1.261-0.324 2.664z"/>
  <path d="m150.67 339.47c-0.54001 0.14401-0.972 0.89899-0.75601 1.439 0.108 0.504 1.188 1.188 1.728 1.225 0.396-0.14499 1.044-1.584 0.972-1.944-0.252-0.54102-1.548-0.82901-1.944-0.72z"/>
  <path d="m102.47 323.95c-0.468 0.108-0.936 0.97299-0.72 1.477 0.108 0.504 1.224 1.188 1.692 1.224 0.396-0.14398 1.044-1.584 0.972-1.943-0.25201-0.61301-1.548-0.86499-1.944-0.758z"/>
 </g>
</svg>
