<?xml version="1.0" encoding="UTF-8"?>
<svg viewBox="0 0 128 128" xmlns="http://www.w3.org/2000/svg">
 <g transform="translate(0 -924.36)" fill="#6c3">
  <path d="m25.721 966.51c-0.3079-9.4635 7.8409-15.169 14.911-17.339 7.2198-2.2155 16.819 2.0657 19.189 10.742 2.6228 9.6005-9.4002 14.724-9.3334 25.286 0.0493 7.9038 9.0038 17.894 7.1787 25.708-0.84069 3.5993-4.4238 5.9226-7.191 6.5807-2.4643 0.586-5.1002-0.6704-6.8408-2.7109-3.9445-4.6246-3.8176-13.292-6.3468-19.472-3.6123-8.8263-11.254-19.191-11.567-28.794z" stroke="#000" stroke-width=".06429"/>
  <path transform="matrix(.05992 -.00452 -.00077167 .06605 149.34 958.65)" d="m-1466.7-392.16a109.1 131.32 0 1 1 -218.19 0 109.1 131.32 0 1 1 218.19 0z" stroke="#445a26" stroke-linecap="round" stroke-linejoin="bevel" stroke-width=".3"/>
  <path transform="matrix(.03383 -.00429 -.00149 .04117 96.042 950.01)" d="m-1466.7-392.16a109.1 131.32 0 1 1 -218.19 0 109.1 131.32 0 1 1 218.19 0z" stroke="#445a26" stroke-linecap="round" stroke-linejoin="bevel" stroke-width=".3"/>
  <path transform="matrix(.02956 -.00375 -.0013 .03598 81.1 951.87)" d="m-1466.7-392.16a109.1 131.32 0 1 1 -218.19 0 109.1 131.32 0 1 1 218.19 0z" stroke="#445a26" stroke-linecap="round" stroke-linejoin="bevel" stroke-width=".3"/>
  <path transform="matrix(.02743 -.00348 -.00121 .03338 70.309 957.08)" d="m-1466.7-392.16a109.1 131.32 0 1 1 -218.19 0 109.1 131.32 0 1 1 218.19 0z" stroke="#445a26" stroke-linecap="round" stroke-linejoin="bevel" stroke-width=".3"/>
  <path transform="matrix(.02061 -.00261 -.00090805 .02508 54.423 961.83)" d="m-1466.7-392.16a109.1 131.32 0 1 1 -218.19 0 109.1 131.32 0 1 1 218.19 0z" stroke="#445a26" stroke-linecap="round" stroke-linejoin="bevel" stroke-width=".3"/>
  <path d="m101.73 994.8c0.30791-9.4634-7.8409-15.169-14.911-17.339-7.2198-2.2155-16.819 2.0657-19.189 10.742-2.6228 9.6004 9.4002 14.724 9.3334 25.286-0.0504 7.904-9.0038 17.894-7.1787 25.708 0.84069 3.5993 4.4238 5.9227 7.191 6.5807 2.4643 0.5859 5.1002-0.6704 6.8408-2.711 3.9445-4.6244 3.8176-13.292 6.3468-19.472 3.6123-8.8263 11.254-19.191 11.567-28.794z" stroke="#000" stroke-width=".06429"/>
  <path transform="matrix(-.05992 -.00452 .00077167 .06605 -21.895 986.95)" d="m-1466.7-392.16a109.1 131.32 0 1 1 -218.19 0 109.1 131.32 0 1 1 218.19 0z" stroke="#445a26" stroke-linecap="round" stroke-linejoin="bevel" stroke-width=".3"/>
  <path transform="matrix(-.03383 -.00429 .00149 .04117 31.405 978.3)" d="m-1466.7-392.16a109.1 131.32 0 1 1 -218.19 0 109.1 131.32 0 1 1 218.19 0z" stroke="#445a26" stroke-linecap="round" stroke-linejoin="bevel" stroke-width=".3"/>
  <path transform="matrix(-.02956 -.00375 .0013 .03598 46.348 980.16)" d="m-1466.7-392.16a109.1 131.32 0 1 1 -218.19 0 109.1 131.32 0 1 1 218.19 0z" stroke="#445a26" stroke-linecap="round" stroke-linejoin="bevel" stroke-width=".3"/>
  <path transform="matrix(-.02743 -.00348 .00121 .03338 57.138 985.38)" d="m-1466.7-392.16a109.1 131.32 0 1 1 -218.19 0 109.1 131.32 0 1 1 218.19 0z" stroke="#445a26" stroke-linecap="round" stroke-linejoin="bevel" stroke-width=".3"/>
  <path transform="matrix(-.02061 -.00261 .00090805 .02508 73.024 990.13)" d="m-1466.7-392.16a109.1 131.32 0 1 1 -218.19 0 109.1 131.32 0 1 1 218.19 0z" stroke="#445a26" stroke-linecap="round" stroke-linejoin="bevel" stroke-width=".3"/>
  <path d="m25.721 966.51c-0.3079-9.4635 7.8409-15.169 14.911-17.339 7.2198-2.2155 16.819 2.0657 19.189 10.742 2.6228 9.6005-9.4002 14.724-9.3334 25.286 0.0493 7.9038 9.0038 17.894 7.1787 25.708-0.84069 3.5993-4.4238 5.9226-7.191 6.5807-2.4643 0.586-5.1002-0.6704-6.8408-2.7109-3.9445-4.6246-3.8176-13.292-6.3468-19.472-3.6123-8.8263-11.254-19.191-11.567-28.794z" stroke="#000" stroke-width=".06429"/>
  <path transform="matrix(.05992 -.00452 -.00077167 .06605 149.34 958.65)" d="m-1466.7-392.16a109.1 131.32 0 1 1 -218.19 0 109.1 131.32 0 1 1 218.19 0z" stroke="#445a26" stroke-linecap="round" stroke-linejoin="bevel" stroke-width=".3"/>
  <path transform="matrix(.03383 -.00429 -.00149 .04117 96.042 950.01)" d="m-1466.7-392.16a109.1 131.32 0 1 1 -218.19 0 109.1 131.32 0 1 1 218.19 0z" stroke="#445a26" stroke-linecap="round" stroke-linejoin="bevel" stroke-width=".3"/>
  <path transform="matrix(.02956 -.00375 -.0013 .03598 81.1 951.87)" d="m-1466.7-392.16a109.1 131.32 0 1 1 -218.19 0 109.1 131.32 0 1 1 218.19 0z" stroke="#445a26" stroke-linecap="round" stroke-linejoin="bevel" stroke-width=".3"/>
  <path transform="matrix(.02743 -.00348 -.00121 .03338 70.309 957.08)" d="m-1466.7-392.16a109.1 131.32 0 1 1 -218.19 0 109.1 131.32 0 1 1 218.19 0z" stroke="#445a26" stroke-linecap="round" stroke-linejoin="bevel" stroke-width=".3"/>
  <path transform="matrix(.02061 -.00261 -.00090805 .02508 54.423 961.83)" d="m-1466.7-392.16a109.1 131.32 0 1 1 -218.19 0 109.1 131.32 0 1 1 218.19 0z" stroke="#445a26" stroke-linecap="round" stroke-linejoin="bevel" stroke-width=".3"/>
 </g>
</svg>
