<?xml version="1.0" encoding="UTF-8"?>
<svg enable-background="new 0 0 287.935 327.133" viewBox="0 0 287.935 327.133" xmlns="http://www.w3.org/2000/svg">
 <path d="m256.474,156.861c-1.587,1.636-.729,3.772-1.789,5.366-2.979,4.488-11.221,4.5-13.118,10.137 1.091,4.987 6.545,5.912 10.137,7.751 9.531,4.879 16.134,12.583 23.852,19.68 3.459,6.979 7.158,13.36 10.138,22.061 1.504,4.39 3.867,7.868.597,11.928-.266.328-3.703,2.335-5.367,2.384-5.352.162-9.631-4.33-15.504-6.559-2.338-.889-5.321-1.102-7.752-1.79-4.916-1.387-9.393-2.439-14.312-3.577-4.829,3.177-6.149,9.357-8.944,14.312-2.703,4.794-6.113,9.415-8.347,14.312-.162,2.744 4.541.627 3.577,4.172-2.269,1.113-7.16-.399-7.156,2.981-.562,3.746 5.508.854 4.771,4.772-1.313,3.457-4.356.547-6.559,0-4.266,9.448-9.089,18.342-13.118,28.025 2.408,3.3 6.765,7.423 9.542,11.926 1.428,2.317 3.412,5.774 4.172,7.751 2.246,5.841 1.915,10.286-1.19,14.312-7.63,1.482-13.779-2.424-18.486-4.174-2.051-.762-4.339-.514-5.963-1.193-2.173-.906-4.353-2.945-6.561-4.172-6.313-3.511-14.599-6.667-20.87-10.735-2.065-1.339-3.901-3.403-5.963-4.77-5.889-3.907-12.348-8.613-19.676-11.328-1.475-3.714-6.05-4.01-8.944-5.965-1.446-.976-2.128-2.624-3.579-3.577-3.232-2.126-7.271-3.303-10.732-5.367-3.373-2.011-6.052-4.921-10.137-5.365-.225-1.964-3.17-1.204-2.981-3.579-3.599-.591-6.33-3.252-9.54-5.365-3.017-1.985-6.681-3.318-9.542-5.367-1.675-1.199-2.795-3.412-4.77-4.771-1.897-1.303-4.614-1.627-5.962-2.981-1.251-1.253-1.82-3.79-2.981-5.365-1.297-1.758-3.466-2.481-3.579-4.771-3.31-1.777-4.375-5.427-6.558-8.349-1.971-2.635-4.501-5.134-6.561-7.753-4.341-5.519-7.787-11.579-12.521-16.695-3.457-8.573-8.978-14.743-10.137-26.235-.262-2.606.775-5.907 0-8.944-.591-2.311-2.58-2.952-4.174-5.369-1.42-2.149-2.349-5.386-4.174-8.348-.48-.777-1.287-.817-1.789-1.79-.269-.52-.189-1.725-.595-2.385-.765-1.231-2.355-1.801-2.981-2.981-.616-1.155-.611-2.959-1.193-4.174-2.295-4.775-6.274-11.67-8.944-17.292-2.028-4.267-3.654-7.503-5.367-12.522-1.73-5.066-2.208-11.98-3.577-19.082-4.337-22.465 3.066-46.58 13.714-58.438 1.118-1.245 3.006-2.195 4.174-3.578 .989-1.17 1.304-2.989 2.384-4.173 3.486-3.818 8.193-7.855 12.523-11.33 2.113-1.696 4.75-3.199 7.156-4.77 9.08-5.93 24.275-14.363 38.758-13.715 8.249.369 17.187,1.701 23.256,4.771 12.567,1.139 24.882,6.31 35.181,10.136 17.893,6.648 35.602,14.521 50.684,25.045 12.903,7.689 23.036,17.103 31.01,30.411 2.696,4.504 4.656,8.443 6.558,15.503 3.532,13.108 4.196,33.568 10.138,45.915 4.017,8.348 10.168,13.314 16.695,19.677 .947,1.831 1,4.559 2.976,5.366zm-17.889,9.541c3.706-3.573 11.783-4.332 11.926-8.944 .044-1.375-1.758-2.99-3.577-4.771-4.555-4.457-9.45-8.348-12.523-13.119-2.848-4.422-2.139-8.47-6.558-11.329 1.826-4.987-1.022-10.704-1.789-16.1-.524-3.679-.524-7.134-1.192-10.734-.674-3.618-2.042-7.016-2.981-10.734-1.513-5.977-2.171-11.629-4.77-16.695-1.813-3.529-4.912-6.041-5.963-9.541-4.053-3.106-7.103-7.209-10.138-11.33-3.806-1.533-6.709-4.779-10.137-7.155-2.018-1.398-5.412-2.913-6.561-4.174-.674-.742-3.837-2.803-4.175-2.981-2.397-1.276-5.434-1.171-7.751-2.385-1.166-.612-2.391-2.188-3.577-2.982-4.312-2.884-8.11-4.082-13.118-6.558-6.336-3.134-12.059-6.244-19.679-7.752-4.925-4.849-10.426-4.103-17.889-5.963-5.538-1.38-10.424-3.789-15.502-4.174-6.643-.503-14.238-.228-19.679,1.79-1.326.491-2.61,2.203-4.174,2.981-1.731.862-3.968.941-5.365,1.789-.818.497-.355,1.634-1.193,2.385-.624.561-2.324.75-2.981,1.193-5.005,3.369-8.267,7.309-13.119,10.137-4.914,8.601-11.994,15.037-12.523,28.026-2.602,1.703-2.433,10.056-.595,12.522-.054.94-1.522.466-1.193,1.789 2.133,5.977 3.024,11.728 6.561,16.696 .964,1.355 2.895,2.619 4.172,4.174 3.83,4.658 7.436,9.805 11.928,13.119 2.368,1.748 4.848,2.463 6.558,4.173 3.124,3.125 6.598,5.781 9.542,8.349 .742.647.382,1.738 1.19,2.385s2.188.443 2.981,1.193c4.674,4.419 9.86,10.25 13.119,14.907 2.455,3.505 8.929,14.828 7.753,20.274-1.348,6.234-9.921,4.486-16.697,5.366-6.578-5.421-15.062-10.209-23.256-11.329-25.335-3.466-30.89,20.553-23.254,38.757 2.812,6.714 10.266,13.979 13.119,19.679 1.546,3.097 4.403,4.972 6.558,7.754 4.43,5.709 9.102,17.009 16.1,16.098 3.212-.418 4.068-5.203 7.156-5.963 4.957,5.581-2.957,11.565-2.386,18.486 10.008,7.88 21.021,14.758 32.797,20.869 1.873,2.633 5.125,3.774 7.751,5.368 8.662,5.256 16.38,11.334 25.64,15.504 1.401,2.426 4.272,3.502 6.561,4.768 7.617,4.217 14.218,9.229 21.465,13.717 4.55,2.816 9.8,5.301 15.505,7.751 7.651,3.286 15.812,8.162 25.044,7.155-.1-6.277-2.544-9.783-4.77-13.716-1.282-2.26-2.537-5.074-3.579-6.559-2.021-2.883-6.341-5.078-6.559-8.349-.11-1.684 1.979-4.89 2.981-7.153 3.462-7.82 7.367-14.525 10.138-22.065-14.683-5.39-30.909-9.239-45.914-14.309-.191-1.4-.942-2.237-.598-4.175 8.122-.04 16.553,2.853 25.64,4.175 8.69,1.264 17.811,2.032 26.237,3.578 3.208-9.117 8.733-15.915 13.118-23.853-1.737-2.031-4.834-1.951-7.155-2.981-.472-.212-1.286-1.598-1.789-1.789-1.579-.604-3.761-.582-5.364-1.192-1.842-.7-3.175-1.958-4.772-2.384-4.686-1.263-13.137,1.29-13.714-4.772 10.504-2.812 26.011-.474 35.182,1.791 10.61,2.617 19.506,4.252 28.025,7.749 5.709,2.346 11.268,6.74 17.293,5.367 1.38-4.15-1.359-8.38-2.981-11.926-.995-2.173-2.706-5.765-3.579-6.559-.727-.662-.098-.771-.596-1.79-1.497-3.06-2.243-4.182-4.174-6.559-2.904-3.576-5.199-5.487-8.349-8.349-5.008-4.548-10.366-7.562-16.099-10.732-2.308-1.275-1.877-1.62-3.578-2.981-.864-.691-2.516-.753-2.981-1.193-1.603-1.504-2.108-4.081-4.175-5.367 1.642-1.586-.438-2.088-.596-3.577 2.166-1.197 1.85-3.107 3.577-4.771zm-32.796,88.848c4.53,1.462 10.995,7.611 13.119,1.191-7.136-1.613-16.26-4.408-23.854-3.577 2.94,1.267 6.832,1.125 10.735,2.386z" fill-rule="evenodd"/>
 <path d="m218.908,158.649c-8.72-.139-11.546-7.625-22.66-5.366-4.286.871-11.964,3.819-15.503,6.56-4.367,3.38-11.408,6.702-17.889,8.943-3.17.188-5.636-.329-5.965-2.98 6.808-2.022 13.717-5.593 20.274-8.944 4.523-2.312 8.453-6.035 13.119-7.752 7.56-2.781 19.97-2.622 26.835,1.79 .969.621 3.413,5.085 1.789,7.749z" fill-rule="evenodd"/>
 <path d="m75.201,209.93c-9.819.479-12.388-6.296-16.1-11.926-1.322-13.843 3.639-21.405 14.907-22.658-2.728-4.445-4.514-10.901-9.54-10.734-4.363.147-8.369,9.079-11.33,12.522-5.579-2.257.622-8.962 1.193-12.522-.44-1.334-5.09,1.585-5.368-1.192 6.407-7.188 17.24-6.648 23.256-1.79 3.355,2.71 7.26,9.896 6.559,16.099-.273,2.417-3.441,6.749-2.981,11.33 .395,3.93 3.896,7.969 3.579,12.523-.256,3.652-1.967,5.551-4.175,8.348zm-11.926-18.484c.255,6.006 5.727,13.461 10.732,13.119 2.339-6.636-3.628-11.104-3.577-16.695 .004-.627 1.58-2.624 1.788-3.579 .36-1.65-.264-3.155.596-4.77-6.353-.476-9.779,6.293-9.539,11.925z" fill-rule="evenodd"/>
 <path d="m209.366,159.246c1.182,6.827-5.352,10.721-1.788,19.082 .717,2.446 4.599,4.294 2.386,7.751-8.697.033-4.954-10.29-10.735-11.926-3.965-1.122-14.233,8.967-20.869,2.981 .444-4.407 5.081-2.981 7.751-3.576 8.798-1.96 17.033-6.146 20.274-13.715 .866-.327 3.084.696 2.981-.597z" fill-rule="evenodd"/>
 <path d="m252.301,205.757c-.582.016-.464.729-.598,1.191-5.043-.72-7.962-3.563-11.33-5.963-5.238.073-8.053-2.281-12.521-2.981 .009-1.582-.331-3.51 1.192-3.577 8.172-1.961 12.741,4.715 19.677,5.963 .13,2.853 3.473,2.493 3.58,5.367z" fill-rule="evenodd"/>
 <path d="m217.12,198.602c1.266,6.027-6.736,7.438-11.929,8.944-1.875,1.701-4.465,2.69-5.365,5.365-14.7,6.769-25.45,17.483-33.393,31.009 .051.845.1,1.688-.596,1.789-.46,3.061 1.033,4.529 0,6.56-4.992,1.014-4.632-3.318-7.753-4.176 .6-3.809 3.361-6.585 5.367-9.54 1.971-2.901 3.732-6.325 5.963-8.944 3.19-3.745 9.355-7.193 13.714-11.33 5.13-4.863 13.803-8.042 19.679-13.714 4.992-1.169 9.143-3.182 12.521-5.963h1.792z" fill-rule="evenodd"/>
 <path d="m56.119,226.627c2.977,3.837-2.124,8.136-2.981,11.926 1.004,3.368 4.816,3.928 5.367,7.754 20.523,18.03 38.805,38.896 64.398,52.472 4.848,2.57 10.031,4.49 14.312,7.751 1.593,1.216 4.832,2.253 4.174,5.368-3.326,2.814-5.787-.707-8.349-2.387-2.841-1.861-6.161-2.646-8.944-4.172-2.228-1.224-4.197-3.399-6.558-4.772-6.594-3.834-15.091-7.653-21.467-12.521-7.116-2.764-14.585-2.99-24.449-4.175-1.453-.175-2.902-1.117-4.172-1.192-1.122-.067-2.322,1.119-3.579,1.192-1.253.073-1.271-1.112-1.789-1.192-1.102-.167-1.524,1.208-1.788,1.192-4.108-.26-7.231-1.339-11.926-.598-2.697.427-6.009,1.722-8.944,2.387-8.775,1.985-13.232,3.079-18.486,8.944h-5.963c-.209-2.711 2.855-3.684 4.174-5.368 4.286-5.465 7.502-12.527 11.328-19.079 .267-.455 1.395-.479 1.791-1.195 3.093-5.594 6.836-11.609 10.137-17.888 1.842-3.506 2.52-7.672 5.963-9.54 1.471-3.297 2.662-6.878 4.77-9.54v-3.578c.211-.785 1.048-.938 1.193-1.789h1.788z" fill-rule="evenodd"/>
</svg>
