<?xml version="1.0" encoding="UTF-8"?>
<svg viewBox="0 0 640 480" xmlns="http://www.w3.org/2000/svg" xmlns:xlink="http://www.w3.org/1999/xlink">
 <defs>
  <filter id="a">
   <feGaussianBlur stdDeviation=".73389"/>
  </filter>
  <filter id="b" x="-5.8712" y="-1.1222" width="12.742" height="3.2444">
   <feGaussianBlur stdDeviation="115.49482"/>
  </filter>
  <filter id="c" x="-3.498" y="-.68385" width="7.9959" height="2.3677">
   <feGaussianBlur stdDeviation="115.49482"/>
  </filter>
  <filter id="d" x="-8.8865" y="-.68853" width="18.773" height="2.3771">
   <feGaussianBlur stdDeviation="115.49482"/>
  </filter>
  <filter id="e" x="-6.8453" y="-.58099" width="14.691" height="2.162">
   <feGaussianBlur stdDeviation="115.49482"/>
  </filter>
  <filter id="f" x="-5.4256" y="-.50521" width="11.851" height="2.0104">
   <feGaussianBlur stdDeviation="115.49482"/>
  </filter>
  <filter id="g" x="-4.3178" y="-.53044" width="9.6356" height="2.0609">
   <feGaussianBlur stdDeviation="115.49482"/>
  </filter>
  <filter id="h" x="-6.5291" y="-.51264" width="14.058" height="2.0253">
   <feGaussianBlur stdDeviation="115.49482"/>
  </filter>
  <filter id="i" x="-5.3616" y="-.51086" width="11.723" height="2.0217">
   <feGaussianBlur stdDeviation="115.49482"/>
  </filter>
  <filter id="j" x="-6.061" y="-.62168" width="13.122" height="2.2434">
   <feGaussianBlur stdDeviation="115.49482"/>
  </filter>
  <filter id="k" x="-7.6772" y="-.55189" width="16.354" height="2.1038">
   <feGaussianBlur stdDeviation="115.49482"/>
  </filter>
  <filter id="l" x="-3.9187" y="-.55584" width="8.8374" height="2.1117">
   <feGaussianBlur stdDeviation="115.49482"/>
  </filter>
  <filter id="m" x="-7.7238" y="-.60048" width="16.448" height="2.201">
   <feGaussianBlur stdDeviation="115.49482"/>
  </filter>
  <filter id="u" x="-.01903" y="-.18159" width="1.0381" height="1.3632">
   <feGaussianBlur stdDeviation="128.31617"/>
  </filter>
  <filter id="t" x="-.05964" y="-.26859" width="1.1193" height="1.5372">
   <feGaussianBlur stdDeviation="24.26484"/>
  </filter>
  <filter id="s" x="-.02204" y="-.22734" width="1.0441" height="1.4547">
   <feGaussianBlur stdDeviation="13.47099"/>
  </filter>
  <filter id="r" x="-.03792" y="-.3766" width="1.0758" height="1.7532">
   <feGaussianBlur stdDeviation="19.29336"/>
  </filter>
  <filter id="q" x="-.05001" y="-.1468" width="1.1" height="1.2936">
   <feGaussianBlur stdDeviation="6.70053"/>
  </filter>
  <linearGradient id="n">
   <stop stop-color="#cb1f1d" offset="0"/>
   <stop stop-color="#900" offset="1"/>
  </linearGradient>
  <radialGradient id="p" cx="-30002" cy="8914.6" r="7979.7" gradientTransform="matrix(-1.1402 .07997 -.00942 -.1686 -57690 14875)" gradientUnits="userSpaceOnUse" xlink:href="#n"/>
  <radialGradient id="o" cx="-22091" cy="20792" r="8063.3" gradientTransform="matrix(.06641 -.54237 .87876 .10765 -41444 318.43)" gradientUnits="userSpaceOnUse" xlink:href="#n"/>
 </defs>
 <path transform="matrix(.35782 0 0 .33934 249.99 138.76)" d="m433.7 205.06a268.48 45.177 0 1 1 -536.96 0 268.48 45.177 0 1 1 536.96 0z" fill-opacity=".91124" stroke="#130206" stroke-width=".1"/>
 <g transform="matrix(.03434 0 0 .02798 1166 -144.74)">
  <path d="m-24884 12387c3117 770.85 8879.7-1043.4 8879.7-1043.4-504.6 734.19-4120.4-2156.8-6225.9-2147.7-641.16 2.7759-1877.1 551.22-2517.7 571.77-1108 35.537-1348.7-724.01-2456.5-683.87-1871 67.793-5251.1 2532.8-6084.6 2209.4 2393.8 875.41 6637.1 1582.9 8405 1093.8z" fill="url(#p)" stroke="#9c0c1c" stroke-width="33.127"/>
  <path d="m-33373 11208s5735.4 1514.3 8323.1 1552.6c2855.9 42.285 9187.9-1348 9187.9-1348-1572.3-305.03-3820.9 5499.9-9073.7 5363.1-4847.6-126.22-7443.9-5712.2-8437.3-5567.7z" fill="url(#o)" stroke="#83172d" stroke-width="68.227"/>
  <path d="m-26515 13262 289.58 668.99 1447.9-334.5-96.527-597.31z" fill="#fff" opacity=".65366" stroke="#000" stroke-width=".42887"/>
  <path d="m-23073 13242-273.33 617.54-1366.6-308.77 91.109-551.38z" fill="#fff" opacity=".65366" stroke="#000" stroke-width=".40032"/>
  <path d="m-27282 10039 2844.6 1163.7s2456.7-1357.6 2198.1-1293-2068.8 711.15-2327.4 711.15-2715.3-258.6-2715.3-258.6z" fill="#fff" opacity=".53171" stroke="#000"/>
  <path d="m-25563 11900c7.736 42.049 10.133 87.871 13.586 132.78 2.114 27.659 1.111 13.984 3.014 41.022 3.777 53.751-26.954 66.966-30.732 13.215-1.818-25.907-0.846-12.616-2.929-39.866-3.012-39.413-4.9-79.776-11.609-116.76-8.689-50.146 19.981-80.54 28.67-30.393z" fill="#382e2e" filter="url(#b)"/>
  <path d="m-25490 11832c9.331 45.518 17.095 92.923 25.15 139.9 9.859 49.999 16.957 102.82 22.07 156.89 2.211 29.115 1.445 14.608 2.34 43.507 1.398 54.448-29.731 59.341-31.129 4.893-0.305-18.554 0.1-8.205-1.594-30.941-4.639-49.792-11.312-98.26-20.403-144.22-7.577-44.192-14.887-88.762-23.516-131.75-10.943-47.368 16.14-85.649 27.082-38.279z" fill="#382e2e" filter="url(#c)"/>
  <path d="m-25397 11851v320.74c0 54.557-31.192 54.557-31.192 0v-320.74c0-54.557 31.192-54.557 31.192 0z" fill="#382e2e" filter="url(#d)"/>
  <path d="m-25329 11856c6.365 73.44 7.298 148.85 8.439 223.64 0.762 60.215 0.981 120.46 1.162 180.7 0.163 54.556-31.028 55.127-31.192 0.571-0.177-59.462-0.392-118.93-1.14-178.37-1.054-69.471-1.841-139.52-7.529-207.83-5.35-52.929 24.911-71.642 30.26-18.713z" fill="#382e2e" filter="url(#e)"/>
  <path d="m-25204 11841c10.276 65.941 14.121 136.01 17.016 205.85 2.657 80.475 3.036 161.26 3.247 241.96l0.03 29.527c0.06 54.558-31.135 54.755-31.192 0.198 0-9.743-0.02-19.486-0.03-29.229-0.203-78.253-0.557-156.59-3.086-234.63-2.673-65.373-6.266-130.83-15.977-192.47-6.06-52.459 23.932-73.655 29.992-21.197z" fill="#382e2e" filter="url(#f)"/>
  <path d="m-25028 11927c0.146 54.799 6.037 108.45 10.422 161.85 5.667 61.039 8.617 123.46 13.848 184.67 3.078 28.618 5.093 57.677 6.361 87.087l-3.258-20.336c15.982 37.599-5.514 93.507-21.496 55.909-2.088-9.135-4.175-18.27-6.263-27.405-1.154-26.875-3.047-53.368-5.88-79.512-5.113-61.415-8.311-123.82-13.88-185.05-4.799-58.467-11.072-117.17-11.046-177.21 0-54.557 31.192-54.557 31.192 0z" fill="#382e2e" filter="url(#g)"/>
  <path d="m-24877 11864v194.13c-1.207 70.196 1.603 139.95 6.641 208.96 2.684 33.031 1.377 16.976 3.919 48.169 4.357 53.483-26.221 68.723-30.578 15.241-2.589-31.784-1.24-15.177-4.046-49.823-5.271-73.503-8.386-147.8-7.128-222.54v-194.13c0-54.558 31.192-54.558 31.192 0z" fill="#382e2e" filter="url(#h)"/>
  <path d="m-24706 11867c0.414 78.599 2.161 157.24 5.77 235.35 4.919 72.713 8.852 145.81 14.364 218.27 4.077 53.618-26.577 67.88-30.654 14.263-5.647-74.294-9.716-149.24-14.702-223.82-3.702-81.011-5.577-162.55-5.97-244.06 0-54.557 31.192-54.557 31.192 0z" fill="#382e2e" filter="url(#i)"/>
  <path d="m-24477 11940c0.03 65.708-0.752 131.24 1.799 196.69 3.538 53.573 7.897 106.78 12.025 160.09 4.15 53.583-26.485 68.099-30.635 14.516-4.317-55.746-8.918-111.38-12.449-167.47-0.644-17.763-1.572-35.477-1.932-53.29-1.012-50.05 0.682-100.44 0-150.53 0-54.557 31.192-54.557 31.192 0z" fill="#382e2e" filter="url(#j)"/>
  <path d="m-24238 11996c0.693 74.514-0.922 148.87-2.372 223.26-0.12 64.87-3.705 130.15-2.057 195.01 1.228 54.473-29.916 58.768-31.144 4.295-1.381-67.616 1.547-135.42 2.045-203.02 1.426-73.153 3.035-146.26 2.336-219.54 0-54.557 31.192-54.557 31.192 0z" fill="#382e2e" filter="url(#k)"/>
  <path d="m-24123 11933c2.972 47.46 3.635 95.49 4.197 143.41-0.247 60.792 3.292 121.15 9.179 180.04 1.033 7.348 1.931 14.819 3.098 22.043 1.719 10.644 4.52 24.434 7.13 34.088 1.063 3.936 2.213 7.778 3.56 11.142 0.421 1.05 1.733 3.285 1.634 1.827-0.147-2.181-1.224-3.223-1.836-4.835 21.38 13.402 13.718 88.194-7.662 74.792-3.387-3.351-7.033-5.407-10.16-10.052-14.254-21.177-20.856-74.729-26.059-110.64-6.313-64.221-10.306-129.92-10.063-196.18-0.516-44.421-1.082-88.945-3.786-132.96-3.626-53.816 27.142-66.5 30.768-12.685z" fill="#382e2e" filter="url(#l)"/>
  <path d="m-23936.091,11868.955c3.129,52.627 3.614,105.92 4.198,159.006 .525,55.949.596,111.915.625,167.876v59.263c-.02,54.557-31.21,54.496-31.192-.06 0-19.701.01-39.4 0-59.1-.03-55.298-.1-110.6-.614-165.885-.542-49.541-.954-99.276-3.785-148.415-3.626-53.815 27.142-66.5 30.768-12.684z" fill="#382e2e" filter="url(#m)"/>
  <path d="m-27415 11832c7.736 42.049 10.133 87.871 13.586 132.78 2.114 27.659 1.111 13.984 3.014 41.022 3.777 53.751-26.954 66.966-30.732 13.215-1.818-25.907-0.846-12.616-2.929-39.866-3.012-39.413-4.9-79.776-11.609-116.76-8.689-50.146 19.981-80.54 28.67-30.393z" fill="#382e2e" filter="url(#b)"/>
  <path d="m-27342 11763c9.331 45.518 17.095 92.923 25.15 139.9 9.859 49.999 16.957 102.82 22.07 156.89 2.211 29.115 1.445 14.608 2.34 43.507 1.398 54.448-29.731 59.341-31.129 4.893-0.305-18.554 0.1-8.205-1.594-30.941-4.639-49.792-11.312-98.26-20.403-144.22-7.577-44.192-14.887-88.762-23.516-131.75-10.943-47.368 16.14-85.649 27.082-38.279z" fill="#382e2e" filter="url(#c)"/>
  <path d="m-27249 11783v320.74c0 54.557-31.192 54.557-31.192 0v-320.74c0-54.557 31.192-54.557 31.192 0z" fill="#382e2e" filter="url(#d)"/>
  <path d="m-27180 11788c6.365 73.44 7.298 148.85 8.439 223.64 0.762 60.215 0.981 120.46 1.162 180.7 0.163 54.556-31.028 55.127-31.192 0.571-0.177-59.462-0.392-118.93-1.14-178.37-1.054-69.471-1.841-139.52-7.529-207.83-5.35-52.929 24.911-71.642 30.26-18.713z" fill="#382e2e" filter="url(#e)"/>
  <path d="m-27056 11772c10.276 65.941 14.121 136.01 17.016 205.85 2.657 80.475 3.036 161.26 3.247 241.96l0.03 29.527c0.06 54.558-31.135 54.755-31.192 0.198 0-9.743-0.02-19.486-0.03-29.229-0.203-78.253-0.557-156.59-3.086-234.63-2.673-65.373-6.266-130.83-15.977-192.47-6.06-52.459 23.932-73.655 29.992-21.197z" fill="#382e2e" filter="url(#f)"/>
  <path d="m-26880 11858c0.146 54.799 6.037 108.45 10.422 161.85 5.667 61.039 8.617 123.46 13.848 184.67 3.078 28.618 5.093 57.677 6.361 87.087l-3.258-20.336c15.982 37.599-5.514 93.507-21.496 55.909-2.088-9.135-4.175-18.27-6.263-27.405-1.154-26.875-3.047-53.368-5.88-79.512-5.113-61.415-8.311-123.82-13.88-185.05-4.799-58.467-11.072-117.17-11.046-177.21 0-54.557 31.192-54.557 31.192 0z" fill="#382e2e" filter="url(#g)"/>
  <path d="m-26729 11795v194.13c-1.207 70.196 1.603 139.95 6.641 208.96 2.684 33.031 1.377 16.976 3.919 48.169 4.357 53.483-26.221 68.723-30.578 15.241-2.589-31.784-1.24-15.177-4.046-49.823-5.271-73.503-8.386-147.8-7.128-222.54v-194.13c0-54.558 31.192-54.558 31.192 0z" fill="#382e2e" filter="url(#h)"/>
  <path d="m-26557 11798c0.414 78.599 2.161 157.24 5.77 235.35 4.919 72.713 8.852 145.81 14.364 218.27 4.077 53.618-26.577 67.88-30.654 14.263-5.647-74.294-9.716-149.24-14.702-223.82-3.702-81.011-5.577-162.55-5.97-244.06 0-54.557 31.192-54.557 31.192 0z" fill="#382e2e" filter="url(#i)"/>
  <path d="m-26329 11871c0.03 65.708-0.752 131.24 1.799 196.69 3.538 53.573 7.897 106.78 12.025 160.09 4.15 53.583-26.485 68.099-30.635 14.516-4.317-55.746-8.918-111.38-12.449-167.47-0.644-17.763-1.572-35.477-1.932-53.29-1.012-50.05 0.682-100.44 0-150.53 0-54.557 31.192-54.557 31.192 0z" fill="#382e2e" filter="url(#j)"/>
  <path d="m-26089 11927c0.693 74.514-0.922 148.87-2.372 223.26-0.12 64.87-3.705 130.15-2.057 195.01 1.228 54.473-29.916 58.768-31.144 4.295-1.381-67.616 1.547-135.42 2.045-203.02 1.426-73.153 3.035-146.26 2.336-219.54 0-54.557 31.192-54.557 31.192 0z" fill="#382e2e" filter="url(#k)"/>
  <path d="m-25975 11865c2.972 47.46 3.635 95.49 4.197 143.41-0.247 60.792 3.292 121.15 9.179 180.04 1.033 7.348 1.931 14.819 3.098 22.043 1.719 10.644 4.52 24.434 7.13 34.088 1.063 3.936 2.213 7.778 3.56 11.142 0.421 1.05 1.733 3.285 1.634 1.827-0.147-2.181-1.224-3.223-1.836-4.835 21.38 13.402 13.718 88.194-7.662 74.792-3.387-3.351-7.033-5.407-10.16-10.052-14.254-21.177-20.856-74.729-26.059-110.64-6.313-64.221-10.306-129.92-10.063-196.18-0.516-44.421-1.082-88.945-3.786-132.96-3.626-53.816 27.142-66.5 30.768-12.685z" fill="#382e2e" filter="url(#l)"/>
  <path d="m-25787.52,11800.384c3.129,52.627 3.614,105.92 4.198,159.006 .525,55.949.596,111.915.625,167.876v59.263c-.02,54.557-31.21,54.496-31.192-.06 0-19.701.01-39.4 0-59.1-.03-55.298-.1-110.6-.614-165.885-.542-49.541-.954-99.276-3.785-148.415-3.626-53.815 27.142-66.5 30.768-12.684z" fill="#382e2e" filter="url(#m)"/>
  <path d="m-23757 11832c7.736 42.049 10.133 87.871 13.586 132.78 2.114 27.659 1.111 13.984 3.014 41.022 3.777 53.751-26.954 66.966-30.732 13.215-1.818-25.907-0.846-12.616-2.929-39.866-3.012-39.413-4.9-79.776-11.609-116.76-8.689-50.146 19.981-80.54 28.67-30.393z" fill="#382e2e" filter="url(#b)"/>
  <path d="m-23685 11763c9.331 45.518 17.095 92.923 25.15 139.9 9.859 49.999 16.957 102.82 22.07 156.89 2.211 29.115 1.445 14.608 2.34 43.507 1.398 54.448-29.731 59.341-31.129 4.893-0.305-18.554 0.1-8.205-1.594-30.941-4.639-49.792-11.312-98.26-20.403-144.22-7.577-44.192-14.887-88.762-23.516-131.75-10.943-47.368 16.14-85.649 27.082-38.279z" fill="#382e2e" filter="url(#c)"/>
  <path d="m-23592 11783v320.74c0 54.557-31.192 54.557-31.192 0v-320.74c0-54.557 31.192-54.557 31.192 0z" fill="#382e2e" filter="url(#d)"/>
  <path d="m-23523 11788c6.365 73.44 7.298 148.85 8.439 223.64 0.762 60.215 0.981 120.46 1.162 180.7 0.163 54.556-31.028 55.127-31.192 0.571-0.177-59.462-0.392-118.93-1.14-178.37-1.054-69.471-1.841-139.52-7.529-207.83-5.35-52.929 24.911-71.642 30.26-18.713z" fill="#382e2e" filter="url(#e)"/>
  <path d="m-23399 11772c10.276 65.941 14.121 136.01 17.016 205.85 2.657 80.475 3.036 161.26 3.247 241.96l0.03 29.527c0.06 54.558-31.135 54.755-31.192 0.198 0-9.743-0.02-19.486-0.03-29.229-0.203-78.253-0.557-156.59-3.086-234.63-2.673-65.373-6.266-130.83-15.977-192.47-6.06-52.459 23.932-73.655 29.992-21.197z" fill="#382e2e" filter="url(#f)"/>
  <path d="m-23223 11858c0.146 54.799 6.037 108.45 10.422 161.85 5.667 61.039 8.617 123.46 13.848 184.67 3.078 28.618 5.093 57.677 6.361 87.087l-3.258-20.336c15.982 37.599-5.514 93.507-21.496 55.909-2.088-9.135-4.175-18.27-6.263-27.405-1.154-26.875-3.047-53.368-5.88-79.512-5.113-61.415-8.311-123.82-13.88-185.05-4.799-58.467-11.072-117.17-11.046-177.21 0-54.557 31.192-54.557 31.192 0z" fill="#382e2e" filter="url(#g)"/>
  <path d="m-23072 11795v194.13c-1.207 70.196 1.603 139.95 6.641 208.96 2.684 33.031 1.377 16.976 3.919 48.169 4.357 53.483-26.221 68.723-30.578 15.241-2.589-31.784-1.24-15.177-4.046-49.823-5.271-73.503-8.386-147.8-7.128-222.54v-194.13c0-54.558 31.192-54.558 31.192 0z" fill="#382e2e" filter="url(#h)"/>
  <path d="m-22900 11798c0.414 78.599 2.161 157.24 5.77 235.35 4.919 72.713 8.852 145.81 14.364 218.27 4.077 53.618-26.577 67.88-30.654 14.263-5.647-74.294-9.716-149.24-14.702-223.82-3.702-81.011-5.577-162.55-5.97-244.06 0-54.557 31.192-54.557 31.192 0z" fill="#382e2e" filter="url(#i)"/>
  <path d="m-22671 11871c0.03 65.708-0.752 131.24 1.799 196.69 3.538 53.573 7.897 106.78 12.025 160.09 4.15 53.583-26.485 68.099-30.635 14.516-4.317-55.746-8.918-111.38-12.449-167.47-0.644-17.763-1.572-35.477-1.932-53.29-1.012-50.05 0.682-100.44 0-150.53 0-54.557 31.192-54.557 31.192 0z" fill="#382e2e" filter="url(#j)"/>
  <path d="m-22432 11927c0.693 74.514-0.922 148.87-2.372 223.26-0.12 64.87-3.705 130.15-2.057 195.01 1.228 54.473-29.916 58.768-31.144 4.295-1.381-67.616 1.547-135.42 2.045-203.02 1.426-73.153 3.035-146.26 2.336-219.54 0-54.557 31.192-54.557 31.192 0z" fill="#382e2e" filter="url(#k)"/>
  <path d="m-22318 11865c2.972 47.46 3.635 95.49 4.197 143.41-0.247 60.792 3.292 121.15 9.179 180.04 1.033 7.348 1.931 14.819 3.098 22.043 1.719 10.644 4.52 24.434 7.13 34.088 1.063 3.936 2.213 7.778 3.56 11.142 0.421 1.05 1.733 3.285 1.634 1.827-0.147-2.181-1.224-3.223-1.836-4.835 21.38 13.402 13.718 88.194-7.662 74.792-3.387-3.351-7.033-5.407-10.16-10.052-14.254-21.177-20.856-74.729-26.059-110.64-6.313-64.221-10.306-129.92-10.063-196.18-0.516-44.421-1.082-88.945-3.786-132.96-3.626-53.816 27.142-66.5 30.768-12.685z" fill="#382e2e" filter="url(#l)"/>
  <path d="m-22130.377,11800.384c3.129,52.627 3.614,105.92 4.198,159.006 .525,55.949.596,111.915.625,167.876v59.263c-.02,54.557-31.21,54.496-31.192-.06 0-19.701.01-39.4 0-59.1-.03-55.298-.1-110.6-.614-165.885-.542-49.541-.954-99.276-3.785-148.415-3.626-53.815 27.142-66.5 30.768-12.684z" fill="#382e2e" filter="url(#m)"/>
  <path d="m-32640 11178c2604.9 875.2 5093.5 1743.7 7817.1 1668.6 3042-13.893 5423.6-663.84 7982.4-1462.9" fill="none" filter="url(#u)" stroke="#820925" stroke-width="70.8"/>
 </g>
 <path transform="matrix(.35782 0 0 .33934 249.99 138.76)" d="m-273.43 288c10.362 5.3973 20.421 11.349 30.731 16.842 13.477 6.5504 26.776 13.456 40.277 19.966 20.229 8.8971 40.316 18.184 60.785 26.527 12.011 4.9042 23.923 10.082 35.561 15.82 7.6315 3.5437 14.757 8.0344 21.777 12.642 7.8438 4.7673 16.073 8.9176 24.302 12.983 7.4564 3.7067 15.413 6.1145 23.227 8.9053 8.6998 3.8031 17.705 6.7013 26.71 9.6684 12.232 3.6992 24.698 6.5926 37.019 9.9866 9.7523 2.6867 19.636 4.8239 29.415 7.3764 7.7716 2.2584 15.73 3.6456 23.774 4.4253 9.771 0.20544 19.342 2.2531 29.019 3.399 12.476 1.2844 25.015 1.7814 37.548 2.0562 11.549 0.17434 23.101 0.13912 34.651 0.13008l29.044-0.0268 23.195-4e-3 25.883 1.8e-4 36.22 7e-5h30.722c5.5885-1.244 11.462-0.88949 17.051-2.0553 6.7671-1.3226 13.672-1.69 20.397-3.2068 10.662-1.9676 21.346-3.8576 32.07-5.4636 5.6621-0.19002 10.535-1.8726 15.707-3.598 5.8768-2.372 11.942-4.3076 17.772-6.8172 11.907-4.4605 23.602-9.2498 35.862-12.681 7.7153-2.2472 15.216-5.1784 22.682-8.1414 5.8804-2.3367 9.7837-5.2117 15.351-8.247 5.5127-3.1915 11.214-6.0069 17.064-8.5228 7.4836-3.4161 15.591-5.6019 22.85-9.5129 5.791-2.4006 10.388-6.481 15.005-10.554-0.22938 0.12236-0.83174 0.5838-0.68814 0.36708 2.5677-3.8754 6.6407-7.1718 9.8048-10.64 5.4128-6.4352 12.353-11.075 19.044-16.008 0.66533-0.5256 1.3177-1.068 1.996-1.5768 2.855-2.1418 5.5494-4.194 8.2765-6.4968 1.6397-1.3846 1.2227-1.1038 0.50888-0.72749 1.25-1.7178 0.47563-0.67239 2.354-3.1132 26.739-34.704 75.818 3.1105 49.079 37.815-2.9496 3.8245-1.3228 1.7503-4.901 6.2067-6.4256 6.8708-13.622 12.795-21.262 18.282-3.5716 2.5217-5.9493 3.6668-9.324 7.377-4.6075 5.0503-9.3198 9.8848-13.896 14.974-8.7604 7.7294-18.028 14.851-28.733 19.732-8.5599 4.0551-17.393 7.4474-26.137 11.006-4.5347 1.7584-8.6662 4.3671-12.96 6.6212 0.91456-1.2139 0.22872-0.22549-2.4519 1.4328-5.8095 3.594-11.858 6.5947-18.177 9.1941-9.5928 3.7895-19.245 7.497-29.177 10.306-9.8528 2.5634-19.022 6.9227-28.637 10.222-7.21 2.8958-14.505 5.5436-21.77 8.3002-8.5236 2.816-17.118 5.3508-26.124 6.0836-9.5041 1.4026-18.962 3.1167-28.418 4.8078-7.8444 1.597-15.759 2.5189-23.657 3.8028-8.8098 1.2517-17.694 2.0844-26.562 2.7897l-30.722-1e-5 -36.22-7e-5 -25.882-1.7e-4 -23.163 4e-3 -29.029 0.0268c-12.026 9e-3 -24.052 0.0455-36.077-0.14538-14.567-0.32794-29.14-0.93309-43.634-2.4921-9.2788-1.1461-18.427-3.0592-27.796-3.2629-11.431-1.188-22.767-3.1128-33.828-6.2913-9.7306-2.9426-19.929-4.401-29.653-7.4416-13.269-3.6975-26.735-6.7091-39.877-10.852-9.5075-3.1327-19.04-6.1877-28.228-10.19-10.063-3.6248-20.282-6.8554-29.851-11.724-10.443-5.1963-20.896-10.468-30.77-16.691-4.959-3.2551-9.9219-6.5499-15.361-8.959-10.235-5.1591-20.857-9.5395-31.428-13.951-21.626-8.8675-42.906-18.59-64.264-28.076-14.271-6.8919-28.339-14.174-42.574-21.134-9.7916-5.2545-19.409-10.825-29.213-16.056-39.185-19.593-11.477-75.009 27.708-55.416z" fill="#a40000" fill-opacity=".91124" filter="url(#t)" stroke="#130206" stroke-width=".1"/>
 <path transform="matrix(.35722 0 0 .36232 249.66 142)" d="m-468.54 74.476c148.31-46.02 263.5-92.059 416.88-116.48 115.87 13.712 234.28 77.079 350.43 29.231 87.288-24.832 184.73-36.614 269.14 4.3799 94.811 26.266 172.76 71.448 269.11 89.91 45.303 51.895-33.486-7.3348-55.76-25.53-88.029-22.151-181.03-20.331-266.62-53.08-67.994-19.659-142.69-18.928-207.27 11.611-110.91 28.07-227.25 7.6129-334.61-25.646-116.25-9.5336-222.53 52.339-337.28 57.56-44.099 13.39-60.098 64.865-104.03 28.04z" fill="#ef2929" fill-opacity=".91124" filter="url(#s)" stroke="#130206" stroke-width=".1"/>
 <path transform="matrix(.39579 0 0 .23378 215.84 154.43)" d="m-350.32 125.02c6.4533 2.2018 12.912 4.4046 19.378 6.5865 5.0821 1.8249 10.086 3.5661 15.311 4.9094 7.0351 1.8131 13.715 4.7257 20.736 6.5687 6.172 1.4971 12.078 3.8868 18.254 5.3542 6.3449 0.89696 12.592 2.2297 18.8 3.8118 7.796 2.2019 15.745 3.6623 23.71 5.1033 7.2592 1.3198 14.598 2.0576 21.963 2.4048 7.6594 1.1471 15.354 1.8705 23.085 2.2903 7.5219 0.33264 15.052 0.39973 22.58 0.4296 7.0714 0.33957 13.794 2.6379 20.722 3.8655 7.7262 0.65742 15.296 1.8069 22.876 3.4599 7.3706 1.3471 14.693 2.5794 21.838 4.8789 5.0295 1.862 10.358 2.5368 15.67 2.9783 5.7852-0.0147 11.438 1.1879 17.133 2.026 5.3259 0.33671 10.493 1.6856 15.74 2.5542 5.8456 1.5219 11.758 2.4939 17.768 3.0188 7.1285 1.1498 14.252 2.2308 21.243 4.0522 6.3104 1.8677 12.736 3.2158 19.295 3.7397 12.056 1.5944 23.742 4.9476 35.549 7.73 6.8596 1.6587 13.844 2.5867 20.885 2.913 8.6864 0.42301 17.315 1.517 26.005 2.0116 8.6593 0.46172 17.33 0.59094 26 0.64307 9.1937 0.61238 18.353 1.5975 27.552 2.1473 8.0041 0.44836 16.024 0.42109 24.038 0.44578 8.7728 0.0142 17.546 1e-3 26.318-4e-3l25.71-8e-3 23.652-4.2e-4 29.58 9e-5 28.671 1e-5h83.581c6.5812-0.53525 13.396 0.78329 19.934-0.23548 7.3653-1.326 14.849-1.7163 22.311-2.0434 8.6468 0.0846 17.203-0.48151 25.789-1.4135 6.8109-1.5789 13.419-3.8135 20.299-5.1518 10.125-1.376 20.346-1.1442 30.504-2.1751 6.6657-0.31215 13.094-2.0409 19.644-3.1296 9.0263-1.9948 18.278-2.4131 27.411-3.6384 5.939-1.305 11.429-3.9212 17.222-5.7143 5.3711-1.7024 10.573-3.9637 15.619-6.465 7.6654-3.6866 16.168-4.7751 24.321-6.9036 5.9177-1.8037 12.246-2.7145 17.963-5.1401 8.2425-3.3412 17.16-3.743 25.929-4.1616 11.768-0.3573 23.542-0.3357 35.314-0.33484 11.571 0.0127 23.142 0.025 34.714 0.0319 6.2013-0.47169 16.201 0.62063 21.887-2.1445 4.8342-1.4121 8.0626-4.8565 12.049-7.7587 4.6696-3.5837 9.3472-7.0767 14.42-10.072 4.9628-2.9891 9.7875-6.193 14.823-9.0614 6.7847-3.6132 14.208-5.6928 21.411-8.2783 5.0346-1.9642 9.9262-4.2393 14.942-6.2404 4.9696-2.3647 10.083-4.2849 15.267-6.1176 17.218-6.0639 25.793 18.286 8.5757 24.35-4.9098 1.7236-9.7201 3.5858-14.438 5.8098-5.2733 1.9841-10.328 4.5488-15.624 6.4963-5.8231 2.0902-11.806 3.7902-17.405 6.4407-4.9168 2.7673-9.5836 5.9446-14.428 8.833-4.4402 2.6199-8.4685 5.7736-12.587 8.8826-5.917 4.0042-11.111 9.1067-18.26 11.006-9.871 3.2555-20.296 3.7744-30.647 3.6708l-34.7-0.0319c-11.37-8.9e-4 -22.743-0.0212-34.109 0.3068-6.046 0.2744-12.282 0.25242-17.988 2.5157-6.7498 2.4436-13.716 4.2393-20.672 5.9992-6.4791 1.6495-13.195 2.5797-19.406 5.09-6.3087 3.061-12.757 5.9081-19.465 7.9791-7.1571 2.1056-13.868 5.6656-21.37 6.6097-8.875 1.1418-17.846 1.623-26.615 3.5214-7.072 1.1188-14.016 3.0303-21.211 3.3359-9.4262 0.94091-18.877 0.97202-28.302 1.8574-7.5545 1.3544-14.672 4.424-22.3 5.4486-9.1349 0.99073-18.255 1.6173-27.452 1.5398-6.9237 0.29843-13.853 0.68265-20.685 1.9212-7.5413 0.67666-15.115 0.28625-22.681 0.38212h-83.581l-28.671-1e-5 -29.58-9e-5 -23.648 4.2e-4c-8.5662 1e-3 -17.132 3e-3 -25.699 8e-3 -8.8043 5e-3 -17.609 0.0179-26.413 3e-3 -8.5028-0.0264-17.012-7e-3 -25.504-0.49203-8.7358-0.52632-17.442-1.3649-26.161-2.1014-9.1106-0.0555-18.222-0.1961-27.322-0.68496-8.6166-0.49766-17.175-1.5569-25.784-1.9998s-17.163-1.5386-25.556-3.5724c-10.587-2.501-21.061-5.4916-31.833-7.135-8.0387-0.7255-15.958-2.1913-23.702-4.5078-5.5625-1.5143-11.264-2.1953-16.919-3.2914-6.662-0.60511-13.278-1.5335-19.75-3.2735-5.088-0.86464-10.082-2.1593-15.249-2.4766-5.1812-0.77329-10.287-1.9091-15.557-1.8416-7.2975-0.64279-14.595-1.6802-21.522-4.1752-6.2688-2.1366-12.824-2.7742-19.276-4.1803-7.2775-1.5878-14.531-2.5462-21.947-3.2752-5.4633-0.99526-10.797-2.4698-16.252-3.4573-7.9657-0.032-15.933-0.10666-23.892-0.46822-7.664-0.42496-15.336-0.97559-22.909-2.2812-8.4925-0.41489-16.957-1.2628-25.329-2.7891-8.5586-1.5547-17.1-3.1585-25.486-5.4901-6.1266-1.564-12.3-2.7477-18.543-3.7476-6.355-1.579-12.487-3.8476-18.822-5.4998-6.9226-1.8857-13.58-4.5332-20.478-6.501-5.8435-1.5053-11.457-3.455-17.136-5.4515-6.4347-2.1743-12.848-4.4066-19.283-6.5545-17.318-5.7725-9.154-30.263 8.1636-24.491z" fill-opacity=".91124" filter="url(#r)" opacity=".84878" stroke="#130206" stroke-width=".1"/>
 <path d="m193.3 290.89 9.9191-1.2692c-0.53593-2.319-0.0799-5.1157 1.2794-7.2809 0.76393-1.2923 2.0425-2.5224 3.5139-3.8125 2.0272-1.7343 4.4405-3.4282 6.8237-5.4791l1e-5 -1e-5c2.4126-2.0309 4.7121-4.5549 6.2872-7.6627 0.63069-1.3013 1.0255-2.47 1.4349-3.4307 0.43427-0.93878 0.81332-1.7492 1.3254-2.2306 0.60077-0.66141 2.1786-1.3721 3.7041-3.0142 1.1482-1.4318 1.6777-3.0141 1.8247-4.4748 0.17257-1.439 0.12322-2.7202 0.15716-3.8593v-1e-5c0.15819-4.5902 1.9146-9.3086 5.2847-12.665 1.8752-1.8769 4.3614-3.4282 6.1642-5.6599 1.2936-1.6107 2.1538-3.5235 2.5042-5.4974-0.58365 1.918-1.6483 3.656-3.0382 5.0148-1.9275 1.896-4.4711 3.0489-6.7682 4.8524-4.1238 3.2538-6.8412 8.2598-7.6476 13.616-0.20406 1.3148-0.29175 2.5117-0.55468 3.4992-0.28839 0.96553-0.63229 1.8057-1.1584 2.183-0.53353 0.58267-1.9813 0.93482-3.6858 2.2419-1.3161 1.0797-2.2494 2.348-2.9065 3.5512-0.682 1.1814-1.1869 2.2513-1.723 3.0519-1.2384 1.9601-3.2166 3.5463-5.3929 5.0567-2.2059 1.4906-4.7433 2.8441-7.3608 4.578l-1e-5 1e-5c-1.9406 1.2578-3.9348 2.8314-5.7234 4.9477-3.0922 3.7791-4.6697 8.6965-4.2631 13.744z" fill="#a40000" fill-rule="evenodd"/>
 <path d="m177.14 263.24 5.2994 8.4803c11.074-8.0495 21.216-17.205 30.235-27.237h1e-5c3.9059-4.3243 7.6912-8.9685 10.368-14.215v-1e-5c1.9115-3.7579 3.209-7.7731 3.8577-11.845-1.2249 3.9374-3.0563 7.6372-5.3796 10.931-3.2408 4.6081-7.4357 8.4087-11.802 12.066v1e-5c-10.134 8.4483-21.083 15.765-32.579 21.82z" fill="#a40000" fill-rule="evenodd"/>
 <path d="m151.92 253.71 9.539 3.0014c0.92009-4.4854 3.1232-8.8879 6.3652-12.466s7.5741-6.3874 12.421-7.9007c1.373-0.42355 2.9744-0.78909 4.6072-1.4484 1.6595-0.63847 3.2829-1.7473 4.3797-3.3637v-1e-5c0.66796-1.071 0.99551-2.1305 1.2739-3.0742v-1e-5c0.30264-0.92936 0.55661-1.7855 1.04-2.4264 0.68673-1.0248 2.1379-1.7196 3.3377-2.8232 1.6205-1.4904 2.4948-3.6212 2.4497-5.6674-0.30221 2.0243-1.4998 3.8234-3.0927 4.8449-1.1893 0.76401-2.7186 1.1964-4.0522 2.433-0.84188 0.84257-1.3972 1.8501-1.8415 2.7643-0.46857 0.89994-0.86244 1.7262-1.387 2.2473-0.75001 0.84939-1.9656 1.2992-3.2344 1.6177-1.2961 0.29776-2.766 0.35615-4.406 0.57832h-1e-5c-5.8182 0.77247-11.522 3.1266-16.349 6.8886-4.8238 3.7655-8.6979 8.8747-11.052 14.794z" fill="#a40000" fill-rule="evenodd"/>
 <path d="m420.79 284.37 9.9191 1.2692c0.4066-5.0472-1.1709-9.9646-4.2631-13.744-1.7886-2.1163-3.7828-3.69-5.7234-4.9478-2.6175-1.7339-5.155-3.0874-7.3608-4.578h-1e-5c-2.1763-1.5105-4.1545-3.0967-5.3929-5.0567-0.53618-0.80061-1.041-1.8706-1.723-3.0519-0.6571-1.2032-1.5904-2.4715-2.9065-3.5512-1.7045-1.3071-3.1523-1.6592-3.6858-2.2419-0.52612-0.37734-0.87002-1.2175-1.1584-2.183-0.26293-0.98758-0.35062-2.1845-0.55468-3.4992-0.80646-5.3558-3.5238-10.362-7.6476-13.616-2.2971-1.8035-4.8407-2.9563-6.7682-4.8524-1.3899-1.3588-2.4546-3.0969-3.0382-5.0148 0.35035 1.9739 1.2106 3.8868 2.5042 5.4974 1.8028 2.2317 4.2889 3.783 6.1642 5.6599 3.3701 3.3564 5.1265 8.0748 5.2847 12.665v1e-5c0.0339 1.1391-0.0154 2.4203 0.15716 3.8593 0.14703 1.4607 0.67648 3.043 1.8247 4.4748 1.5256 1.6421 3.1033 2.3528 3.7041 3.0142 0.51207 0.48138 0.89113 1.2918 1.3254 2.2306 0.40941 0.9607 0.80425 2.1294 1.4349 3.4307v1e-5c1.575 3.1078 3.8746 5.6318 6.2872 7.6627h1e-5c2.3832 2.0509 4.7965 3.7448 6.8237 5.4791v1e-5c1.4714 1.2901 2.75 2.5202 3.514 3.8125 1.3593 2.1652 1.8153 4.9618 1.2793 7.2809z" fill="#a40000" fill-rule="evenodd"/>
 <path d="m441.58 266.46 5.2994-8.4803c-11.496-6.0551-22.445-13.371-32.579-21.82-4.3658-3.6573-8.5608-7.4578-11.802-12.066h-1e-5c-2.3234-3.2941-4.1548-6.9939-5.3797-10.931 0.6487 4.0722 1.9463 8.0874 3.8577 11.845v1e-5c2.677 5.2462 6.4623 9.8904 10.368 14.215 9.0187 10.033 19.161 19.188 30.235 27.237z" fill="#a40000" fill-rule="evenodd"/>
 <path d="m462.55 251.46 9.539-3.0014c-2.3537-5.9195-6.2278-11.029-11.052-14.794-4.827-3.7621-10.53-6.1162-16.349-6.8886h-1e-5c-1.64-0.22217-3.1098-0.28055-4.406-0.57832-1.2688-0.31844-2.4844-0.76826-3.2344-1.6176-0.52454-0.52115-0.91841-1.3474-1.387-2.2473-0.44434-0.91427-0.99962-1.9218-1.8415-2.7643v-1e-5c-1.3336-1.2366-2.8629-1.669-4.0522-2.433-1.5928-1.0215-2.7905-2.8206-3.0927-4.8449-0.0451 2.0462 0.82922 4.177 2.4497 5.6674 1.1999 1.1036 2.651 1.7983 3.3377 2.8232 0.48339 0.64086 0.73736 1.497 1.04 2.4264 0.27841 0.94373 0.60596 2.0032 1.2739 3.0743v1e-5c1.0968 1.6164 2.7202 2.7253 4.3797 3.3637 1.6329 0.65935 3.2342 1.0249 4.6072 1.4484 4.8473 1.5133 9.1826 4.3196 12.421 7.9007s5.4451 7.9802 6.3652 12.466z" fill="#a40000" fill-rule="evenodd"/>
 <path transform="matrix(.71564 0 0 .67868 178.86 53.615)" d="m208.03 373.19 7.3186 6.8146c4.1464-4.8202 5.9271-11.16 5.0229-17.242-0.55014-3.334-1.7266-6.2508-3.07-8.8121h-1e-5c-1.7968-3.5038-3.7936-6.5524-5.3088-9.595-1.4697-3.0451-2.6421-6.1172-2.6303-9.1273-0.0278-1.2516 0.17896-2.7376 0.2521-4.4373 0.11402-1.7076-0.0428-3.6498-0.78586-5.5936-0.51987-1.2089-1.141-2.1302-1.6599-2.8863-0.48465-0.77086-0.91036-1.3841-1.0527-1.9247-0.35668-0.86746-0.1168-2.1098 0.29845-3.3852 0.45774-1.2838 1.2717-2.6229 2.0221-4.159 3.0332-6.1352 3.6066-13.441 1.1222-19.629-1.3763-3.4013-3.5328-6.2357-4.4079-9.5491-0.63997-2.3933-0.59357-5.0079 0.16812-7.4378-0.98631 2.3477-1.3043 5.0102-0.86948 7.5894 0.61051 3.5597 2.5332 6.7369 3.4973 9.9664 1.763 5.8448 0.4974 12.315-2.5896 17.377v1e-5c-0.78605 1.2748-1.7673 2.6147-2.5793 4.2719-0.85426 1.6649-1.339 3.7276-0.95501 5.976 0.30226 1.3298 0.82327 2.4249 1.3239 3.3048 0.4664 0.89466 0.88743 1.6086 1.0339 2.2031 0.31162 0.91056 0.21203 2.0965 0.0688 3.421-0.18414 1.3326-0.53565 2.8522-0.69514 4.6408-0.30542 4.3112 0.69329 8.4649 2.1684 12.13v1e-5c1.4298 3.6684 3.1604 6.9612 4.4122 10.122v1e-5c0.88997 2.3211 1.5943 4.5156 1.6545 6.5158 0.1935 3.5109-1.3258 7.1994-3.7594 9.4458z" fill="#a40000" fill-rule="evenodd" filter="url(#a)"/>
 <path transform="matrix(.71564 0 0 .67868 178.86 53.615)" d="m246.5 365.07 8.6502-5.0173c-9.0761-13.741-16.57-28.669-22.219-44.38-2.4112-6.7555-4.5085-13.605-4.8794-20.7-0.27632-5.1523 0.35976-10.408 1.9048-15.442-2.1052 4.826-3.3747 10.073-3.6969 15.434-0.43408 7.3794 0.88942 14.793 2.5872 21.917v1e-5c3.9106 16.579 9.8328 32.799 17.653 48.188z" fill="#a40000" fill-rule="evenodd" filter="url(#a)"/>
 <path transform="matrix(.71564 0 0 .67868 178.86 53.615)" d="m282.98 361.68 9.6548 2.6048c1.6191-7.8018 0.85974-15.86-2.0055-22.995s-7.8033-13.21-13.915-17.401c-1.7545-1.2096-3.4436-2.1382-4.7773-3.2925-1.2893-1.1593-2.4234-2.5154-2.6603-4.0404-0.20877-0.95835-0.0378-2.1281 0.0952-3.4058 0.16755-1.2773 0.26983-2.718-0.0943-4.1524-0.30692-1.0876-0.84673-1.9992-1.4087-2.8136-0.55304-0.81798-1.123-1.5617-1.5349-2.3654-1.122-2.16-1.1598-4.9888 0.0395-7.3075-1.4969 2.1386-1.934 5.0942-0.99813 7.7197 0.34807 0.96355 0.83977 1.8372 1.2619 2.6775 0.41314 0.84381 0.77638 1.6674 0.86493 2.4623v1e-5c0.15476 1.0358-0.12798 2.1579-0.41256 3.3638-0.31908 1.2056-0.66884 2.5521-0.6241 4.1051 0.1653 2.4594 1.3627 4.6744 2.9182 6.3337 1.5122 1.6653 3.2006 2.9487 4.6024 4.206 4.8421 4.3708 8.2717 10.138 9.7984 16.193 1.5334 6.0531 1.1974 12.487-0.80481 18.107z" fill="#a40000" fill-rule="evenodd" filter="url(#a)"/>
 <path transform="matrix(.71564 0 0 .67868 178.86 53.615)" d="m181.82 380.01 7.3186-6.8146c-2.4336-2.2464-3.9529-5.9349-3.7594-9.4458 0.0602-2.0002 0.76457-4.1946 1.6545-6.5158v-1e-5c1.2518-3.1607 2.9823-6.4535 4.4122-10.122 1.4751-3.6654 2.4738-7.8191 2.1684-12.13-0.15949-1.7887-0.511-3.3083-0.69514-4.6408-0.14325-1.3245-0.24284-2.5104 0.0688-3.421 0.14645-0.59445 0.56748-1.3084 1.0339-2.2031 0.50067-0.87987 1.0217-1.975 1.3239-3.3048 0.38403-2.2484-0.10075-4.311-0.95501-5.976-0.81206-1.6572-1.7933-2.9971-2.5793-4.2719v-1e-5c-3.087-5.0625-4.3526-11.533-2.5896-17.377 0.96416-3.2296 2.8868-6.4068 3.4973-9.9664 0.43481-2.5792 0.11683-5.2417-0.86948-7.5894 0.76169 2.4299 0.80809 5.0444 0.16812 7.4378-0.87504 3.3134-3.0316 6.1478-4.4079 9.5491-2.4844 6.1887-1.911 13.494 1.1222 19.629 0.75032 1.5361 1.5643 2.8752 2.0221 4.159 0.41525 1.2754 0.65513 2.5178 0.29845 3.3852-0.14237 0.54053-0.56808 1.1538-1.0527 1.9247-0.51893 0.7561-1.14 1.6775-1.6599 2.8863-0.74307 1.9438-0.89988 3.8861-0.78586 5.5936v1e-5c0.0731 1.6997 0.27987 3.1856 0.2521 4.4372 0.0118 3.0102-1.1606 6.0822-2.6303 9.1273-1.5151 3.0426-3.5119 6.0911-5.3088 9.595h-1e-5c-1.3435 2.5613-2.5199 5.478-3.07 8.8121-0.90423 6.0822 0.87653 12.422 5.0229 17.242z" fill="#a40000" fill-rule="evenodd" filter="url(#a)"/>
 <path transform="matrix(.71564 0 0 .67868 178.86 53.615)" d="m142.02 360.05 8.6502 5.0173c7.8202-15.39 13.742-31.609 17.653-48.188v-1e-5c1.6978-7.1239 3.0213-14.538 2.5872-21.917-0.3222-5.361-1.5917-10.608-3.6969-15.434 1.545 5.0334 2.1811 10.29 1.9048 15.442-0.37092 7.0954-2.4683 13.945-4.8794 20.7-5.649 15.711-13.143 30.639-22.219 44.38z" fill="#a40000" fill-rule="evenodd" filter="url(#a)"/>
 <path transform="matrix(.71564 0 0 .67868 178.86 53.615)" d="m104.53 364.28 9.6548-2.6048c-2.0022-5.6204-2.3382-12.054-0.80481-18.107 1.5266-6.0553 4.9563-11.822 9.7984-16.193 1.4018-1.2574 3.0902-2.5407 4.6024-4.206 1.5555-1.6593 2.7529-3.8744 2.9182-6.3337v-1e-5c0.0447-1.553-0.30502-2.8996-0.6241-4.1051-0.28458-1.206-0.56732-2.328-0.41256-3.3638v-1e-5c0.0885-0.79492 0.45179-1.6185 0.86493-2.4623 0.42211-0.84024 0.91381-1.7139 1.2619-2.6775 0.93588-2.6256 0.49875-5.5811-0.99813-7.7197 1.1992 2.3187 1.1615 5.1475 0.0395 7.3075-0.41189 0.80367-0.98188 1.5474-1.5349 2.3654-0.56198 0.81439-1.1018 1.726-1.4087 2.8136-0.36413 1.4343-0.26185 2.8751-0.0943 4.1524 0.13305 1.2778 0.30399 2.4475 0.0952 3.4058-0.23691 1.5251-1.371 2.8812-2.6603 4.0404-1.3336 1.1543-3.0227 2.0829-4.7773 3.2925-6.1114 4.1902-11.043 10.268-13.915 17.401s-3.6246 15.193-2.0055 22.995z" fill="#a40000" fill-rule="evenodd" filter="url(#a)"/>
 <path transform="matrix(.79415 0 0 .56224 149.75 69.255)" d="m73.952 139.3c3.3079 5.8041 6.0901 11.865 9.0528 17.844 2.104 4.4959 4.0131 9.1143 7.1955 12.985 2.1559 3.3508 5.1683 5.9338 7.8886 8.7986 2.966 3.6159 5.8686 7.0786 9.9517 9.4225 4.3216 2.1921 8.7311 4.1752 13.089 6.2965 3.1982 1.1508 6.6733 1.2286 10.007 1.7942 5.0344 1.2386 10.208 1.5665 15.301 2.44 6.2718 1.0017 12.387 2.7132 18.645 3.7872 5.799 0.49834 11.452 1.8882 17.184 2.8196 4.542 0.67096 9.1382 0.77476 13.721 0.85418 5.2798 0.0571 10.56 0.0346 15.84 0.028 10.933-0.0129 21.866-0.0128 32.798-0.0141 14.226-0.068 28.614 0.62537 42.61-2.3432 7.627-2.5153 14.868-5.8117 21.842-9.7569 3.0111-2.9545 5.7795-6.3128 8.981-9.2405 3.3123-2.983 7.6926-4.8086 10.53-8.3305 0.87643-1.088 1.6164-2.2803 2.475-3.3825 2.1116-3.5338 3.935-7.2172 5.8132-10.888 1.2151-2.7838 2.8477-5.2222 3.3582-8.2366 1.646-4.2218 2.35-8.662 3.4864-13.016 0.80612-2.2191 1.308-4.5039 1.6565-6.8309 2.9245-18.019 28.407-13.883 25.482 4.1359-0.56137 3.3233-1.2054 6.6323-2.3262 9.8216-1.5839 3.4664-1.0183 7.9342-3.0624 11.327-1.1968 5.1886-3.2411 9.8961-5.6407 14.613-2.6268 5.0819-5.1521 10.209-8.4036 14.942-4.6431 5.9572-9.7111 11.306-16.28 15.196-4.7284 3.7827-7.6525 9.6651-13.363 12.362-9.3261 5.2707-19.097 9.625-29.422 12.586-15.736 3.0859-31.743 3.069-47.734 2.8573-10.923 1e-3 -21.846 1e-3 -32.769 0.0141-5.4432 7e-3 -10.887 0.0302-16.33-0.032-5.8336-0.10539-11.681-0.29086-17.456-1.193-5.8104-0.96603-11.536-2.3411-17.415-2.8587-6.356-1.1172-12.576-2.7836-18.94-3.8404-5.0077-1.1215-10.295-0.96943-15.262-2.4328-5.5593-1.2521-11.5-1.0635-16.644-3.9796-5.1407-2.512-10.37-4.821-15.398-7.5729-5.884-3.7789-11.007-8.2507-15.276-13.819-3.1189-3.6322-7.0303-6.6302-9.5544-10.792-3.8854-5.3224-7.1698-10.981-9.7145-17.069-2.65-5.3605-5.1364-10.79-8.0528-16.014-9.3918-15.653 12.745-28.935 22.137-13.282z" fill="#a40000" fill-opacity=".91124" filter="url(#q)" opacity=".84878" stroke="#130206" stroke-width=".1"/>
 <path d="m210.65 165.73-9.9952-0.30882c0.0899 3.998 1.8249 7.6299 4.6932 10.164 2.0836 1.7241 4.1942 2.7051 6.07 3.3323 2.5487 0.92202 4.9197 1.5634 7.0185 2.3943 2.0749 0.8532 3.991 1.8015 5.3544 3.1875 0.51149 0.49139 1.0728 1.2057 1.801 1.9966 0.7114 0.81387 1.6668 1.6397 2.8938 2.2819 0.94024 0.43622 1.7256 0.6337 2.3142 0.77671 0.5668 0.18168 0.98863 0.25989 1.1665 0.40089 0.2824 0.0937 0.53755 0.54068 0.82124 1.1066l1e-5 1e-5c0.26089 0.58879 0.44508 1.3807 0.73755 2.2786 1.2982 3.9648 4.1834 7.1621 7.6988 8.8953 2.335 1.1501 4.7388 1.6123 6.7132 2.9102 1.1988 0.78109 2.2346 1.8645 2.9783 3.1489-0.53988-1.3825-1.4187-2.6604-2.5641-3.6863-1.8944-1.6842-4.3382-2.6077-6.2191-3.9249-2.8116-1.9696-4.7421-5.0483-5.2336-8.1926-0.1149-0.72024-0.18788-1.5853-0.42777-2.5882-0.21704-1.0256-0.73573-2.1345-1.7084-3.1401-0.84811-0.75766-1.7117-1.2219-2.4292-1.4992-0.69575-0.31601-1.2284-0.51371-1.48-0.74073-0.36788-0.24529-0.71567-0.75198-1.1534-1.3562-0.42097-0.62721-0.87855-1.434-1.5417-2.3397h-1e-5c-1.8658-2.4547-4.2631-4.2971-6.6882-5.664h-1e-5c-2.4013-1.3893-4.7658-2.4498-6.8036-3.5637-1.4481-0.84827-2.639-1.5574-3.1673-2.3636-0.76487-0.98543-1.0953-2.4479-0.84918-3.506z" fill="#a40000" fill-rule="evenodd" opacity=".4439"/>
 <path d="m189.09 175.76-3.8284 9.2381c11.007 3.4663 21.821 7.8125 32.3 13.008 4.1629 2.085 8.2307 4.2226 11.541 7.3666 2.0702 1.9569 3.8389 4.2971 5.1837 6.9042-0.87937-2.7985-2.2475-5.4874-4.0537-7.9054-2.901-3.8664-6.7908-6.9355-10.628-9.7212h-1e-5c-9.5991-7.0287-19.807-13.357-30.514-18.89z" fill="#a40000" fill-rule="evenodd" opacity=".4439"/>
 <path d="m168.26 185.61-8.353 5.4979c6.7768 8.5477 17.089 13.234 27.093 13.116 1.5835-0.0163 2.9777-0.16439 4.2452-0.0657 1.2446 0.12135 2.4619 0.37183 3.3127 1.0722 0.44808 0.32972 0.87012 0.86641 1.3644 1.4482 0.48119 0.59355 1.062 1.2308 1.8081 1.7317 0.70418 0.44552 1.4271 0.68436 2.108 0.86133s1.3186 0.3208 1.9009 0.56231c1.2852 0.52367 2.4138 1.6194 2.9883 3.0178-0.2838-1.4849-1.1957-2.9055-2.5542-3.8174-0.61399-0.4081-1.2718-0.70322-1.8687-0.99929-0.5929-0.30342-1.1406-0.60602-1.5123-0.99461-0.41689-0.40085-0.72247-0.96885-1.0713-1.5905-0.33576-0.6335-0.71141-1.3486-1.2985-2.0649-1.2188-1.3909-2.8818-2.2578-4.5287-2.6797-1.6247-0.44462-3.1909-0.61826-4.5407-0.87058-8.4403-1.6023-15.697-7.3157-19.093-14.225z" fill="#a40000" fill-rule="evenodd" opacity=".4439"/>
 <path d="m438.14 168.83-9.9952 0.30886c0.24611 1.0581-0.0843 2.5206-0.84917 3.506-0.52838 0.8063-1.7192 1.5154-3.1673 2.3636v1e-5c-2.0378 1.1139-4.4023 2.1744-6.8036 3.5637-2.425 1.3669-4.8224 3.2094-6.6882 5.664h-1e-5c-0.66316 0.90568-1.1207 1.7125-1.5417 2.3397-0.43773 0.60419-0.78552 1.1109-1.1534 1.3562-0.25158 0.22703-0.78421 0.42473-1.48 0.74075-0.71752 0.27735-1.5811 0.74159-2.4292 1.4992-0.97263 1.0056-1.4913 2.1145-1.7084 3.1401v1e-5c-0.23989 1.0029-0.31287 1.8679-0.42777 2.5882-0.49151 3.1442-2.422 6.223-5.2335 8.1926-1.8809 1.3172-4.3247 2.2407-6.2191 3.9249-1.1454 1.0258-2.0242 2.3038-2.5641 3.6863 0.74367-1.2844 1.7795-2.3678 2.9783-3.1489 1.9744-1.298 4.3783-1.7601 6.7132-2.9102 3.5154-1.7332 6.4005-4.9305 7.6988-8.8953 0.29248-0.8979 0.47667-1.6898 0.73757-2.2786 0.28369-0.56592 0.53885-1.0129 0.82126-1.1066 0.17785-0.141 0.59969-0.21921 1.1665-0.4009 0.58862-0.14302 1.374-0.3405 2.3142-0.77672 1.227-0.64226 2.1824-1.468 2.8938-2.2819 0.72818-0.7909 1.2895-1.5052 1.801-1.9966 1.3634-1.386 3.2795-2.3343 5.3544-3.1875 2.0988-0.83094 4.4698-1.4723 7.0185-2.3943 1.8758-0.6272 3.9865-1.6082 6.0701-3.3323 2.8684-2.5344 4.6034-6.1663 4.6932-10.164z" fill="#a40000" fill-rule="evenodd" opacity=".4439"/>
 <path transform="matrix(.71564 0 0 -.44128 186.25 319.44)" d="m208.03 373.19 7.3186 6.8146c4.1464-4.8202 5.9271-11.16 5.0229-17.242-0.55014-3.334-1.7266-6.2508-3.07-8.8121h-1e-5c-1.7968-3.5038-3.7936-6.5524-5.3088-9.595-1.4697-3.0451-2.6421-6.1172-2.6303-9.1273-0.0278-1.2516 0.17896-2.7376 0.2521-4.4373 0.11402-1.7076-0.0428-3.6498-0.78586-5.5936-0.51987-1.2089-1.141-2.1302-1.6599-2.8863-0.48465-0.77086-0.91036-1.3841-1.0527-1.9247-0.35668-0.86746-0.1168-2.1098 0.29845-3.3852 0.45774-1.2838 1.2717-2.6229 2.0221-4.159 3.0332-6.1352 3.6066-13.441 1.1222-19.629-1.3763-3.4013-3.5328-6.2357-4.4079-9.5491-0.63997-2.3933-0.59357-5.0079 0.16812-7.4378-0.98631 2.3477-1.3043 5.0102-0.86948 7.5894 0.61051 3.5597 2.5332 6.7369 3.4973 9.9664 1.763 5.8448 0.4974 12.315-2.5896 17.377v1e-5c-0.78605 1.2748-1.7673 2.6147-2.5793 4.2719-0.85426 1.6649-1.339 3.7276-0.95501 5.976 0.30226 1.3298 0.82327 2.4249 1.3239 3.3048 0.4664 0.89466 0.88743 1.6086 1.0339 2.2031 0.31162 0.91056 0.21203 2.0965 0.0688 3.421-0.18414 1.3326-0.53565 2.8522-0.69514 4.6408-0.30542 4.3112 0.69329 8.4649 2.1684 12.13v1e-5c1.4298 3.6684 3.1604 6.9612 4.4122 10.122v1e-5c0.88997 2.3211 1.5943 4.5156 1.6545 6.5158 0.1935 3.5109-1.3258 7.1994-3.7594 9.4458z" fill="#a40000" fill-rule="evenodd" filter="url(#a)" opacity=".4439"/>
 <path transform="matrix(.71564 0 0 -.44128 186.25 319.44)" d="m246.5 365.07 8.6502-5.0173c-9.0761-13.741-16.57-28.669-22.219-44.38-2.4112-6.7555-4.5085-13.605-4.8794-20.7-0.27632-5.1523 0.35976-10.408 1.9048-15.442-2.1052 4.826-3.3747 10.073-3.6969 15.434-0.43408 7.3794 0.88942 14.793 2.5872 21.917v1e-5c3.9106 16.579 9.8328 32.799 17.653 48.188z" fill="#a40000" fill-rule="evenodd" filter="url(#a)" opacity=".4439"/>
 <path transform="matrix(.71564 0 0 -.44128 186.25 319.44)" d="m282.98 361.68 9.6548 2.6048c1.6191-7.8018 0.85974-15.86-2.0055-22.995s-7.8033-13.21-13.915-17.401c-1.7545-1.2096-3.4436-2.1382-4.7773-3.2925-1.2893-1.1593-2.4234-2.5154-2.6603-4.0404-0.20877-0.95835-0.0378-2.1281 0.0952-3.4058 0.16755-1.2773 0.26983-2.718-0.0943-4.1524-0.30692-1.0876-0.84673-1.9992-1.4087-2.8136-0.55304-0.81798-1.123-1.5617-1.5349-2.3654-1.122-2.16-1.1598-4.9888 0.0395-7.3075-1.4969 2.1386-1.934 5.0942-0.99813 7.7197 0.34807 0.96355 0.83977 1.8372 1.2619 2.6775 0.41314 0.84381 0.77638 1.6674 0.86493 2.4623v1e-5c0.15476 1.0358-0.12798 2.1579-0.41256 3.3638-0.31908 1.2056-0.66884 2.5521-0.6241 4.1051 0.1653 2.4594 1.3627 4.6744 2.9182 6.3337 1.5122 1.6653 3.2006 2.9487 4.6024 4.206 4.8421 4.3708 8.2717 10.138 9.7984 16.193 1.5334 6.0531 1.1974 12.487-0.80481 18.107z" fill="#a40000" fill-rule="evenodd" filter="url(#a)" opacity=".4439"/>
 <path transform="matrix(.71564 0 0 -.44128 186.25 319.44)" d="m181.82 380.01 7.3186-6.8146c-2.4336-2.2464-3.9529-5.9349-3.7594-9.4458 0.0602-2.0002 0.76457-4.1946 1.6545-6.5158v-1e-5c1.2518-3.1607 2.9823-6.4535 4.4122-10.122 1.4751-3.6654 2.4738-7.8191 2.1684-12.13-0.15949-1.7887-0.511-3.3083-0.69514-4.6408-0.14325-1.3245-0.24284-2.5104 0.0688-3.421 0.14645-0.59445 0.56748-1.3084 1.0339-2.2031 0.50067-0.87987 1.0217-1.975 1.3239-3.3048 0.38403-2.2484-0.10075-4.311-0.95501-5.976-0.81206-1.6572-1.7933-2.9971-2.5793-4.2719v-1e-5c-3.087-5.0625-4.3526-11.533-2.5896-17.377 0.96416-3.2296 2.8868-6.4068 3.4973-9.9664 0.43481-2.5792 0.11683-5.2417-0.86948-7.5894 0.76169 2.4299 0.80809 5.0444 0.16812 7.4378-0.87504 3.3134-3.0316 6.1478-4.4079 9.5491-2.4844 6.1887-1.911 13.494 1.1222 19.629 0.75032 1.5361 1.5643 2.8752 2.0221 4.159 0.41525 1.2754 0.65513 2.5178 0.29845 3.3852-0.14237 0.54053-0.56808 1.1538-1.0527 1.9247-0.51893 0.7561-1.14 1.6775-1.6599 2.8863-0.74307 1.9438-0.89988 3.8861-0.78586 5.5936v1e-5c0.0731 1.6997 0.27987 3.1856 0.2521 4.4372 0.0118 3.0102-1.1606 6.0822-2.6303 9.1273-1.5151 3.0426-3.5119 6.0911-5.3088 9.595h-1e-5c-1.3435 2.5613-2.5199 5.478-3.07 8.8121-0.90423 6.0822 0.87653 12.422 5.0229 17.242z" fill="#a40000" fill-rule="evenodd" filter="url(#a)" opacity=".4439"/>
 <path transform="matrix(.71564 0 0 -.44128 186.25 319.44)" d="m142.02 360.05 8.6502 5.0173c7.8202-15.39 13.742-31.609 17.653-48.188v-1e-5c1.6978-7.1239 3.0213-14.538 2.5872-21.917-0.3222-5.361-1.5917-10.608-3.6969-15.434 1.545 5.0334 2.1811 10.29 1.9048 15.442-0.37092 7.0954-2.4683 13.945-4.8794 20.7-5.649 15.711-13.143 30.639-22.219 44.38z" fill="#a40000" fill-rule="evenodd" filter="url(#a)" opacity=".4439"/>
 <path transform="matrix(.71564 0 0 -.44128 186.25 319.44)" d="m104.53 364.28 9.6548-2.6048c-2.0022-5.6204-2.3382-12.054-0.80481-18.107 1.5266-6.0553 4.9563-11.822 9.7984-16.193 1.4018-1.2574 3.0902-2.5407 4.6024-4.206 1.5555-1.6593 2.7529-3.8744 2.9182-6.3337v-1e-5c0.0447-1.553-0.30502-2.8996-0.6241-4.1051-0.28458-1.206-0.56732-2.328-0.41256-3.3638v-1e-5c0.0885-0.79492 0.45179-1.6185 0.86493-2.4623 0.42211-0.84024 0.91381-1.7139 1.2619-2.6775 0.93588-2.6256 0.49875-5.5811-0.99813-7.7197 1.1992 2.3187 1.1615 5.1475 0.0395 7.3075-0.41189 0.80367-0.98188 1.5474-1.5349 2.3654-0.56198 0.81439-1.1018 1.726-1.4087 2.8136-0.36413 1.4343-0.26185 2.8751-0.0943 4.1524 0.13305 1.2778 0.30399 2.4475 0.0952 3.4058-0.23691 1.5251-1.371 2.8812-2.6603 4.0404-1.3336 1.1543-3.0227 2.0829-4.7773 3.2925-6.1114 4.1902-11.043 10.268-13.915 17.401s-3.6246 15.193-2.0055 22.995z" fill="#a40000" fill-rule="evenodd" filter="url(#a)" opacity=".4439"/>
</svg>
