<?xml version="1.0" encoding="utf-8"?>
<svg xmlns="http://www.w3.org/2000/svg" xmlns:xlink="http://www.w3.org/1999/xlink" version= "1.1" width="1180px" height="844px" viewBox="-230 291 1180 844">
<g id="layer1">
<g style="fill:rgb(0,174,199); fill-opacity:1.0; stroke-linejoin: miter">
<path d="M-230.001,289.81924C-230.3139,289.81924,-230.61397,289.94354,-230.83522,290.1648C-231.05647,290.38605,-231.18076,290.6861,-231.18076,290.999L-231.17975,1135.0C-231.17975,1135.6516,-230.65155,1136.1797,-230.0,1136.1797L950.001,1136.1807C950.31384,1136.1807,950.61395,1136.0564,950.8352,1135.8352C951.05646,1135.614,951.1807,1135.3138,951.1807,1135.001L951.17975,291.0C951.17975,290.34845,950.65155,289.82025,950.0,289.82025L-230.001,289.81924 Z"/>
</g>
<g style="fill:rgb(0,0,0); fill-opacity:0.10980392; stroke-linejoin: miter">
<path d="M823.36383,1016.12054L819.45776,1019.5827Q791.6867,1030.0468,656.9418,1036.3206Q521.26465,1042.5895,337.40323,1041.4047Q161.93135,1039.7487,56.72633,1031.7136Q-48.39404,1023.62286,-28.525654,1012.659Q-0.754815,1002.19464,133.99063,995.9207Q269.66818,989.6519,453.52966,990.8367Q629.00116,992.49243,734.20605,1000.5277Q767.91486,1003.125,789.7373,1006.1881L808.0788,1009.33704Q823.1939,1012.5872,823.36383,1016.12054"/>
</g>
<g style="fill:rgb(0,0,0); fill-opacity:1.0; stroke-linejoin: miter">
<path d="M151.24213,995.4841L181.95813,988.0811Q190.01157,996.8079,196.36122,1000.91473Q199.70479,1003.1569,204.52681,1005.50836Q206.89362,1006.74347,218.94261,1011.96783Q220.95499,1012.8846,222.15176,1013.5484Q225.60915,1015.4163,224.95511,1016.73346Q223.85522,1018.7227,215.06578,1020.71063Q207.36827,1022.2847,200.66165,1021.86566Q191.55182,1021.24445,182.74232,1017.67267Q175.68379,1014.84186,173.54591,1010.5517L169.8846,1014.3371Q159.27591,1013.74835,155.01546,1012.44977Q149.37979,1010.8936,148.68758,1007.1423Q147.7908,1003.023,151.23874,995.4915 Z"/>
</g>
<g style="fill:rgb(0,0,0); fill-opacity:1.0; stroke-linejoin: miter">
<path d="M93.32919,984.0671Q100.01766,984.59064,104.441025,991.53937Q110.74279,1001.5428,113.35209,1013.9534Q114.72581,1021.55975,111.74251,1025.0007Q108.332375,1028.7279,101.11402,1028.0028Q92.928375,1026.9491,86.46937,1022.024Q80.930016,1017.72064,79.89843,1011.1558Q78.99953,1006.06085,80.09817,998.9965L88.392685,983.9764Q91.56909,983.8654,93.29464,984.0634 Z"/>
</g>
<g style="fill:rgb(16,9,0); fill-opacity:1.0; stroke-linejoin: miter">
<path d="M134.30092,548.41626Q139.71208,548.81683,145.84442,552.4285Q151.92459,555.89526,153.88498,560.00934Q155.58717,563.29016,155.8823,570.65607Q156.29628,585.18915,155.39848,591.22516L119.12458,596.5599Q111.83807,594.36383,111.31412,591.21484Q111.09718,590.4771,110.97089,589.3224L110.51516,583.8507Q109.22712,574.15424,109.20913,572.11664Q108.94021,567.2071,109.91611,564.1599Q111.47883,558.30975,120.63998,552.51917Q127.905594,547.7431,134.29619,548.4159 Z"/>
</g>
<g style="fill:rgb(255,193,161); fill-opacity:1.0; stroke-linejoin: miter">
<path d="M126.60193,560.40533L135.71819,562.13934Q137.21259,562.3839,142.64624,562.1327L144.29944,562.2839Q146.36151,562.6265,148.47266,564.3145Q151.7015,566.8883,152.65105,571.94507Q153.46846,575.4881,152.71329,587.70026Q152.71976,587.94055,152.95555,587.4123Q154.06879,584.03064,154.45154,583.34625Q154.87674,582.41504,155.41592,582.1334Q156.83713,581.6614,157.8112,585.55347Q158.44545,589.03485,157.39532,592.1988Q157.01123,593.25775,156.4782,593.87366Q156.27293,594.22064,154.57176,595.5251Q154.2148,595.90106,154.08725,596.2265Q154.00647,595.881,153.10527,600.47174L152.33528,602.9507Q151.89888,604.16394,151.45404,605.0659Q151.25816,605.56226,150.12663,607.18445L149.8066,608.05206Q149.28636,609.4539,150.99185,618.3223L147.8519,632.93695Q143.7896,633.24585,141.72658,632.9999Q137.11508,632.6447,132.5678,628.97595Q127.024506,624.5261,120.41837,616.26Q117.72285,612.7334,117.29939,611.08105Q116.899605,610.1259,117.39531,607.7513Q117.53305,607.63184,116.1898,605.03284Q115.98777,604.5565,115.88632,604.04315Q115.70473,603.52496,115.97925,600.7375Q115.963715,600.12726,115.812485,599.8497Q115.67097,599.472,115.005486,599.158L112.06408,598.17004Q111.548645,597.92126,111.03329,597.2381Q110.52984,596.5125,110.12957,595.38Q107.96921,589.459,107.978355,588.9056Q107.51222,586.831,108.19419,585.6146Q109.13198,584.03406,110.51035,584.32623Q111.19926,584.5264,111.90773,585.649Q112.24993,586.0191,114.17277,590.4962Q114.56664,591.2281,114.63204,590.90735Q114.74485,590.4959,114.602936,588.9868Q113.10481,577.2904,113.243256,575.34937Q113.175575,571.04803,114.33898,568.09393Q118.19917,559.8069,126.53969,560.39935 Z"/>
</g>
<g style="fill:rgb(167,197,248); fill-opacity:1.0; stroke-linejoin: miter">
<path d="M117.162056,610.5225L139.3642,628.9649L150.69225,618.37866Q149.92911,614.6575,150.41267,614.85706Q150.732,614.4334,155.11418,622.8005L173.12132,696.4343L181.0295,772.25714Q148.12894,804.35046,135.15933,770.77185Q127.79552,752.4368,122.68555,706.73004Q119.76867,681.6627,115.6917,625.7559L115.22241,615.3441L117.1197,610.62683 Z"/>
</g>
<g style="fill:rgb(0,0,0); fill-opacity:1.0; stroke-linejoin: miter">
<path d="M131.43474,865.98645Q112.323265,920.82947,109.822685,935.261Q108.17563,943.49335,108.10763,949.3725Q107.81615,951.37384,109.22599,964.8819Q109.373116,967.2836,109.233406,969.3012Q109.119576,971.0839,108.63861,973.2724Q105.93938,983.09235,106.02339,983.94244Q105.52089,986.98724,105.85,992.8505Q92.011406,989.56586,90.652916,990.684Q90.31465,990.3344,86.59559,993.6871Q86.56498,993.45135,81.43504,999.44476Q80.30201,1000.59515,79.75194,1000.6014Q79.25512,1000.70245,78.88041,999.5567Q78.04083,994.5904,75.77081,988.4019L78.78385,982.97394Q77.02021,982.21783,76.84618,979.3354Q76.78158,978.5711,76.820946,976.9941Q77.37377,967.63043,77.229805,966.5396L76.21076,952.76324Q75.97931,948.57355,76.03824,945.74054Q76.07366,943.8403,76.23096,942.2581Q77.37077,933.9885,77.327385,932.0741Q77.48508,930.7013,77.09436,917.9569Q77.07764,915.693,77.216,914.04626L77.98948,907.61084Q78.51809,895.09546,79.13032,891.662Q79.587776,888.2772,80.17571,885.5548Q80.3861,884.569,80.66907,883.59033L81.61624,880.73267Q81.86032,879.7001,81.92098,878.8882Q82.19376,876.21814,82.090515,867.24524L131.34448,865.98816 Z"/>
</g>
<g style="fill:rgb(0,0,0); fill-opacity:1.0; stroke-linejoin: miter">
<path d="M177.18066,767.92206Q178.49057,776.6757,179.93196,784.82025L181.1483,795.81793L184.14635,810.6374L186.24843,827.0998L188.07683,836.766Q188.3683,838.6518,188.50975,841.6745Q189.14075,845.76447,186.47473,888.9874L184.51868,956.2665Q184.25473,967.9376,184.46353,972.55493Q184.62163,976.8881,185.46246,977.20685Q185.59381,977.7027,185.55302,979.25165Q185.42548,981.3483,185.08327,982.26666Q184.70943,983.3453,183.71074,983.9372Q183.5297,984.0412,183.57884,984.5013Q183.69022,985.32,186.40894,989.12396Q175.02502,996.0712,172.5084,996.59283Q167.3847,998.1059,153.68451,998.0308Q150.09229,997.9079,150.19247,995.43756L149.8359,989.93427Q148.20464,980.8708,147.9283,977.1788Q147.42863,971.8891,147.38824,965.89435Q147.31464,958.6527,147.75758,947.5222Q148.26073,934.85645,149.48921,919.37573Q149.64572,916.53345,149.518,912.99756L145.74135,866.77014Q144.8606,855.3303,144.25688,844.3574Q142.90213,820.73,141.70528,771.07556L156.80136,773.00323L177.09846,767.9429 Z"/>
</g>
<g style="fill:rgb(0,0,0); fill-opacity:1.0; stroke-linejoin: miter">
<path d="M138.26627,629.90094L142.49469,630.6478L149.32304,637.29L146.3193,641.05334Q150.62117,646.0216,154.95404,667.1759Q157.38962,678.7365,161.27853,701.1348Q169.67802,750.44476,170.08713,754.2669L159.03548,765.90985L146.82234,755.57697L138.68199,644.0242L131.99382,637.2124L138.25285,629.91626 Z"/>
</g>
<g style="fill:rgb(255,255,255); fill-opacity:1.0; stroke-linejoin: miter">
<path d="M115.45087,612.77277Q133.84055,638.0031,138.40092,651.22595Q141.28743,658.72955,143.7123,669.3275L151.16287,706.02045L170.21013,703.5014L175.39093,731.63336L150.318,735.3405L145.4774,867.55505L78.11294,867.59546Q79.320366,853.66016,79.581,847.657Q80.13637,816.3959,81.03551,809.3733Q81.17584,804.6742,87.32175,756.9204Q88.43506,747.2405,89.69739,732.50134Q69.62304,691.05853,74.09081,655.95746Q76.0273,642.52966,82.9402,635.5065Q89.77351,627.7225,110.521065,621.88165L115.34082,612.9816 Z"/>
</g>
<g style="fill:rgb(255,255,255); fill-opacity:1.0; stroke-linejoin: miter">
<path d="M153.4224,619.6039Q160.4496,626.2042,165.24284,628.4952Q167.19148,629.9552,178.79358,632.41077Q181.2889,633.24774,183.39143,634.56805Q188.14555,637.5319,191.98903,643.667Q198.02678,653.2903,203.74667,673.9547Q209.4938,695.49225,210.1416,710.1795Q210.50858,723.05316,204.83994,725.6488Q202.59784,726.7966,198.98097,726.8688L177.49171,726.62744Q189.83401,786.4173,193.80977,808.93866Q198.48753,834.59875,203.2943,869.4185L186.41635,864.88226L155.28812,666.07733L153.43336,619.93097 Z"/>
</g>
<g style="fill:rgb(0,0,0); fill-opacity:1.0; stroke-linejoin: miter">
<path d="M154.81694,663.25244L216.1707,678.6623Q216.83728,678.7672,216.54572,678.8821L183.08186,735.8711L169.82767,730.86816L175.12003,726.8087L177.1451,725.8536L168.53711,703.21094L132.51479,709.31274L154.79477,663.29803 Z"/>
</g>
<g style="fill:rgb(255,193,161); fill-opacity:1.0; stroke-linejoin: miter">
<path d="M195.55971,685.80426Q197.26451,685.9944,198.30658,687.4741Q199.38937,689.1661,198.92938,690.69214Q198.7325,691.2892,198.05353,691.9212Q193.74495,694.99365,191.87779,697.2433Q189.61693,699.87744,190.31097,700.5444Q190.77844,700.96326,192.92107,700.39496L195.3046,699.6653Q202.73323,697.00903,203.39508,696.8824Q206.03049,696.0946,207.68701,696.0026Q211.71358,695.9002,210.3102,699.42896Q209.77417,700.6274,208.56075,702.0902Q208.31242,702.4856,203.8187,707.37463L202.4191,709.1141Q201.78697,710.0162,201.51491,710.81104Q201.34775,711.13306,201.04892,713.0916Q200.91615,713.58594,200.7202,713.9248Q200.02715,715.1178,198.54047,716.1288Q194.51407,719.347,180.69258,719.68427L174.33553,701.4753Q176.76338,698.56476,177.88048,697.65216Q178.30536,697.2865,178.80186,697.01794L180.58374,696.1933Q181.06628,695.89777,181.4686,695.5191L185.5637,690.9613Q186.87675,689.6195,188.18146,688.6596Q192.4543,685.60675,195.53676,685.8019 Z"/>
</g>
<g style="fill:rgb(167,197,248); fill-opacity:1.0; stroke-linejoin: miter">
<path d="M174.6244,700.5711L182.46214,723.34204L175.33633,726.7677L175.30801,726.78L168.40152,703.47284L174.6084,700.5787 Z"/>
</g>
<g style="fill:rgb(255,0,0); fill-opacity:0.09803922; stroke-linejoin: miter">
<path d="M149.9594,607.9211L137.32863,624.8696L119.805504,609.6712Q125.988266,614.8354,129.21626,616.5022Q132.9754,618.5106,135.98978,618.32855Q142.12015,617.9851,149.93541,607.95123 Z"/>
</g>
<g style="fill:rgb(0,0,0); fill-opacity:0.09411765; stroke-linejoin: miter">
<path d="M95.82546,672.8534L112.75937,704.8033L125.97696,711.2272L109.17324,709.48645L95.827515,672.86523 Z"/>
</g>
<g style="fill:rgb(0,0,0); fill-opacity:0.078431375; stroke-linejoin: miter">
<path d="M149.28894,737.2015L93.4742,747.27155Q90.9568,742.89813,89.0768,739.56793L89.07427,739.56836Q89.381134,736.1932,89.69739,732.50134Q89.57512,732.2489,89.45379,731.99695L89.456314,731.99756Q92.03627,734.8032,96.44479,739.7339L149.28894,737.2015 Z"/>
</g>
<g style="fill:rgb(156,43,52); fill-opacity:0.99607843; stroke-linejoin: miter">
<path d="M561.5615,829.52136L560.17316,832.9808Q552.9122,852.24927,542.7581,860.9159L532.67346,867.4473Q493.2511,881.3079,491.42752,885.0982Q489.30112,885.93115,483.6488,894.0608Q474.23553,912.8396,469.97824,917.27374Q463.75436,925.3635,450.43506,931.9955Q419.60083,944.8125,372.4004,949.28705Q303.07407,956.29865,294.07184,947.15063Q268.62497,940.6608,256.92184,840.8146Q246.17534,755.4024,268.05762,677.7246Q274.14285,660.1168,283.33786,646.3751L293.16556,633.5534Q303.69806,621.6752,316.25943,613.063Q355.52554,588.24054,398.80606,583.68646Q470.06332,573.68835,541.05963,596.9238Q591.7817,587.16797,697.0427,587.55786Q751.3421,590.3033,763.22876,598.5119Q768.4141,600.74414,772.7133,606.43146L775.0386,612.0082Q777.0178,624.09204,767.14075,640.0931L756.20154,656.36957L712.4537,713.4581Q704.4547,724.2889,670.44934,778.55365Q663.15814,789.56805,655.65765,798.60297Q640.946,816.9197,621.89825,824.30426Q599.9159,831.95557,561.5615,829.52136"/>
</g>
<g style="fill:rgb(122,27,34); fill-opacity:0.99607843; stroke-linejoin: miter">
<path d="M544.45496,596.2928Q543.7957,596.4114,543.1447,596.53125Q552.5078,627.173,559.76105,658.15967Q562.218,669.0366,564.1602,679.99805L565.9415,690.9857Q567.5775,701.9974,568.50616,713.1251L569.2364,724.2854L569.61224,735.50415L569.66644,746.77527Q569.55975,758.0731,568.9383,769.45575Q567.8026,792.1154,563.42596,829.635Q564.9545,829.7221,566.44885,829.7935Q575.1724,796.71576,578.12836,775.90436Q579.7334,765.212,580.49506,754.3737L580.99286,743.48975L580.9627,732.51416L580.3529,721.4382L579.12726,710.2551L577.32166,698.97156L574.9885,687.5966Q572.3918,676.176,568.95123,664.6087Q561.6747,639.56287,544.4625,596.2924 Z"/>
</g>
</g>
</svg>