<?xml version="1.0" encoding="UTF-8"?>
<svg viewBox="0 0 128 128" xmlns="http://www.w3.org/2000/svg" xmlns:xlink="http://www.w3.org/1999/xlink">
 <g transform="matrix(-2.3289 0 0 2.3289 1248.8 -959.85)">
  <path d="m506.86 414.68c-0.32988 0-11.546 6.845-12.7 9.2366-4.4533 5.278-3.7111 27.132 0.24741 31.091 2.4741 2.4741 12.123 9.1541 15.257 8.6593 10.144-5.1956 11.546-7.3398 14.432-15.174 2.3916-9.7314 0.16494-21.937-5.8553-29.442-4.7832-1.8968-9.319-4.2884-11.381-4.3709z" fill="#2b0000" fill-rule="evenodd"/>
  <path d="m518.33 437.01c-3.408 0.4366-6.894 1.757-9.1887 4.4028-0.59433 1.061-1.7093-0.78831-2.655-0.95004-2.4594-1.2784-5.4215-1.5899-8.0625-0.70277-1.4688 0.24524-2.92 1.2049-3.9797 2.3156-1.7757 1.8312-2.2811 3.7764-1.0765 6.2532 0.66131 1.244 1.8972 1.8972 3.0692 2.5763 4.5962 2.2459 9.0465 3.1172 14.118 2.7297 3.564-0.31986 6.2768-1.0945 9.1093-3.3169 2.2544-2.5499 4.1331-5.1668 3.8176-8.6833-0.16596-2.2202-0.94041-4.1838-3.1206-4.4842-0.66852-0.12836-1.3521-0.16218-2.0315-0.14037z" fill="#ed6826" fill-rule="evenodd"/>
  <path d="m494.07 424.17c2.9689-4.3709 10.721-8.9067 14.02-9.319 3.0514 0.2474 10.061 3.9585 13.937 9.8963 0 2.3916 0.65975 8.8242 0.49481 9.8138-9.2366-3.8761-18.473-4.2059-28.369 0.2474 0.57729-1.6494 0.49482-9.5664-0.08247-10.639z" fill="#fff" fill-rule="evenodd"/>
  <path d="m495.01 455.42c2.9689 4.3709 8.2469 8.082 13.607 7.9995 3.0514-0.2474 8.6593-3.0514 12.618-8.1644 0-2.3916-0.24741-4.2884-0.41235-5.278-9.319 3.7936-15.752 4.9482-25.73-0.08246 0.57729 1.6494 0.49482 4.4533-0.08247 5.5254z" fill="#fff" fill-rule="evenodd"/>
  <path d="m508 414.12c-3.3474 0.06099-7.413 1.64-9.8684 3.9074-4.5582 3.8587-6.3507 8.4315-7.4477 15.102-0.95463 7.1415-0.82611 14.912 2.6442 21.03 2.027 3.8157 4.9797 7.2052 9.1286 9.004 2.4232 1.1874 5.1788 0.99567 7.788 0.85644 4.7126-0.68632 9.5454-4.1577 11.673-8.3286 1.8671-4.2388 4.2537-11.949 4.2164-17.532-1.0325-9.5136-4.5498-16.119-6.6195-18.437-2.9291-2.9967-7.2586-5.4466-11.515-5.6026zm-0.82988 1.9297c0.16667 5.1875 0.4158 8.973 0.58247 14.161-2.4634-0.30376-5.4357 1.1845-7.1136 0.72178-0.15137-4.3997-0.3852-7.3975-0.53657-11.797 2.0636-1.8519 4.1784-3.3299 7.0677-3.0851zm1.5773-0.05122c2.392 0.17308 5.7478 0.28911 6.1066 3.144 0.05707 4.2796 0.27905 7.8994 0.33611 12.179-1.9553-1.2674-6.0494 0.47229-5.8354-2.7922-0.14744-4.5618-0.45984-7.969-0.60729-12.531zm7.6675 3.2474c2.8092 2.1213 4.4318 3.7919 5.429 7.2256-0.12361 2.2179 0.81177 6.2533 0.01323 7.4721-1.8076-1.3233-5.6711-1.1782-5.0351-4.3347-0.05321-3.8667-0.35383-6.4963-0.40704-10.363zm-17.611 0.45397c0.15625 4.3958 0.14756 7.7196 0.30381 12.115-1.6242-0.05999-4.2659 3.4217-4.4963 0.63611-0.20922-2.547 0.02514-4.4339 0.10488-6.979 1.2349-2.1564 2.1546-4.1649 4.0876-5.7726zm-5.3351 6.0764c-0.09462 3.2212-0.49745 5.9498-0.38978 9.9349 1.6184 0.50399 4.1224-1.9715 6.0299-2.2498 6.2752-2.3314 13.343-1.6896 19.647 0.17174 1.5028-0.0122 3.6186 1.8502 4.6938 2.2644 0.09388-1.898-0.37805-5.115-0.27992-7.0128 2.7331 8.0514 1.4759 16.215-1.1701 24.266-0.22076-3.7093-0.7574-3.6207-0.88166-4.7377-5.6521 3.9668-13.529 5.8715-19.363 4.0149-2.3748-0.6714-5.1286-2.7012-7.2504-3.9543-0.06789 1.7957 0.14999 5.5347 0.20586 5.8518-3.5299-6.5394-3.3119-14.24-2.9362-21.442 0.21811-2.4321 0.68568-4.8703 1.6939-7.1075zm27.085 24.961c0.9358 2.589 0.12424 4.8048-2.0041 6.4834-0.33299-2.0345-0.36603-3.5757-0.61217-5.6458 0.9226-0.42665 1.7153-0.36445 2.6163-0.83766zm-24.63 0.16403c1.5355 0.87847 0.68414 3.1551 1.011 4.9048-0.8526 0.99763-1.2176-2.6879-1.1761-3.668 0.00741-0.38951 0.05851-0.86166 0.16503-1.2368zm20.798 1.441c-0.16639 2.5515 1.3602 4.8754-0.09653 7.0164-1.0006 1.0671-4.0274 3.3667-3.4509 0.23227-0.08829-2.3235 0.09062-3.4206-0.30152-5.7175 1.4802-0.41155 2.4408-0.91592 3.8489-1.5312zm-18.266-0.19359c2.0779 0.39738 3.2424 1.5258 2.3394 3.8668-0.18797 1.4432 0.58306 4.2903-0.16659 4.6631-2.2293-1.175-2.9706-2.7486-2.0814-5.334 0.06357-1.0372-0.12479-2.1572-0.09133-3.1959zm13.019 1.6337c-0.40104 2.3616 0.21722 4.2616 0.22149 6.6344 0.76751 2.2744-1.5747 2.9697-2.7377 1.4317-0.23177-2.437-0.55066-4.244-0.82408-6.6924 0.11123-1.909 2.1385-0.61009 3.3402-1.3738zm-8.6466-0.14238c1.4645 1.0104 4.1002-0.82652 3.962 1.8504 0.02969 2.4952-0.0051 4.6603 0.05965 7.1548-1.7082-0.04385-4.0376 0.55269-4.054-1.7827-0.04721-2.4074 0.06681-4.8148 0.03232-7.2225z"/>
  <path d="m518.44 436.38c-3.408 0.4366-6.894 1.757-9.1887 4.4028-0.59433 1.061-1.7093-0.78831-2.655-0.95004-2.4594-1.2784-5.4215-1.5899-8.0625-0.70277-1.4688 0.24524-2.92 1.2049-3.9797 2.3156-1.7757 1.8312-3.0849 4.7142-1.8803 7.191 0.66131 1.244 2.0312 1.8972 3.2032 2.5763 4.5962 2.2459 9.8503 2.9833 14.922 2.5957 3.564-0.31986 7.2146-1.3624 10.047-3.5849 2.2544-2.5499 4.1331-5.8366 3.8176-9.3531-0.16596-2.2202-2.0122-4.0498-4.1924-4.3502-0.66852-0.12836-1.3521-0.16218-2.0315-0.14037zm0.14497 1.9072c1.8698-0.12224 3.1921 0.07988 3.9459 1.9811 0.9233 2.4811 0.26455 4.2636-1.0056 6.423-0.81838 1.2918-1.2885 3.052-2.7201 3.7275-4.6953 2.6656-10.465 2.585-15.688 1.7214-3.3371-0.63956-6.234-1.3058-8.8381-3.5726-1.2427-1.8718-0.22756-4.05 1.0785-5.6196 1.1042-1.4045 2.4438-1.9936 4.1813-2.357 3.9379-1.1273 8.7562 0.98259 11.507 3.7959 0.21475 0.53838-0.88129-2.5479 0.11949-3.1883 2.1753-2.0876 4.4619-2.5455 7.4201-2.9113z" fill-rule="evenodd"/>
 </g>
</svg>
