<?xml version="1.0" encoding="UTF-8"?>
<svg width="302.17" height="633.85" viewBox="0 0 227 365" xmlns="http://www.w3.org/2000/svg">
 <g transform="matrix(1.4486 0 0 1.4418 -48.853 -70.417)">
  <path d="m83.053 15.674c2.3-2.0391 4.88-4.2987 8.1598-4.213 5.5585-0.11598 11.121 0.02605 16.676-0.0741 4.7966 1.0948 9.3316 5.6623 7.5651 10.953-0.48717-0.80218-0.98801-1.5946-1.5025-2.3771-0.57608-0.86073-1.1548-1.7185-1.7361-2.5733-1.5387 0.05514-3.0761 0.10849-4.6122 0.16006 0.15508 1.9016 0.69559 3.8195 0.48017 5.7316-1.508 2.3853-4.0569 4.2423-4.4719 7.2031-0.44377 2.8537-0.01724 5.7458 0.09719 8.6094-2.674 0.00531-5.4144-0.26878-8.03 0.41864-0.71017 1.3374-1.126 2.8028-1.6218 4.2268-4.5626 2.0728-9.3406 3.7164-14.305 4.4875l-2.2923-0.18223c-3.0512-0.83351-4.1578-3.9399-2.2432-6.4869 0.48398-5.2216 0.88666-10.456 1.5517-15.657 1.2353-1.3527 2.0831-4.0312 4.2698-3.8015 3.054 0.13738 6.1191 0.19231 9.1519-0.28186 5.0539-0.67088 10.157-0.18295 15.232-0.42783-3.9752-2.3431-8.0707-5.2618-12.886-5.2116-3.0849-0.20862-5.827 1.3892-8.4459 2.7883-0.34125-1.0992-0.6893-2.1964-1.0376-3.2922z" fill="none" stroke="#050214" stroke-miterlimit="10" stroke-width=".1"/>
  <path d="m83.053 15.674c2.3-2.0391 4.88-4.2987 8.1598-4.213 5.5585-0.11598 11.121 0.02605 16.676-0.0741 4.7966 1.0948 9.3316 5.6623 7.5651 10.953-0.48717-0.80218-0.98801-1.5946-1.5025-2.3771-0.57608-0.86073-1.1548-1.7185-1.7361-2.5733-1.5387 0.05514-3.0761 0.10849-4.6122 0.16006 0.15508 1.9016 0.69559 3.8195 0.48017 5.7316-1.508 2.3853-4.0569 4.2423-4.4719 7.2031-0.44377 2.8537-0.01724 5.7458 0.09719 8.6094-2.674 0.00531-5.4144-0.26878-8.03 0.41864-0.71017 1.3374-1.126 2.8028-1.6218 4.2268-4.5626 2.0728-9.3406 3.7164-14.305 4.4875l-2.2923-0.18223c-3.0512-0.83351-4.1578-3.9399-2.2432-6.4869 0.48398-5.2216 0.88666-10.456 1.5517-15.657 1.2353-1.3527 2.0831-4.0312 4.2698-3.8015 3.054 0.13738 6.1191 0.19231 9.1519-0.28186 5.0539-0.67088 10.157-0.18295 15.232-0.42783-3.9752-2.3431-8.0707-5.2618-12.886-5.2116-3.0849-0.20862-5.827 1.3892-8.4459 2.7883-0.34125-1.0992-0.6893-2.1964-1.0376-3.2922z" fill="#050214"/>
  <path d="m76.768 25.9c0.60487-4.1436 2.8206-7.8502 6.2847-10.227 0.3483 1.0958 0.69635 2.1929 1.0376 3.2922 2.6188-1.3991 5.3609-2.9969 8.4459-2.7883 4.8152-0.05026 8.9107 2.8684 12.886 5.2116-5.0755 0.24487-10.179-0.24306-15.232 0.42783-3.0328 0.47417-6.0979 0.41924-9.1519 0.28186-2.1867-0.22975-3.0345 2.4488-4.2698 3.8015z" fill="none" stroke="#70687a" stroke-miterlimit="10" stroke-width=".1"/>
  <path d="m76.768 25.9c0.60487-4.1436 2.8206-7.8502 6.2847-10.227 0.3483 1.0958 0.69635 2.1929 1.0376 3.2922 2.6188-1.3991 5.3609-2.9969 8.4459-2.7883 4.8152-0.05026 8.9107 2.8684 12.886 5.2116-5.0755 0.24487-10.179-0.24306-15.232 0.42783-3.0328 0.47417-6.0979 0.41924-9.1519 0.28186-2.1867-0.22975-3.0345 2.4488-4.2698 3.8015z" fill="#70687a"/>
  <path d="m107.6 17.549c1.5361-0.05157 3.0735-0.10492 4.6122-0.16006 0.58132 0.85481 1.16 1.7126 1.7361 2.5733-1.2906-0.41272-2.5784-0.82782-3.8642-1.2454 1.1049 1.7182 2.4944 3.32 3.1448 5.286 0.00504 1.7391-0.40028 3.4445-0.67993 5.1523-2.525 0.56424-5.1158 0.97537-7.5055 2.0029-0.74371 4.1057-0.27171 8.3216-0.73131 12.463 2.3426-1.5136 4.9983-2.3852 7.7816-2.5738-0.61173 2.5668-1.2594 5.1249-1.8855 7.6885 2.1116-0.68692 4.212-1.4095 6.3167-2.1214-0.94864 2.8268-1.6404 5.7287-2.188 8.6581-2.575-0.15323-5.1475-0.39594-7.6836-0.86922l2.8229-1.3782c-3.4141-2.9798-7.4358-5.394-12.021-5.9006-1.6552 0.83376-3.1962 1.874-4.6731 2.9879-0.02884-1.236-0.08063-2.4695-0.11844-3.704 4.0742-1.7864 7.6396-4.4888 11.042-7.3149-0.11443-2.8636-0.54096-5.7557-0.09719-8.6094 0.41503-2.9608 2.9639-4.8178 4.4719-7.2031 0.21542-1.9122-0.32509-3.83-0.48017-5.7316z" fill="none" stroke="#70687a" stroke-miterlimit="10" stroke-width=".1"/>
  <path d="m107.6 17.549c1.5361-0.05157 3.0735-0.10492 4.6122-0.16006 0.58132 0.85481 1.16 1.7126 1.7361 2.5733-1.2906-0.41272-2.5784-0.82782-3.8642-1.2454 1.1049 1.7182 2.4944 3.32 3.1448 5.286 0.00504 1.7391-0.40028 3.4445-0.67993 5.1523-2.525 0.56424-5.1158 0.97537-7.5055 2.0029-0.74371 4.1057-0.27171 8.3216-0.73131 12.463 2.3426-1.5136 4.9983-2.3852 7.7816-2.5738-0.61173 2.5668-1.2594 5.1249-1.8855 7.6885 2.1116-0.68692 4.212-1.4095 6.3167-2.1214-0.94864 2.8268-1.6404 5.7287-2.188 8.6581-2.575-0.15323-5.1475-0.39594-7.6836-0.86922l2.8229-1.3782c-3.4141-2.9798-7.4358-5.394-12.021-5.9006-1.6552 0.83376-3.1962 1.874-4.6731 2.9879-0.02884-1.236-0.08063-2.4695-0.11844-3.704 4.0742-1.7864 7.6396-4.4888 11.042-7.3149-0.11443-2.8636-0.54096-5.7557-0.09719-8.6094 0.41503-2.9608 2.9639-4.8178 4.4719-7.2031 0.21542-1.9122-0.32509-3.83-0.48017-5.7316z" fill="#70687a"/>
  <path d="m110.09 18.717c1.2858 0.41762 2.5736 0.83272 3.8642 1.2454 0.51452 0.78256 1.0154 1.5749 1.5025 2.3771 0.83627 6.0593 1.4717 12.179 1.2866 18.306 0.91165 0.13615 1.8245 0.27496 2.7385 0.41638-1.7058 3.4218-2.2161 7.2239-2.4067 10.999 5.1913-1.1766 10.517-2.3229 15.867-1.639 3.154 0.31271 6.0273 1.7622 9.0924 2.455 2.7644-0.95927 4.6131-3.5104 7.2084-4.8162 1.6382-0.54268 3.402-0.25919 5.0978-0.31502-1.6124 1.3077-3.2694 2.5564-4.9583 3.7609 1.5332 0.84416 3.0659 1.6914 4.5912 2.5561l-0.84024 2.961c-1.8632-1.8902-3.9506-3.5344-5.9988-5.2125-1.2457 0.50021-2.488 1.0048-3.727 1.5137 1.4134 1.3837 2.8106 2.7888 4.2904 4.1056-0.00749 3.8068 1.0816 7.4766 3.0085 10.741-1.9033 0.6461-3.8011 1.3064-5.6883 1.9907 0.76942 0.56801 1.5482 1.1263 2.3364 1.6749 2.066 1.3872 4.2901 2.5338 6.6165 3.4234l0.84244 2.5231c-5.1315-1.0947-10.969-1.7976-14.319-6.3641 1.9814-2.0721 4.0647-4.0477 5.946-6.2153l1.5704-1.766c-8.9835-2.7814-16.177 5.0557-24.79 5.974-1.051-1.8764-1.4385-4.7282-3.8538-5.3445-0.98403-0.36676-1.9753-0.70767-2.9737-1.0227 0.51636 2.8268 1.1391 5.6336 1.7799 8.4355-3.0946 0.11899-6.4327 0.54842-8.2834 3.3534 1.6194 0.42218 3.2458 0.8278 4.8666 1.2586 0.99722 0.27278 1.9923 0.559 2.9852 0.85867-1.2993 2.6728-1.0604 5.6188-0.32176 8.4136 2.6652-1.6106 4.814-3.8781 6.4774-6.4934l2.3077 0.84317 1.4814 1.8846c-3.8781 3.8271-8.2104 7.3156-13.493 8.9675 0.28874-2.878 0.64402-5.7477 1.0016-8.6167-2.827 0.34454-6.0692 2.0774-8.7712 0.7688-2.1549-3.3514-1.9373-7.6613-2.5645-11.493 1.2042-0.51624 2.384-1.0912 3.536-1.719 1.7241-1.0655 3.4127-2.218 4.8704-3.6362-0.2847-1.9166-2.0046-3.7599-4.0701-2.9727-1.8025 0.94646-3.3291 2.3144-4.9461 3.5312l-0.6263 0.44513-0.94204-0.56557c-1.1919-2.3263-1.3328-5.657-4.0065-6.8558-3.3541-1.8413-7.2037-2.6505-10.406-4.7814-2.0123-0.92581-0.57668-3.3654-0.6747-5.0233l2.1669 0.11234c1.3471 0.41647 2.683 0.87387 4.0229 1.3215l-2.628 1.3908c3.5623 2.3151 7.5294 3.9622 10.99 6.4282 1.1457 1.5188 1.7613 3.3486 2.5424 5.066l5.4193-4.2898c-1.768-2.2257-3.6762-4.3737-6.0217-6.008 1.1881 0.25244 2.3792 0.49724 3.5734 0.73438 2.5361 0.47328 5.1086 0.71599 7.6836 0.86922 0.54765-2.9294 1.2394-5.8313 2.188-8.6581-2.1047 0.7119-4.2051 1.4345-6.3167 2.1214 0.62606-2.5636 1.2738-5.1217 1.8855-7.6885-2.7834 0.18861-5.4391 1.0601-7.7816 2.5738 0.4596-4.1411-0.0124-8.357 0.73131-12.463 2.3897-1.0276 4.9805-1.4387 7.5055-2.0029 0.27965-1.7078 0.68497-3.4132 0.67993-5.1523-0.6504-1.966-2.04-3.5678-3.1448-5.286z" fill="none" stroke="#b8b8c7" stroke-miterlimit="10" stroke-width=".1"/>
  <path d="m110.09 18.717c1.2858 0.41762 2.5736 0.83272 3.8642 1.2454 0.51452 0.78256 1.0154 1.5749 1.5025 2.3771 0.83627 6.0593 1.4717 12.179 1.2866 18.306 0.91165 0.13615 1.8245 0.27496 2.7385 0.41638-1.7058 3.4218-2.2161 7.2239-2.4067 10.999 5.1913-1.1766 10.517-2.3229 15.867-1.639 3.154 0.31271 6.0273 1.7622 9.0924 2.455 2.7644-0.95927 4.6131-3.5104 7.2084-4.8162 1.6382-0.54268 3.402-0.25919 5.0978-0.31502-1.6124 1.3077-3.2694 2.5564-4.9583 3.7609 1.5332 0.84416 3.0659 1.6914 4.5912 2.5561l-0.84024 2.961c-1.8632-1.8902-3.9506-3.5344-5.9988-5.2125-1.2457 0.50021-2.488 1.0048-3.727 1.5137 1.4134 1.3837 2.8106 2.7888 4.2904 4.1056-0.00749 3.8068 1.0816 7.4766 3.0085 10.741-1.9033 0.6461-3.8011 1.3064-5.6883 1.9907 0.76942 0.56801 1.5482 1.1263 2.3364 1.6749 2.066 1.3872 4.2901 2.5338 6.6165 3.4234l0.84244 2.5231c-5.1315-1.0947-10.969-1.7976-14.319-6.3641 1.9814-2.0721 4.0647-4.0477 5.946-6.2153l1.5704-1.766c-8.9835-2.7814-16.177 5.0557-24.79 5.974-1.051-1.8764-1.4385-4.7282-3.8538-5.3445-0.98403-0.36676-1.9753-0.70767-2.9737-1.0227 0.51636 2.8268 1.1391 5.6336 1.7799 8.4355-3.0946 0.11899-6.4327 0.54842-8.2834 3.3534 1.6194 0.42218 3.2458 0.8278 4.8666 1.2586 0.99722 0.27278 1.9923 0.559 2.9852 0.85867-1.2993 2.6728-1.0604 5.6188-0.32176 8.4136 2.6652-1.6106 4.814-3.8781 6.4774-6.4934l2.3077 0.84317 1.4814 1.8846c-3.8781 3.8271-8.2104 7.3156-13.493 8.9675 0.28874-2.878 0.64402-5.7477 1.0016-8.6167-2.827 0.34454-6.0692 2.0774-8.7712 0.7688-2.1549-3.3514-1.9373-7.6613-2.5645-11.493 1.2042-0.51624 2.384-1.0912 3.536-1.719 1.7241-1.0655 3.4127-2.218 4.8704-3.6362-0.2847-1.9166-2.0046-3.7599-4.0701-2.9727-1.8025 0.94646-3.3291 2.3144-4.9461 3.5312l-0.6263 0.44513-0.94204-0.56557c-1.1919-2.3263-1.3328-5.657-4.0065-6.8558-3.3541-1.8413-7.2037-2.6505-10.406-4.7814-2.0123-0.92581-0.57668-3.3654-0.6747-5.0233l2.1669 0.11234c1.3471 0.41647 2.683 0.87387 4.0229 1.3215l-2.628 1.3908c3.5623 2.3151 7.5294 3.9622 10.99 6.4282 1.1457 1.5188 1.7613 3.3486 2.5424 5.066l5.4193-4.2898c-1.768-2.2257-3.6762-4.3737-6.0217-6.008 1.1881 0.25244 2.3792 0.49724 3.5734 0.73438 2.5361 0.47328 5.1086 0.71599 7.6836 0.86922 0.54765-2.9294 1.2394-5.8313 2.188-8.6581-2.1047 0.7119-4.2051 1.4345-6.3167 2.1214 0.62606-2.5636 1.2738-5.1217 1.8855-7.6885-2.7834 0.18861-5.4391 1.0601-7.7816 2.5738 0.4596-4.1411-0.0124-8.357 0.73131-12.463 2.3897-1.0276 4.9805-1.4387 7.5055-2.0029 0.27965-1.7078 0.68497-3.4132 0.67993-5.1523-0.6504-1.966-2.04-3.5678-3.1448-5.286z" fill="#b8b8c7"/>
  <path d="m151.14 22.347c0.39296-1.8752 0.09662-4.6941 2.9006-4.1086 2.5097 1.4227 4.1253 3.9767 4.9983 6.6657 0.45059 1.2246 0.89191 2.4542 1.381 3.6666l-0.97126 2.7265c-0.75801-1.272-1.4872-2.558-2.2121-3.8459l-1.6171 0.00583c-0.83722 1.5562-1.6544 3.1223-2.4658 4.6911-3.1538 0.40811-6.3733 1.0936-8.5523 3.6125l-1.993-0.00749c-1.1846-4.1021-2.3819-8.2071-3.1873-12.404 3.9479 0.65468 7.9559 0.41016 11.719-1.0022z" fill="none" stroke="#70687a" stroke-miterlimit="10" stroke-width=".1"/>
  <path d="m151.14 22.347c0.39296-1.8752 0.09662-4.6941 2.9006-4.1086 2.5097 1.4227 4.1253 3.9767 4.9983 6.6657 0.45059 1.2246 0.89191 2.4542 1.381 3.6666l-0.97126 2.7265c-0.75801-1.272-1.4872-2.558-2.2121-3.8459l-1.6171 0.00583c-0.83722 1.5562-1.6544 3.1223-2.4658 4.6911-3.1538 0.40811-6.3733 1.0936-8.5523 3.6125l-1.993-0.00749c-1.1846-4.1021-2.3819-8.2071-3.1873-12.404 3.9479 0.65468 7.9559 0.41016 11.719-1.0022z" fill="#70687a"/>
  <path d="m159.03 24.904c4.2325 3.2833 10.686 6.3026 10.41 12.538-1.9034-1.638-3.6755-3.4173-5.3622-5.2735 2.0322 5.72 2.7275 11.772 2.9562 17.807-2.6606-3.3897-2.5174-7.8191-3.1513-11.859-0.48358-3.3945-2.1542-6.4309-3.4722-9.5459-0.48908-1.2124-0.9304-2.442-1.381-3.6666z" fill="none" stroke="#b8b8c7" stroke-miterlimit="10" stroke-width=".1"/>
  <path d="m159.03 24.904c4.2325 3.2833 10.686 6.3026 10.41 12.538-1.9034-1.638-3.6755-3.4173-5.3622-5.2735 2.0322 5.72 2.7275 11.772 2.9562 17.807-2.6606-3.3897-2.5174-7.8191-3.1513-11.859-0.48358-3.3945-2.1542-6.4309-3.4722-9.5459-0.48908-1.2124-0.9304-2.442-1.381-3.6666z" fill="#b8b8c7"/>
  <path d="m146.57 30.086c1.8009-2.5897 4.9638-4.8096 8.2027-3.4181-2.2607 2.0992-5.0979 3.3769-8.2027 3.4181z" fill="none" stroke="#33214a" stroke-miterlimit="10" stroke-width=".1"/>
  <path d="m146.57 30.086c1.8009-2.5897 4.9638-4.8096 8.2027-3.4181-2.2607 2.0992-5.0979 3.3769-8.2027 3.4181z" fill="#33214a"/>
  <path d="m167.78 25.688c3.6732 2.6976 6.6448 6.1896 9.1111 9.9992l-0.33919 0.67805c-2.4782 4.8338-4.3531 9.9423-6.3076 15.001-0.57572-4.4862 1.3344-8.6448 2.0255-12.962-0.67746-4.4804-3.0439-8.466-4.4898-12.716z" fill="none" stroke="#b8b8c7" stroke-miterlimit="10" stroke-width=".1"/>
  <path d="m167.78 25.688c3.6732 2.6976 6.6448 6.1896 9.1111 9.9992l-0.33919 0.67805c-2.4782 4.8338-4.3531 9.9423-6.3076 15.001-0.57572-4.4862 1.3344-8.6448 2.0255-12.962-0.67746-4.4804-3.0439-8.466-4.4898-12.716z" fill="#b8b8c7"/>
  <path d="m90.044 29.218c2.6348 0.96475 5.2675 1.9411 7.9483 2.7759-0.82323 0.9108-1.643 1.8247-2.4562 2.7432-1.9807-0.75357-3.9416-1.5549-5.883-2.401 0.13222-1.0394 0.26186-2.0787 0.39093-3.118z" fill="none" stroke="#70687a" stroke-miterlimit="10" stroke-width=".1"/>
  <path d="m90.044 29.218c2.6348 0.96475 5.2675 1.9411 7.9483 2.7759-0.82323 0.9108-1.643 1.8247-2.4562 2.7432-1.9807-0.75357-3.9416-1.5549-5.883-2.401 0.13222-1.0394 0.26186-2.0787 0.39093-3.118z" fill="#70687a"/>
  <path d="m160.42 28.571c1.318 3.1149 2.9886 6.1514 3.4722 9.5459 0.63388 4.0394 0.49074 8.4688 3.1513 11.859 1.2929 1.9602 2.5184 3.9686 3.5389 6.088-0.17079-1.5532-0.66553-3.1371-0.33485-4.6974 1.9545-5.0589 3.8294-10.167 6.3076-15.001 2.0792 2.6733 4.1926 5.3736 5.652 8.4509 0.82195 2.0509 1.5317 4.1448 2.262 6.2313l-4.5028 3.4153c-0.92988-2.1219-2.0156-4.1681-3.0646-6.2301l-3.1392 0.13921c0.40138 2.6385 0.86038 5.2672 1.3625 7.8893-1.4687 0.36732-2.9357 0.73842-4.4118 1.0562l-1.6439-0.3293c-2.2991-2.4209-4.352-5.0684-6.23-7.8247-2.6306-3.5973-1.6346-8.3254-2.5161-12.454-0.22965-1.8087-1.0558-3.5736-0.87454-5.412l0.97126-2.7265z" fill="none" stroke="#9794a1" stroke-miterlimit="10" stroke-width=".1"/>
  <path d="m160.42 28.571c1.318 3.1149 2.9886 6.1514 3.4722 9.5459 0.63388 4.0394 0.49074 8.4688 3.1513 11.859 1.2929 1.9602 2.5184 3.9686 3.5389 6.088-0.17079-1.5532-0.66553-3.1371-0.33485-4.6974 1.9545-5.0589 3.8294-10.167 6.3076-15.001 2.0792 2.6733 4.1926 5.3736 5.652 8.4509 0.82195 2.0509 1.5317 4.1448 2.262 6.2313l-4.5028 3.4153c-0.92988-2.1219-2.0156-4.1681-3.0646-6.2301l-3.1392 0.13921c0.40138 2.6385 0.86038 5.2672 1.3625 7.8893-1.4687 0.36732-2.9357 0.73842-4.4118 1.0562l-1.6439-0.3293c-2.2991-2.4209-4.352-5.0684-6.23-7.8247-2.6306-3.5973-1.6346-8.3254-2.5161-12.454-0.22965-1.8087-1.0558-3.5736-0.87454-5.412l0.97126-2.7265z" fill="#9794a1"/>
  <path d="m108.22 32.797c2.5182-1.1026 5.0938-2.0751 7.7261-2.8737-0.3756 1.0072-0.75493 2.0123-1.1369 3.0167 1.2339 2.4793 1.5741 5.1705 0.33888 7.737-2.4599-2.4907-4.7492-5.1428-6.9281-7.8799z" fill="none" stroke="#70687a" stroke-miterlimit="10" stroke-width=".1"/>
  <path d="m108.22 32.797c2.5182-1.1026 5.0938-2.0751 7.7261-2.8737-0.3756 1.0072-0.75493 2.0123-1.1369 3.0167 1.2339 2.4793 1.5741 5.1705 0.33888 7.737-2.4599-2.4907-4.7492-5.1428-6.9281-7.8799z" fill="#70687a"/>
  <path d="m160.32 36.71c0.8815 4.1282-0.11452 8.8562 2.5161 12.454 1.878 2.7563 3.9309 5.4038 6.23 7.8247-1.5388-0.20018-3.0854-0.32182-4.6273-0.44258 2.1463 2.3459 4.6945 4.2631 7.4028 5.9146-3.1016 2.4715-6.3635 5.0517-10.393 5.7138-4.7953 0.81056-9.7177 1.3703-14.095 3.6634-0.78821-0.54857-1.567-1.1069-2.3364-1.6749 1.8872-0.68426 3.785-1.3446 5.6883-1.9907-1.9269-3.264-3.016-6.9338-3.0085-10.741 2.0674 0.56084 4.1619 1.0182 6.2415 1.5401 1.1086 2.7312 1.9016 6.4752 5.2493 7.2446 3.6674 0.74329 6.7081-1.9574 9.5651-3.806-2.0162-1.3726-4.1976-2.554-5.9453-4.2762-1.6734-1.992-2.0399-4.7047-2.4019-7.193 0.11459-4.7426 0.40332-9.4965-0.0855-14.231z" fill="none" stroke="#70687a" stroke-miterlimit="10" stroke-width=".1"/>
  <path d="m160.32 36.71c0.8815 4.1282-0.11452 8.8562 2.5161 12.454 1.878 2.7563 3.9309 5.4038 6.23 7.8247-1.5388-0.20018-3.0854-0.32182-4.6273-0.44258 2.1463 2.3459 4.6945 4.2631 7.4028 5.9146-3.1016 2.4715-6.3635 5.0517-10.393 5.7138-4.7953 0.81056-9.7177 1.3703-14.095 3.6634-0.78821-0.54857-1.567-1.1069-2.3364-1.6749 1.8872-0.68426 3.785-1.3446 5.6883-1.9907-1.9269-3.264-3.016-6.9338-3.0085-10.741 2.0674 0.56084 4.1619 1.0182 6.2415 1.5401 1.1086 2.7312 1.9016 6.4752 5.2493 7.2446 3.6674 0.74329 6.7081-1.9574 9.5651-3.806-2.0162-1.3726-4.1976-2.554-5.9453-4.2762-1.6734-1.992-2.0399-4.7047-2.4019-7.193 0.11459-4.7426 0.40332-9.4965-0.0855-14.231z" fill="#70687a"/>
  <path d="m95.678 39.512c2.6156-0.68742 5.356-0.41333 8.03-0.41864-3.4021 2.8261-6.9675 5.5284-11.042 7.3149 0.03781 1.2344 0.0896 2.468 0.11844 3.704l-0.00365 0.96944c-1.3399-0.44762-2.6757-0.90501-4.0229-1.3215-2.8958-1.0134-5.9614-1.3549-9.0068-1.5338 4.9642-0.77106 9.7421-2.4147 14.305-4.4875 0.49582-1.424 0.91159-2.8894 1.6218-4.2268z" fill="none" stroke="#33214a" stroke-miterlimit="10" stroke-width=".1"/>
  <path d="m95.678 39.512c2.6156-0.68742 5.356-0.41333 8.03-0.41864-3.4021 2.8261-6.9675 5.5284-11.042 7.3149 0.03781 1.2344 0.0896 2.468 0.11844 3.704l-0.00365 0.96944c-1.3399-0.44762-2.6757-0.90501-4.0229-1.3215-2.8958-1.0134-5.9614-1.3549-9.0068-1.5338 4.9642-0.77106 9.7421-2.4147 14.305-4.4875 0.49582-1.424 0.91159-2.8894 1.6218-4.2268z" fill="#33214a"/>
  <path d="m182.2 44.816c3.4954 3.853 4.264 9.1352 5.9962 13.854l-2.5089-0.78986c-0.95056 1.5308-1.8989 3.0628-2.8378 4.5998l-2.2724-0.9509c-0.14001-2.3608-0.28023-4.7246-0.61789-7.066l4.5028-3.4153c-0.73034-2.0865-1.4401-4.1804-2.262-6.2313z" fill="none" stroke="#b8b8c7" stroke-miterlimit="10" stroke-width=".1"/>
  <path d="m182.2 44.816c3.4954 3.853 4.264 9.1352 5.9962 13.854l-2.5089-0.78986c-0.95056 1.5308-1.8989 3.0628-2.8378 4.5998l-2.2724-0.9509c-0.14001-2.3608-0.28023-4.7246-0.61789-7.066l4.5028-3.4153c-0.73034-2.0865-1.4401-4.1804-2.262-6.2313z" fill="#b8b8c7"/>
  <path d="m92.785 50.112c1.4769-1.1139 3.0179-2.1541 4.6731-2.9879 1.0558 2.0154 2.1295 4.023 3.2212 6.021-2.655-0.60182-5.2767-1.337-7.898-2.0636l0.00365-0.96944z" fill="none" stroke="#9794a1" stroke-miterlimit="10" stroke-width=".1"/>
  <path d="m92.785 50.112c1.4769-1.1139 3.0179-2.1541 4.6731-2.9879 1.0558 2.0154 2.1295 4.023 3.2212 6.021-2.655-0.60182-5.2767-1.337-7.898-2.0636l0.00365-0.96944z" fill="#9794a1"/>
  <path d="m97.458 47.124c4.5853 0.50661 8.6069 2.9208 12.021 5.9006l-2.8229 1.3782c-1.1942-0.23714-2.3853-0.48193-3.5734-0.73438l-2.4035-0.52353c-1.0917-1.998-2.1654-4.0056-3.2212-6.021z" fill="none" stroke="#33214a" stroke-miterlimit="10" stroke-width=".1"/>
  <path d="m97.458 47.124c4.5853 0.50661 8.6069 2.9208 12.021 5.9006l-2.8229 1.3782c-1.1942-0.23714-2.3853-0.48193-3.5734-0.73438l-2.4035-0.52353c-1.0917-1.998-2.1654-4.0056-3.2212-6.021z" fill="#33214a"/>
  <path d="m77.459 48.044 2.2923 0.18223c3.0454 0.17889 6.111 0.52046 9.0068 1.5338l-2.1669-0.11234c-3.459 2.0613-6.8947 4.1965-10.675 5.6347l0.38084-2.1533c0.32224-1.7098 0.76355-3.3929 1.1622-5.0851z" fill="none" stroke="#70687a" stroke-miterlimit="10" stroke-width=".1"/>
  <path d="m77.459 48.044 2.2923 0.18223c3.0454 0.17889 6.111 0.52046 9.0068 1.5338l-2.1669-0.11234c-3.459 2.0613-6.8947 4.1965-10.675 5.6347l0.38084-2.1533c0.32224-1.7098 0.76355-3.3929 1.1622-5.0851z" fill="#70687a"/>
  <path d="m173.76 48.371 3.1392-0.13921c1.049 2.062 2.1347 4.1082 3.0646 6.2301 0.33766 2.3413 0.47788 4.7051 0.61789 7.066l2.2724 0.9509c-4.3951-0.77759-8.0698-3.5138-12.143-5.1622 1.4761-0.31782 2.9431-0.68892 4.4118-1.0562-0.50209-2.6221-0.96109-5.2509-1.3625-7.8893z" fill="none" stroke="#70687a" stroke-miterlimit="10" stroke-width=".1"/>
  <path d="m173.76 48.371 3.1392-0.13921c1.049 2.062 2.1347 4.1082 3.0646 6.2301 0.33766 2.3413 0.47788 4.7051 0.61789 7.066l2.2724 0.9509c-4.3951-0.77759-8.0698-3.5138-12.143-5.1622 1.4761-0.31782 2.9431-0.68892 4.4118-1.0562-0.50209-2.6221-0.96109-5.2509-1.3625-7.8893z" fill="#70687a"/>
  <path d="m75.916 55.282c3.7806-1.4382 7.2163-3.5734 10.675-5.6347 0.09802 1.658-1.3376 4.0975 0.6747 5.0233 3.2025 2.131 7.0521 2.9401 10.406 4.7814 2.6737 1.1988 2.8146 4.5295 4.0065 6.8558l0.94204 0.56557c-1.7599 1.3496-2.9272 3.2568-4.1273 5.0811 1.792-0.19748 3.5898-0.38715 5.3634-0.72948 0.62726 3.8319 0.40967 8.1419 2.5645 11.493 2.702 1.3086 5.9443-0.42426 8.7712-0.7688-0.35753 2.869-0.71281 5.7387-1.0016 8.6167 5.2822-1.6519 9.6146-5.1404 13.493-8.9675l-1.4814-1.8846c2.0434 1.079 3.954 2.3867 5.8428 3.7156 2.2976-1.7362 4.822-4.0942 7.9135-2.7162-4.3961-0.23936-6.3508 4.0312-7.9533 7.3835-2.4756 5.1364-2.9864 11.121-6.3923 15.817 0.87423-6.1194 2.3879-12.12 4.4858-17.933-5.657 2.6374-11.084 6.6116-17.613 6.3948 0.09523-1.9089 0.19423-3.8155 0.28531-5.7229-4.3876-0.48283-7.8361-3.2498-9.8773-7.0737-3.1954 4.1461-8.946 4.1047-12.915 7.1964-2.1375-3.4186-3.9731-7.0554-6.5382-10.184-1.836-2.23-4.8585-2.7289-7.4158-3.7137 1.9882-1.0515 3.9582-2.1367 5.9304-3.2188-2.734-2.7857-5.1744-6.5226-9.272-7.2967-0.69881 4.5276 1.1538 8.9306 1.0412 13.452-5.8019 1.2844-9.3813-4.3983-11.481-8.8669l-2.4002-0.42606c5.0491-5.0722 12.406-7.2186 16.454-13.393l-0.38084 2.1533z" fill="none" stroke="#9794a1" stroke-miterlimit="10" stroke-width=".1"/>
  <path d="m75.916 55.282c3.7806-1.4382 7.2163-3.5734 10.675-5.6347 0.09802 1.658-1.3376 4.0975 0.6747 5.0233 3.2025 2.131 7.0521 2.9401 10.406 4.7814 2.6737 1.1988 2.8146 4.5295 4.0065 6.8558l0.94204 0.56557c-1.7599 1.3496-2.9272 3.2568-4.1273 5.0811 1.792-0.19748 3.5898-0.38715 5.3634-0.72948 0.62726 3.8319 0.40967 8.1419 2.5645 11.493 2.702 1.3086 5.9443-0.42426 8.7712-0.7688-0.35753 2.869-0.71281 5.7387-1.0016 8.6167 5.2822-1.6519 9.6146-5.1404 13.493-8.9675l-1.4814-1.8846c2.0434 1.079 3.954 2.3867 5.8428 3.7156 2.2976-1.7362 4.822-4.0942 7.9135-2.7162-4.3961-0.23936-6.3508 4.0312-7.9533 7.3835-2.4756 5.1364-2.9864 11.121-6.3923 15.817 0.87423-6.1194 2.3879-12.12 4.4858-17.933-5.657 2.6374-11.084 6.6116-17.613 6.3948 0.09523-1.9089 0.19423-3.8155 0.28531-5.7229-4.3876-0.48283-7.8361-3.2498-9.8773-7.0737-3.1954 4.1461-8.946 4.1047-12.915 7.1964-2.1375-3.4186-3.9731-7.0554-6.5382-10.184-1.836-2.23-4.8585-2.7289-7.4158-3.7137 1.9882-1.0515 3.9582-2.1367 5.9304-3.2188-2.734-2.7857-5.1744-6.5226-9.272-7.2967-0.69881 4.5276 1.1538 8.9306 1.0412 13.452-5.8019 1.2844-9.3813-4.3983-11.481-8.8669l-2.4002-0.42606c5.0491-5.0722 12.406-7.2186 16.454-13.393l-0.38084 2.1533z" fill="#9794a1"/>
  <path d="m92.781 51.082c2.6214 0.7267 5.243 1.4618 7.898 2.0636l2.4035 0.52353c2.3455 1.6343 4.2538 3.7823 6.0217 6.008l-5.4193 4.2898c-0.78105-1.7174-1.3967-3.5472-2.5424-5.066-3.4602-2.466-7.4273-4.1131-10.99-6.4282l2.628-1.3908z" fill="none" stroke="#f8fafa" stroke-miterlimit="10" stroke-width=".1"/>
  <path d="m92.781 51.082c2.6214 0.7267 5.243 1.4618 7.898 2.0636l2.4035 0.52353c2.3455 1.6343 4.2538 3.7823 6.0217 6.008l-5.4193 4.2898c-0.78105-1.7174-1.3967-3.5472-2.5424-5.066-3.4602-2.466-7.4273-4.1131-10.99-6.4282l2.628-1.3908z" fill="#f8fafa"/>
  <path d="m157.4 51.797 3.0078-0.85667c0.36203 2.4883 0.72849 5.201 2.4019 7.193 1.7477 1.7222 3.929 2.9036 5.9453 4.2762-2.857 1.8486-5.8977 4.5493-9.5651 3.806-3.3477-0.76935-4.1406-4.5133-5.2493-7.2446l-0.26532-0.69714c2.0585-1.0112 4.1185-2.0227 6.1862-3.0192-0.82353-1.1522-1.646-2.3042-2.4615-3.4576z" fill="none" stroke="#b8b8c7" stroke-miterlimit="10" stroke-width=".1"/>
  <path d="m157.4 51.797 3.0078-0.85667c0.36203 2.4883 0.72849 5.201 2.4019 7.193 1.7477 1.7222 3.929 2.9036 5.9453 4.2762-2.857 1.8486-5.8977 4.5493-9.5651 3.806-3.3477-0.76935-4.1406-4.5133-5.2493-7.2446l-0.26532-0.69714c2.0585-1.0112 4.1185-2.0227 6.1862-3.0192-0.82353-1.1522-1.646-2.3042-2.4615-3.4576z" fill="#b8b8c7"/>
  <path d="m143.4 53.325c1.239-0.50894 2.4813-1.0135 3.727-1.5137 2.0482 1.6781 4.1356 3.3223 5.9988 5.2125l0.54079 1.2498 0.26532 0.69714c-2.0796-0.52191-4.1741-0.97926-6.2415-1.5401-1.4798-1.3168-2.877-2.7219-4.2904-4.1056z" fill="none" stroke="#9794a1" stroke-miterlimit="10" stroke-width=".1"/>
  <path d="m143.4 53.325c1.239-0.50894 2.4813-1.0135 3.727-1.5137 2.0482 1.6781 4.1356 3.3223 5.9988 5.2125l0.54079 1.2498 0.26532 0.69714c-2.0796-0.52191-4.1741-0.97926-6.2415-1.5401-1.4798-1.3168-2.877-2.7219-4.2904-4.1056z" fill="#9794a1"/>
  <path d="m122.81 54.124c1.1134-0.31795 2.2265-0.64143 3.3393-0.97048 1.0274 1.8915 2.0534 3.784 3.0593 5.6889-2.1749 0.76331-4.3572 1.5024-6.5512 2.2039-0.1007-2.3086-0.0584-4.6215 0.15259-6.9224z" fill="none" stroke="#9794a1" stroke-miterlimit="10" stroke-width=".1"/>
  <path d="m122.81 54.124c1.1134-0.31795 2.2265-0.64143 3.3393-0.97048 1.0274 1.8915 2.0534 3.784 3.0593 5.6889-2.1749 0.76331-4.3572 1.5024-6.5512 2.2039-0.1007-2.3086-0.0584-4.6215 0.15259-6.9224z" fill="#9794a1"/>
  <path d="m133.75 56.726c2.5577-1.8313 5.7675-0.70673 8.5635-0.25793-1.9286 2.7593-5.2184 3.5474-8.2891 4.3329-2.7445 0.61881-4.9549 2.4224-7.4048 3.6836-1.6721 0.2377-3.3221-0.37678-4.9558-0.6297 4.0875-2.2798 8.1932-4.5229 12.086-7.1288z" fill="none" stroke="#f8fafa" stroke-miterlimit="10" stroke-width=".1"/>
  <path d="m133.75 56.726c2.5577-1.8313 5.7675-0.70673 8.5635-0.25793-1.9286 2.7593-5.2184 3.5474-8.2891 4.3329-2.7445 0.61881-4.9549 2.4224-7.4048 3.6836-1.6721 0.2377-3.3221-0.37678-4.9558-0.6297 4.0875-2.2798 8.1932-4.5229 12.086-7.1288z" fill="#f8fafa"/>
  <path d="m77.712 55.688 3.6288-0.14578c0.49947 2.3338 1.9359 4.9072 0.48946 7.2018-1.7741 1.7519-4.2152 0.66063-5.5224-1.0415-0.36862-2.1138 0.77921-4.0679 1.4041-6.0145z" fill="none" stroke="#b8b8c7" stroke-miterlimit="10" stroke-width=".1"/>
  <path d="m77.712 55.688 3.6288-0.14578c0.49947 2.3338 1.9359 4.9072 0.48946 7.2018-1.7741 1.7519-4.2152 0.66063-5.5224-1.0415-0.36862-2.1138 0.77921-4.0679 1.4041-6.0145z" fill="#b8b8c7"/>
  <path d="m164.44 56.545c1.5419 0.12076 3.0886 0.2424 4.6273 0.44258l1.6439 0.3293c4.0736 1.6484 7.7483 4.3846 12.143 5.1622 1.4971 0.09505 2.9974 0.17654 4.5008 0.24449-3.0173 5.1544-8.13 8.4659-13.13 11.461-3.4105 1.9132-7.1833 3.6524-11.185 3.4586-3.1443-0.21683-6.1211-1.3568-9.0689-2.3826-2.3264-0.88962-4.5504-2.0362-6.6165-3.4234 4.3776-2.2931 9.3-2.8528 14.095-3.6634 4.0294-0.66208 7.2913-3.2423 10.393-5.7138-2.7084-1.6515-5.2566-3.5687-7.4028-5.9146z" fill="none" stroke="#33214a" stroke-miterlimit="10" stroke-width=".1"/>
  <path d="m164.44 56.545c1.5419 0.12076 3.0886 0.2424 4.6273 0.44258l1.6439 0.3293c4.0736 1.6484 7.7483 4.3846 12.143 5.1622 1.4971 0.09505 2.9974 0.17654 4.5008 0.24449-3.0173 5.1544-8.13 8.4659-13.13 11.461-3.4105 1.9132-7.1833 3.6524-11.185 3.4586-3.1443-0.21683-6.1211-1.3568-9.0689-2.3826-2.3264-0.88962-4.5504-2.0362-6.6165-3.4234 4.3776-2.2931 9.3-2.8528 14.095-3.6634 4.0294-0.66208 7.2913-3.2423 10.393-5.7138-2.7084-1.6515-5.2566-3.5687-7.4028-5.9146z" fill="#33214a"/>
  <path d="m182.85 62.479c0.93884-1.537 1.8872-3.0689 2.8378-4.5998l2.5089 0.78986c0.31932 1.921 1.3262 3.9934 0.37946 5.8908-1.7045 3.4299-4.678 6.1149-7.8937 8.1167-5.814 3.42-11.672 7.0035-18.255 8.738-5.3264 1.5303-10.944 1.6499-16.436 1.2708-1.557-0.02237-2.9121-0.81615-4.2454-1.5122 3.2921-0.05858 6.5668-0.45314 9.8205-0.94699-3.8523-2.2361-8.2512-3.0755-12.581-3.8377 0.47477-1.6644 0.90262-3.345 1.504-4.9695 3.3498 4.5665 9.1874 5.2694 14.319 6.3641-0.28188-0.84227-0.5627-1.6833-0.84244-2.5231 2.9478 1.0258 5.9246 2.1658 9.0689 2.3826 4.0017 0.19377 7.7744-1.5454 11.185-3.4586 5.0004-2.9946 10.113-6.3062 13.13-11.461-1.5034-0.06795-3.0037-0.14944-4.5008-0.24449z" fill="none" stroke="#70687a" stroke-miterlimit="10" stroke-width=".1"/>
  <path d="m182.85 62.479c0.93884-1.537 1.8872-3.0689 2.8378-4.5998l2.5089 0.78986c0.31932 1.921 1.3262 3.9934 0.37946 5.8908-1.7045 3.4299-4.678 6.1149-7.8937 8.1167-5.814 3.42-11.672 7.0035-18.255 8.738-5.3264 1.5303-10.944 1.6499-16.436 1.2708-1.557-0.02237-2.9121-0.81615-4.2454-1.5122 3.2921-0.05858 6.5668-0.45314 9.8205-0.94699-3.8523-2.2361-8.2512-3.0755-12.581-3.8377 0.47477-1.6644 0.90262-3.345 1.504-4.9695 3.3498 4.5665 9.1874 5.2694 14.319 6.3641-0.28188-0.84227-0.5627-1.6833-0.84244-2.5231 2.9478 1.0258 5.9246 2.1658 9.0689 2.3826 4.0017 0.19377 7.7744-1.5454 11.185-3.4586 5.0004-2.9946 10.113-6.3062 13.13-11.461-1.5034-0.06795-3.0037-0.14944-4.5008-0.24449z" fill="#70687a"/>
  <path d="m72.684 62.362c4.0976 0.77405 6.538 4.511 9.272 7.2967-1.9722 1.0821-3.9422 2.1673-5.9304 3.2188 2.5573 0.9848 5.5799 1.4837 7.4158 3.7137 2.5651 3.1285 4.4007 6.7653 6.5382 10.184 3.969-3.0917 9.7196-3.0503 12.915-7.1964 2.0412 3.824 5.4898 6.5909 9.8773 7.0737-0.09108 1.9074-0.19008 3.814-0.28531 5.7229 6.529 0.21678 11.956-3.7574 17.613-6.3948-2.098 5.8131-3.6116 11.814-4.4858 17.933-0.66226 2.5766-1.5067 5.1085-2.541 7.5607-0.77722 1.3459-1.6012 2.6648-2.409 3.9932 1.5479 1.9971 2.188 4.442 2.3258 6.9326-0.91405 0.5181-1.8187 1.051-2.7141 1.5987-1.6314-1.6669-3.2752-3.3189-4.9309-4.9585-3.2022 2.9537-6.3792 6.7753-11.075 7.0216-3.2228 0.18473-7.0646 0.56304-9.6957-1.6569-6.3188-7.1913-8.8377-16.618-12.085-25.398l2.3749-0.77113-0.30411 1.7599c4.3696 2.5483 9.2596 4.0985 13.545 6.7738 2.4819 3.0384 3 7.4094 6.1587 9.9793 1.9568 1.558 4.4328 3.6975 7.1136 2.7937 3.114-1.0879 2.8432-4.9249 3.4948-7.5794-2.3982-0.42305-4.9833-0.46795-7.1371-1.723-2.5229-1.9187-3.0113-5.2913-3.9798-8.1065 3.0091 0.90609 5.9565 2.1712 9.106 2.507 1.4775-0.57778 2.7039-1.6226 4.0064-2.5015-2.7881-4.4376-8.1777-5.0276-12.781-6.3318 3.355 0.8981 6.8462 0.53339 10.148-0.3905-3.0714-4.2713-6.8344-7.9756-10.934-11.253-1.193 3.5349-1.9981 7.2167-1.8521 10.968-5.4445-2.1372-10.616 1.2862-15.704 2.7952 3.2178-1.9026 5.4626-4.9375 7.5649-7.9448-3.7734 0.35609-7.645 0.20204-11.318 1.2376-1.4911 0.28731-1.741 1.9522-2.0658 3.168-0.71846 3.2954-1.0206 6.6812-2.0116 9.9175l-1.6732-0.52121c-1.774-5.0531-0.96568-10.506-0.93787-15.741 0.66301 4.196 0.40103 8.4865 1.0597 12.692 3.2002-5.9044 3.2716-13.828-0.65364-19.42l-1.0841 3.4131c-1.5738 4.2434-1.6173 8.8147-1.8876 13.276-4.7736-1.6281-9.5072-3.3681-14.219-5.1634 0.25912 2.4966 0.52034 4.9942 0.70792 7.4987-4.0529 0.14784-8.6298-0.42697-11.978 2.3781 0.15201-1.6703 0.55086-3.3038 0.86795-4.9454 1.7537 0.48317 3.5334 0.8645 5.3253 1.1857 0.01595-2.4658-2.6773-2.7959-4.398-3.6709 0.19038-3.3112 1.5109-6.3606 2.7559-9.3828-2.611-1.1545-5.4309-1.5712-8.1009-0.33015 0.36179-1.2851 0.71948-2.5706 1.0609-3.8594 3.3256-1.0106 6.6297-2.0891 9.9347-3.1654 0.4382-1.482 0.87207-2.9646 1.3081-4.4459 0.61647-2.8259 1.9601-5.3957 3.8427-7.581l2.4002 0.42606c2.1002 4.4686 5.6796 10.151 11.481 8.8669 0.11266-4.5218-1.74-8.9248-1.0412-13.452z" fill="none" stroke="#70687a" stroke-miterlimit="10" stroke-width=".1"/>
  <path d="m72.684 62.362c4.0976 0.77405 6.538 4.511 9.272 7.2967-1.9722 1.0821-3.9422 2.1673-5.9304 3.2188 2.5573 0.9848 5.5799 1.4837 7.4158 3.7137 2.5651 3.1285 4.4007 6.7653 6.5382 10.184 3.969-3.0917 9.7196-3.0503 12.915-7.1964 2.0412 3.824 5.4898 6.5909 9.8773 7.0737-0.09108 1.9074-0.19008 3.814-0.28531 5.7229 6.529 0.21678 11.956-3.7574 17.613-6.3948-2.098 5.8131-3.6116 11.814-4.4858 17.933-0.66226 2.5766-1.5067 5.1085-2.541 7.5607-0.77722 1.3459-1.6012 2.6648-2.409 3.9932 1.5479 1.9971 2.188 4.442 2.3258 6.9326-0.91405 0.5181-1.8187 1.051-2.7141 1.5987-1.6314-1.6669-3.2752-3.3189-4.9309-4.9585-3.2022 2.9537-6.3792 6.7753-11.075 7.0216-3.2228 0.18473-7.0646 0.56304-9.6957-1.6569-6.3188-7.1913-8.8377-16.618-12.085-25.398l2.3749-0.77113-0.30411 1.7599c4.3696 2.5483 9.2596 4.0985 13.545 6.7738 2.4819 3.0384 3 7.4094 6.1587 9.9793 1.9568 1.558 4.4328 3.6975 7.1136 2.7937 3.114-1.0879 2.8432-4.9249 3.4948-7.5794-2.3982-0.42305-4.9833-0.46795-7.1371-1.723-2.5229-1.9187-3.0113-5.2913-3.9798-8.1065 3.0091 0.90609 5.9565 2.1712 9.106 2.507 1.4775-0.57778 2.7039-1.6226 4.0064-2.5015-2.7881-4.4376-8.1777-5.0276-12.781-6.3318 3.355 0.8981 6.8462 0.53339 10.148-0.3905-3.0714-4.2713-6.8344-7.9756-10.934-11.253-1.193 3.5349-1.9981 7.2167-1.8521 10.968-5.4445-2.1372-10.616 1.2862-15.704 2.7952 3.2178-1.9026 5.4626-4.9375 7.5649-7.9448-3.7734 0.35609-7.645 0.20204-11.318 1.2376-1.4911 0.28731-1.741 1.9522-2.0658 3.168-0.71846 3.2954-1.0206 6.6812-2.0116 9.9175l-1.6732-0.52121c-1.774-5.0531-0.96568-10.506-0.93787-15.741 0.66301 4.196 0.40103 8.4865 1.0597 12.692 3.2002-5.9044 3.2716-13.828-0.65364-19.42l-1.0841 3.4131c-1.5738 4.2434-1.6173 8.8147-1.8876 13.276-4.7736-1.6281-9.5072-3.3681-14.219-5.1634 0.25912 2.4966 0.52034 4.9942 0.70792 7.4987-4.0529 0.14784-8.6298-0.42697-11.978 2.3781 0.15201-1.6703 0.55086-3.3038 0.86795-4.9454 1.7537 0.48317 3.5334 0.8645 5.3253 1.1857 0.01595-2.4658-2.6773-2.7959-4.398-3.6709 0.19038-3.3112 1.5109-6.3606 2.7559-9.3828-2.611-1.1545-5.4309-1.5712-8.1009-0.33015 0.36179-1.2851 0.71948-2.5706 1.0609-3.8594 3.3256-1.0106 6.6297-2.0891 9.9347-3.1654 0.4382-1.482 0.87207-2.9646 1.3081-4.4459 0.61647-2.8259 1.9601-5.3957 3.8427-7.581l2.4002 0.42606c2.1002 4.4686 5.6796 10.151 11.481 8.8669 0.11266-4.5218-1.74-8.9248-1.0412-13.452z" fill="#70687a"/>
  <path d="m103.25 66.429c1.617-1.2169 3.1435-2.5848 4.9461-3.5312 2.0655-0.78717 3.7854 1.0561 4.0701 2.9727-1.4576 1.4182-3.1463 2.5707-4.8704 3.6362 0.47701-1.2814 0.95775-2.5609 1.4402-3.8395-1.8652 0.23776-3.7314 0.46381-5.5861 0.7618z" fill="none" stroke="#9794a1" stroke-miterlimit="10" stroke-width=".1"/>
  <path d="m103.25 66.429c1.617-1.2169 3.1435-2.5848 4.9461-3.5312 2.0655-0.78717 3.7854 1.0561 4.0701 2.9727-1.4576 1.4182-3.1463 2.5707-4.8704 3.6362 0.47701-1.2814 0.95775-2.5609 1.4402-3.8395-1.8652 0.23776-3.7314 0.46381-5.5861 0.7618z" fill="#9794a1"/>
  <path d="m116.39 63.045c0.99846 0.31503 1.9897 0.65595 2.9737 1.0227 2.4154 0.6163 2.8028 3.4681 3.8538 5.3445 8.6126-0.91831 15.806-8.7555 24.79-5.974l-1.5704 1.766c-4.4118-1.6249-7.3293 3.3862-11.493 3.7888-6.9551 0.76056-13.472 3.374-20.292 4.7435 0.03249 0.78441 0.06627 1.5698 0.10132 2.3561-1.6207-0.4308-3.2472-0.83643-4.8666-1.2586 1.8507-2.805 5.1888-3.2344 8.2834-3.3534-0.64079-2.8019-1.2636-5.6087-1.7799-8.4355z" fill="none" stroke="#70687a" stroke-miterlimit="10" stroke-width=".1"/>
  <path d="m116.39 63.045c0.99846 0.31503 1.9897 0.65595 2.9737 1.0227 2.4154 0.6163 2.8028 3.4681 3.8538 5.3445 8.6126-0.91831 15.806-8.7555 24.79-5.974l-1.5704 1.766c-4.4118-1.6249-7.3293 3.3862-11.493 3.7888-6.9551 0.76056-13.472 3.374-20.292 4.7435 0.03249 0.78441 0.06627 1.5698 0.10132 2.3561-1.6207-0.4308-3.2472-0.83643-4.8666-1.2586 1.8507-2.805 5.1888-3.2344 8.2834-3.3534-0.64079-2.8019-1.2636-5.6087-1.7799-8.4355z" fill="#70687a"/>
  <path d="m134.94 68.993c4.1636-0.4026 7.0811-5.4137 11.493-3.7888-1.8814 2.1676-3.9646 4.1432-5.946 6.2153-0.60137 1.6245-1.0292 3.305-1.504 4.9695 4.3295 0.76216 8.7283 1.6016 12.581 3.8377-3.2538 0.49385-6.5285 0.88841-9.8205 0.94699l-1.789-0.45965c-3.0915-1.3779-5.6159 0.98-7.9135 2.7162-1.8888-1.3289-3.7994-2.6365-5.8428-3.7156l-2.3077-0.84317c-2.0432-0.67009-4.1002-1.297-6.1556-1.9203-0.99294-0.29967-1.988-0.58589-2.9852-0.85867-0.03505-0.78633-0.06883-1.5717-0.10132-2.3561 6.8207-1.3694 13.337-3.9829 20.292-4.7435z" fill="none" stroke="#33214a" stroke-miterlimit="10" stroke-width=".1"/>
  <path d="m134.94 68.993c4.1636-0.4026 7.0811-5.4137 11.493-3.7888-1.8814 2.1676-3.9646 4.1432-5.946 6.2153-0.60137 1.6245-1.0292 3.305-1.504 4.9695 4.3295 0.76216 8.7283 1.6016 12.581 3.8377-3.2538 0.49385-6.5285 0.88841-9.8205 0.94699l-1.789-0.45965c-3.0915-1.3779-5.6159 0.98-7.9135 2.7162-1.8888-1.3289-3.7994-2.6365-5.8428-3.7156l-2.3077-0.84317c-2.0432-0.67009-4.1002-1.297-6.1556-1.9203-0.99294-0.29967-1.988-0.58589-2.9852-0.85867-0.03505-0.78633-0.06883-1.5717-0.10132-2.3561 6.8207-1.3694 13.337-3.9829 20.292-4.7435z" fill="#33214a"/>
  <path d="m103.25 66.429c1.8546-0.29799 3.7209-0.52403 5.5861-0.7618-0.4825 1.2786-0.96324 2.5581-1.4402 3.8395-1.1519 0.62784-2.3317 1.2028-3.536 1.719-1.7736 0.34233-3.5714 0.532-5.3634 0.72948 1.2001-1.8243 2.3674-3.7315 4.1273-5.0811l0.6263-0.44513z" fill="none" stroke="#70687a" stroke-miterlimit="10" stroke-width=".1"/>
  <path d="m103.25 66.429c1.8546-0.29799 3.7209-0.52403 5.5861-0.7618-0.4825 1.2786-0.96324 2.5581-1.4402 3.8395-1.1519 0.62784-2.3317 1.2028-3.536 1.719-1.7736 0.34233-3.5714 0.532-5.3634 0.72948 1.2001-1.8243 2.3674-3.7315 4.1273-5.0811l0.6263-0.44513z" fill="#70687a"/>
  <path d="m90.754 76.793c2.1616-3.2264 4.9171-6.0029 7.1737-9.1636 0.26459 3.3535 0.99661 6.7356 0.58675 10.104-1.318 3.3907-4.6971 5.2934-7.6447 7.0946-0.55637-2.6046-1.6144-5.5353-0.11575-8.0346z" fill="none" stroke="#b8b8c7" stroke-miterlimit="10" stroke-width=".1"/>
  <path d="m90.754 76.793c2.1616-3.2264 4.9171-6.0029 7.1737-9.1636 0.26459 3.3535 0.99661 6.7356 0.58675 10.104-1.318 3.3907-4.6971 5.2934-7.6447 7.0946-0.55637-2.6046-1.6144-5.5353-0.11575-8.0346z" fill="#b8b8c7"/>
  <path d="m105.08 71.047c1.6786-0.30649 3.3615-0.59013 5.05-0.84959-0.50298 2.2929-2.075 3.8876-4.0892 4.9684-0.32942-1.372-0.64757-2.7455-0.96079-4.1188z" fill="none" stroke="#f8fafa" stroke-miterlimit="10" stroke-width=".1"/>
  <path d="m105.08 71.047c1.6786-0.30649 3.3615-0.59013 5.05-0.84959-0.50298 2.2929-2.075 3.8876-4.0892 4.9684-0.32942-1.372-0.64757-2.7455-0.96079-4.1188z" fill="#f8fafa"/>
  <path d="m44.758 81.714c2.3756-4.2292 6.9542-5.9901 11.243-7.6114l-1.3081 4.4459c-3.305 1.0763-6.6091 2.1548-9.9347 3.1654z" fill="none" stroke="#9794a1" stroke-miterlimit="10" stroke-width=".1"/>
  <path d="m44.758 81.714c2.3756-4.2292 6.9542-5.9901 11.243-7.6114l-1.3081 4.4459c-3.305 1.0763-6.6091 2.1548-9.9347 3.1654z" fill="#9794a1"/>
  <path d="m68.517 78.225 2.4138-1.6531c1.0004 0.52162 2.0039 1.0398 3.0107 1.5544-0.04205 1.4514-0.09016 2.9036-0.14433 4.3565-2.1165-0.94179-3.8815-2.4239-5.2802-4.2578z" fill="none" stroke="#9794a1" stroke-miterlimit="10" stroke-width=".1"/>
  <path d="m68.517 78.225 2.4138-1.6531c1.0004 0.52162 2.0039 1.0398 3.0107 1.5544-0.04205 1.4514-0.09016 2.9036-0.14433 4.3565-2.1165-0.94179-3.8815-2.4239-5.2802-4.2578z" fill="#9794a1"/>
  <path d="m117.74 76.951c2.0554 0.62331 4.1125 1.2502 6.1556 1.9203-1.6634 2.6153-3.8122 4.8828-6.4774 6.4934-0.73865-2.7949-0.97757-5.7409 0.32176-8.4136z" fill="none" stroke="#f8fafa" stroke-miterlimit="10" stroke-width=".1"/>
  <path d="m117.74 76.951c2.0554 0.62331 4.1125 1.2502 6.1556 1.9203-1.6634 2.6153-3.8122 4.8828-6.4774 6.4934-0.73865-2.7949-0.97757-5.7409 0.32176-8.4136z" fill="#f8fafa"/>
  <path d="m75.708 81.315c3.9253 5.592 3.8538 13.516 0.65364 19.42-0.65868-4.2052-0.3967-8.4958-1.0597-12.692l-0.67805-3.3155 1.0841-3.4131z" fill="none" stroke="#9794a1" stroke-miterlimit="10" stroke-width=".1"/>
  <path d="m75.708 81.315c3.9253 5.592 3.8538 13.516 0.65364 19.42-0.65868-4.2052-0.3967-8.4958-1.0597-12.692l-0.67805-3.3155 1.0841-3.4131z" fill="#9794a1"/>
  <path d="m103.3 84.164c4.0996 3.2775 7.8626 6.9818 10.934 11.253-3.3021 0.92389-6.7933 1.2886-10.148 0.3905l-2.6378-0.67554c-0.14598-3.7514 0.6591-7.4332 1.8521-10.968z" fill="none" stroke="#33214a" stroke-miterlimit="10" stroke-width=".1"/>
  <path d="m103.3 84.164c4.0996 3.2775 7.8626 6.9818 10.934 11.253-3.3021 0.92389-6.7933 1.2886-10.148 0.3905l-2.6378-0.67554c-0.14598-3.7514 0.6591-7.4332 1.8521-10.968z" fill="#33214a"/>
  <path d="m56.74 91.169c0.13361-2.003-1.6957-5.639 1.2179-6.1456 1.1747 1.8228 1.7494 3.9352 2.4071 5.9801l-3.625 0.1655z" fill="none" stroke="#b8b8c7" stroke-miterlimit="10" stroke-width=".1"/>
  <path d="m56.74 91.169c0.13361-2.003-1.6957-5.639 1.2179-6.1456 1.1747 1.8228 1.7494 3.9352 2.4071 5.9801l-3.625 0.1655z" fill="#b8b8c7"/>
  <path d="m72.736 98.004c0.27026-4.4608 0.31381-9.0322 1.8876-13.276l0.67805 3.3155c-0.02782 5.2356-0.83611 10.688 0.93787 15.741l1.6732 0.52121c0.991-3.2362 1.2931-6.6221 2.0116-9.9175 0.32481-1.2158 0.57472-2.8807 2.0658-3.168 3.6733-1.0356 7.5449-0.88155 11.318-1.2376-2.1023 3.0073-4.3472 6.0422-7.5649 7.9448l-0.88046 0.30894-2.3749 0.77113c3.2474 8.7795 5.7663 18.206 12.085 25.398 2.6311 2.2199 6.4729 1.8416 9.6957 1.6569 4.6958-0.24635 7.8728-4.068 11.075-7.0216 1.6557 1.6395 3.2995 3.2916 4.9309 4.9585-4.0272 2.9321-7.6247 6.4017-11.53 9.4905 3.8446-0.05211 7.654-0.64806 11.493-0.78885 3.2723-0.25349 5.9026 2.2113 7.8891 4.4887-4.5456 0.33611-8.7693-1.7857-13.18-2.4722-2.5484-0.38845-4.9132 0.90783-7.2338 1.745-0.93405 0.36112-1.8636 0.732-2.7886 1.1126-3.325 0.56766-6.6492 1.1479-9.9201 1.9782 0.60873-1.0421 1.259-2.0607 1.7998-3.1389-1.0137-1.678-2.5665-2.9375-3.9193-4.3254-3.8643-3.6157-7.1208-7.8169-10.995-11.421 1.9211 4.8898 5.4196 8.8234 8.4715 13.005 1.41 1.765 0.90463 4.1032 0.79866 6.1696-2.4467-2.5506-3.9902-5.913-6.7568-8.1437-3.1212-1.5069-6.8577-2.054-9.2189-4.832-2.98-3.2692-6.2426-6.3822-10.299-8.2758-1.4389-0.96194-2.8093 0.33486-3.9945 1.028l0.55428-1.1527c-1.488 0.55162-2.9747 1.1057-4.4624 1.6574-0.19684-1.7241-0.39011-3.4468-0.58557-5.1678-2.1346 3.1646-4.1672 6.3956-6.2383 9.6024-0.58787-0.99759-1.1678-1.9956-1.7386-2.9989l-2.1131 1.2714c-0.55676-4.5704 1.0432-8.8986 3.4118-12.728-0.84096-0.79527-1.6836-1.5874-2.5255-2.3773-0.00769-1.6713-0.04088-3.3417 0.05299-5.0081 3.348-2.8051 7.9249-2.2303 11.978-2.3781-0.18758-2.5044-0.44879-5.0021-0.70792-7.4987 4.7123 1.7953 9.4459 3.5353 14.219 5.1634z" fill="none" stroke="#33214a" stroke-miterlimit="10" stroke-width=".1"/>
  <path d="m72.736 98.004c0.27026-4.4608 0.31381-9.0322 1.8876-13.276l0.67805 3.3155c-0.02782 5.2356-0.83611 10.688 0.93787 15.741l1.6732 0.52121c0.991-3.2362 1.2931-6.6221 2.0116-9.9175 0.32481-1.2158 0.57472-2.8807 2.0658-3.168 3.6733-1.0356 7.5449-0.88155 11.318-1.2376-2.1023 3.0073-4.3472 6.0422-7.5649 7.9448l-0.88046 0.30894-2.3749 0.77113c3.2474 8.7795 5.7663 18.206 12.085 25.398 2.6311 2.2199 6.4729 1.8416 9.6957 1.6569 4.6958-0.24635 7.8728-4.068 11.075-7.0216 1.6557 1.6395 3.2995 3.2916 4.9309 4.9585-4.0272 2.9321-7.6247 6.4017-11.53 9.4905 3.8446-0.05211 7.654-0.64806 11.493-0.78885 3.2723-0.25349 5.9026 2.2113 7.8891 4.4887-4.5456 0.33611-8.7693-1.7857-13.18-2.4722-2.5484-0.38845-4.9132 0.90783-7.2338 1.745-0.93405 0.36112-1.8636 0.732-2.7886 1.1126-3.325 0.56766-6.6492 1.1479-9.9201 1.9782 0.60873-1.0421 1.259-2.0607 1.7998-3.1389-1.0137-1.678-2.5665-2.9375-3.9193-4.3254-3.8643-3.6157-7.1208-7.8169-10.995-11.421 1.9211 4.8898 5.4196 8.8234 8.4715 13.005 1.41 1.765 0.90463 4.1032 0.79866 6.1696-2.4467-2.5506-3.9902-5.913-6.7568-8.1437-3.1212-1.5069-6.8577-2.054-9.2189-4.832-2.98-3.2692-6.2426-6.3822-10.299-8.2758-1.4389-0.96194-2.8093 0.33486-3.9945 1.028l0.55428-1.1527c-1.488 0.55162-2.9747 1.1057-4.4624 1.6574-0.19684-1.7241-0.39011-3.4468-0.58557-5.1678-2.1346 3.1646-4.1672 6.3956-6.2383 9.6024-0.58787-0.99759-1.1678-1.9956-1.7386-2.9989l-2.1131 1.2714c-0.55676-4.5704 1.0432-8.8986 3.4118-12.728-0.84096-0.79527-1.6836-1.5874-2.5255-2.3773-0.00769-1.6713-0.04088-3.3417 0.05299-5.0081 3.348-2.8051 7.9249-2.2303 11.978-2.3781-0.18758-2.5044-0.44879-5.0021-0.70792-7.4987 4.7123 1.7953 9.4459 3.5353 14.219 5.1634z" fill="#33214a"/>
  <path d="m42.145 93.97c2.9992-2.097 4.7186-5.3358 6.505-8.4214-0.15807 4.0706 0.16687 8.1927-0.53473 12.223-0.31709 1.6416-0.71594 3.2751-0.86795 4.9454-0.09387 1.6664-0.06068 3.3368-0.05299 5.0081-0.02299 1.4899 0.05472 3.0086-0.28162 4.4745-0.93767 0.91249-2.0247 1.6508-3.0601 2.4462-1.0002-3.7332-1.4427-7.5852-1.433-11.445l-2.8416 1.5732c0.121-3.6415-0.96953-8.401 2.5669-10.805z" fill="none" stroke="#9794a1" stroke-miterlimit="10" stroke-width=".1"/>
  <path d="m42.145 93.97c2.9992-2.097 4.7186-5.3358 6.505-8.4214-0.15807 4.0706 0.16687 8.1927-0.53473 12.223-0.31709 1.6416-0.71594 3.2751-0.86795 4.9454-0.09387 1.6664-0.06068 3.3368-0.05299 5.0081-0.02299 1.4899 0.05472 3.0086-0.28162 4.4745-0.93767 0.91249-2.0247 1.6508-3.0601 2.4462-1.0002-3.7332-1.4427-7.5852-1.433-11.445l-2.8416 1.5732c0.121-3.6415-0.96953-8.401 2.5669-10.805z" fill="#9794a1"/>
  <path d="m85.744 97.928c5.0889-1.5089 10.26-4.9323 15.704-2.7952l2.6378 0.67554c4.6031 1.3042 9.9927 1.8942 12.781 6.3318-1.3025 0.87889-2.5289 1.9237-4.0064 2.5015-3.1496-0.33574-6.097-1.6009-9.106-2.507 0.96846 2.8152 1.4569 6.1878 3.9798 8.1065 2.1538 1.255 4.7389 1.2999 7.1371 1.723-0.65164 2.6546-0.38084 6.4915-3.4948 7.5794-2.6807 0.90386-5.1568-1.2357-7.1136-2.7937-3.1588-2.57-3.6768-6.9409-6.1587-9.9793-4.2854-2.6753-9.1754-4.2255-13.545-6.7738l0.30411-1.7599 0.88046-0.30894z" fill="none" stroke="#9794a1" stroke-miterlimit="10" stroke-width=".1"/>
  <path d="m85.744 97.928c5.0889-1.5089 10.26-4.9323 15.704-2.7952l2.6378 0.67554c4.6031 1.3042 9.9927 1.8942 12.781 6.3318-1.3025 0.87889-2.5289 1.9237-4.0064 2.5015-3.1496-0.33574-6.097-1.6009-9.106-2.507 0.96846 2.8152 1.4569 6.1878 3.9798 8.1065 2.1538 1.255 4.7389 1.2999 7.1371 1.723-0.65164 2.6546-0.38084 6.4915-3.4948 7.5794-2.6807 0.90386-5.1568-1.2357-7.1136-2.7937-3.1588-2.57-3.6768-6.9409-6.1587-9.9793-4.2854-2.6753-9.1754-4.2255-13.545-6.7738l0.30411-1.7599 0.88046-0.30894z" fill="#9794a1"/>
  <path d="m44.358 96.598 2.6446-0.40179c-0.39475 2.6845-0.92331 5.5031-3.1965 7.2856-0.2968-2.3156 0.00475-4.6315 0.55196-6.8838z" fill="none" stroke="#b8b8c7" stroke-miterlimit="10" stroke-width=".1"/>
  <path d="m44.358 96.598 2.6446-0.40179c-0.39475 2.6845-0.92331 5.5031-3.1965 7.2856-0.2968-2.3156 0.00475-4.6315 0.55196-6.8838z" fill="#b8b8c7"/>
  <path d="m91.743 97.037c3.5492-0.8611 8.0768-1.6124 10.834 1.4231 0.4531 2.5108-0.29797 5.0198-0.75383 7.4748-2.1265-0.73414-4.3436-1.3262-6.2636-2.5328-2.1388-1.4608-2.7947-4.1384-3.8171-6.3651z" fill="none" stroke="#b8b8c7" stroke-miterlimit="10" stroke-width=".1"/>
  <path d="m91.743 97.037c3.5492-0.8611 8.0768-1.6124 10.834 1.4231 0.4531 2.5108-0.29797 5.0198-0.75383 7.4748-2.1265-0.73414-4.3436-1.3262-6.2636-2.5328-2.1388-1.4608-2.7947-4.1384-3.8171-6.3651z" fill="#b8b8c7"/>
  <path d="m39.578 104.77c0.94694-0.52548 1.8944-1.049 2.8416-1.5732-0.00977 3.8596 0.43271 7.7116 1.433 11.445 1.0354-0.79541 2.1224-1.5338 3.0601-2.4462 0.33633-1.4659 0.25862-2.9846 0.28162-4.4745 0.8419 0.78993 1.6845 1.582 2.5255 2.3773-2.3686 3.8292-3.9686 8.1574-3.4118 12.728l2.1131-1.2714c0.57073 1.0033 1.1507 2.0013 1.7386 2.9989 2.0711-3.2067 4.1037-6.4378 6.2383-9.6024 0.19547 1.721 0.38873 3.4436 0.58557 5.1678 1.4877-0.55162 2.9744-1.1057 4.4624-1.6574l-0.55428 1.1527c-1.4424 3.847-4.9089 6.2349-7.9852 8.6948 1.8233 4.3306 4.3872 8.3077 6.0734 12.702l0.63092 1.6062c-1.2596-0.49998-2.5151-1.004-3.7692-1.51 1.5357 5.6191 2.5898 12.133 8.1318 15.315 2.6137 2.4127 3.4338 6.1377 5.8199 8.7455 1.5779 1.4436 3.7889 1.8059 5.721 2.5739 1.2411 3.9298 2.0711 7.9872 2.1502 12.12-4.0615 1.5311-8.8827 2.7162-12.895 0.40788-1.08-1.872-2.05-3.8022-3.0417-5.7185 1.434 0.22057 2.8675 0.45653 4.3114 0.62485 2.6825 0.3533 5.3934 0.31285 8.0916 0.20417l0.08092-3.1982c-2.1889-0.099-4.3771-0.18427-6.5637-0.30579 0.70911-1.4397 1.5308-2.8194 2.3231-4.2112-3.5326 0.81962-7.0904 1.5668-10.707 1.8932-3.3969-7.2554-11.097-10.85-15.398-17.368-1.1061-2.078-2.0713-4.225-3.0715-6.3524 0.69-0.64647 1.3809-1.2907 2.0727-1.9327 2.8068 0.78271 5.6284 1.5133 8.4713 2.1585-0.58269-2.0507-1.1581-4.106-1.9453-6.0872-1.4936-2.929-2.967-5.9044-4.948-8.5399-1.2421 0.05164-2.4605 0.32271-3.6655 0.60774-1.615 0.46119-3.2085 0.99506-4.8306 1.432l-0.63377-1.5758c0.71684-2.3439 1.9854-4.5319 2.3304-6.9777-0.00386-2.3225-0.6953-4.5853-0.68996-6.9058 0.58498-4.467 1.6716-8.8495 2.6233-13.248z" fill="none" stroke="#70687a" stroke-miterlimit="10" stroke-width=".1"/>
  <path d="m39.578 104.77c0.94694-0.52548 1.8944-1.049 2.8416-1.5732-0.00977 3.8596 0.43271 7.7116 1.433 11.445 1.0354-0.79541 2.1224-1.5338 3.0601-2.4462 0.33633-1.4659 0.25862-2.9846 0.28162-4.4745 0.8419 0.78993 1.6845 1.582 2.5255 2.3773-2.3686 3.8292-3.9686 8.1574-3.4118 12.728l2.1131-1.2714c0.57073 1.0033 1.1507 2.0013 1.7386 2.9989 2.0711-3.2067 4.1037-6.4378 6.2383-9.6024 0.19547 1.721 0.38873 3.4436 0.58557 5.1678 1.4877-0.55162 2.9744-1.1057 4.4624-1.6574l-0.55428 1.1527c-1.4424 3.847-4.9089 6.2349-7.9852 8.6948 1.8233 4.3306 4.3872 8.3077 6.0734 12.702l0.63092 1.6062c-1.2596-0.49998-2.5151-1.004-3.7692-1.51 1.5357 5.6191 2.5898 12.133 8.1318 15.315 2.6137 2.4127 3.4338 6.1377 5.8199 8.7455 1.5779 1.4436 3.7889 1.8059 5.721 2.5739 1.2411 3.9298 2.0711 7.9872 2.1502 12.12-4.0615 1.5311-8.8827 2.7162-12.895 0.40788-1.08-1.872-2.05-3.8022-3.0417-5.7185 1.434 0.22057 2.8675 0.45653 4.3114 0.62485 2.6825 0.3533 5.3934 0.31285 8.0916 0.20417l0.08092-3.1982c-2.1889-0.099-4.3771-0.18427-6.5637-0.30579 0.70911-1.4397 1.5308-2.8194 2.3231-4.2112-3.5326 0.81962-7.0904 1.5668-10.707 1.8932-3.3969-7.2554-11.097-10.85-15.398-17.368-1.1061-2.078-2.0713-4.225-3.0715-6.3524 0.69-0.64647 1.3809-1.2907 2.0727-1.9327 2.8068 0.78271 5.6284 1.5133 8.4713 2.1585-0.58269-2.0507-1.1581-4.106-1.9453-6.0872-1.4936-2.929-2.967-5.9044-4.948-8.5399-1.2421 0.05164-2.4605 0.32271-3.6655 0.60774-1.615 0.46119-3.2085 0.99506-4.8306 1.432l-0.63377-1.5758c0.71684-2.3439 1.9854-4.5319 2.3304-6.9777-0.00386-2.3225-0.6953-4.5853-0.68996-6.9058 0.58498-4.467 1.6716-8.8495 2.6233-13.248z" fill="#70687a"/>
  <path d="m62.111 102.97c1.9828-0.6933 2.5232 2.5252 0.62294 2.8928-1.9806 0.69204-2.5324-2.5336-0.62294-2.8928z" fill="none" stroke="#70687a" stroke-miterlimit="10" stroke-width=".1"/>
  <path d="m62.111 102.97c1.9828-0.6933 2.5232 2.5252 0.62294 2.8928-1.9806 0.69204-2.5324-2.5336-0.62294-2.8928z" fill="#70687a"/>
  <path d="m123.07 111.47c1.0343-2.4522 1.8787-4.9841 2.541-7.5607-0.48604 10.435-0.97959 21.36 3.5448 31.081-3.4561-2.5998-7.1105-4.9789-10.194-8.0329 1.6316-0.97087 3.3455-1.7914 5.039-2.6486 0.57086-4.3004 0.32198-8.6764-0.93066-12.839z" fill="none" stroke="#b8b8c7" stroke-miterlimit="10" stroke-width=".1"/>
  <path d="m123.07 111.47c1.0343-2.4522 1.8787-4.9841 2.541-7.5607-0.48604 10.435-0.97959 21.36 3.5448 31.081-3.4561-2.5998-7.1105-4.9789-10.194-8.0329 1.6316-0.97087 3.3455-1.7914 5.039-2.6486 0.57086-4.3004 0.32198-8.6764-0.93066-12.839z" fill="#b8b8c7"/>
  <path d="m120.66 115.47c0.80783-1.3284 1.6318-2.6473 2.409-3.9932 1.2526 4.1627 1.5015 8.5387 0.93066 12.839-1.6934 0.85718-3.4074 1.6777-5.039 2.6486 3.0835 3.054 6.7379 5.4331 10.194 8.0329-0.43716 1.4537-0.90852 2.898-1.4336 4.325-6.494-1.8591-13.178-3.86-20.012-2.8579 2.3207-0.83719 4.6855-2.1335 7.2338-1.745 4.4111 0.68652 8.6348 2.8083 13.18 2.4722-1.9865-2.2773-4.6168-4.7422-7.8891-4.4887-3.8388 0.14079-7.6482 0.73674-11.493 0.78885 3.905-3.0888 7.5025-6.5584 11.53-9.4905 0.89533-0.54768 1.8-1.0806 2.7141-1.5987-0.13774-2.4905-0.7779-4.9355-2.3258-6.9326z" fill="none" stroke="#9794a1" stroke-miterlimit="10" stroke-width=".1"/>
  <path d="m120.66 115.47c0.80783-1.3284 1.6318-2.6473 2.409-3.9932 1.2526 4.1627 1.5015 8.5387 0.93066 12.839-1.6934 0.85718-3.4074 1.6777-5.039 2.6486 3.0835 3.054 6.7379 5.4331 10.194 8.0329-0.43716 1.4537-0.90852 2.898-1.4336 4.325-6.494-1.8591-13.178-3.86-20.012-2.8579 2.3207-0.83719 4.6855-2.1335 7.2338-1.745 4.4111 0.68652 8.6348 2.8083 13.18 2.4722-1.9865-2.2773-4.6168-4.7422-7.8891-4.4887-3.8388 0.14079-7.6482 0.73674-11.493 0.78885 3.905-3.0888 7.5025-6.5584 11.53-9.4905 0.89533-0.54768 1.8-1.0806 2.7141-1.5987-0.13774-2.4905-0.7779-4.9355-2.3258-6.9326z" fill="#9794a1"/>
  <path d="m81.89 120.67c3.8742 3.6043 7.1307 7.8055 10.995 11.421 1.3528 1.3879 2.9056 2.6474 3.9193 4.3254-0.54085 1.0782-1.1911 2.0968-1.7998 3.1389 3.2709-0.83038 6.5951-1.4106 9.9201-1.9782-2.0318 1.3031-4.0099 2.6867-6.0098 4.0376 10.982 1.4093 22.187-0.33539 33.069 1.8397 1.6006 4.6335 2.3885 9.4956 2.8746 14.361l0.14993 1.8138c-2.3328-0.12745-4.6567-0.37693-6.9898-0.46028-1.34-4.4277-2.6166-9.1637-0.94329-13.698-4.0428-1.0673-8.3467-1.919-12.456-0.67399-4.2682 1.2701-8.5092 2.6687-12.667 4.2622-2.5877 0.92521-4.0033 3.427-5.4821 5.5612-1.9557 3.0978-4.1855 6.0821-5.5065 9.5273-1.1981 3.3572-0.30249 6.9477 0.46642 10.295l-4.2168 0.47905c-2.9616-8.9986-0.72107-18.632 2.611-27.188 1.1116-2.4824 1.0925-5.2347 1.3359-7.8896 0.10597-2.0664 0.61133-4.4045-0.79866-6.1696-3.0519-4.1816-6.5504-8.1152-8.4715-13.005z" fill="none" stroke="#70687a" stroke-miterlimit="10" stroke-width=".1"/>
  <path d="m81.89 120.67c3.8742 3.6043 7.1307 7.8055 10.995 11.421 1.3528 1.3879 2.9056 2.6474 3.9193 4.3254-0.54085 1.0782-1.1911 2.0968-1.7998 3.1389 3.2709-0.83038 6.5951-1.4106 9.9201-1.9782-2.0318 1.3031-4.0099 2.6867-6.0098 4.0376 10.982 1.4093 22.187-0.33539 33.069 1.8397 1.6006 4.6335 2.3885 9.4956 2.8746 14.361l0.14993 1.8138c-2.3328-0.12745-4.6567-0.37693-6.9898-0.46028-1.34-4.4277-2.6166-9.1637-0.94329-13.698-4.0428-1.0673-8.3467-1.919-12.456-0.67399-4.2682 1.2701-8.5092 2.6687-12.667 4.2622-2.5877 0.92521-4.0033 3.427-5.4821 5.5612-1.9557 3.0978-4.1855 6.0821-5.5065 9.5273-1.1981 3.3572-0.30249 6.9477 0.46642 10.295l-4.2168 0.47905c-2.9616-8.9986-0.72107-18.632 2.611-27.188 1.1116-2.4824 1.0925-5.2347 1.3359-7.8896 0.10597-2.0664 0.61133-4.4045-0.79866-6.1696-3.0519-4.1816-6.5504-8.1152-8.4715-13.005z" fill="#70687a"/>
  <path d="m40.778 132.05c1.205-0.28503 2.4234-0.5561 3.6655-0.60774 1.981 2.6354 3.4544 5.6109 4.948 8.5399l-3.2954 3.0113c-1.9174-3.5762-3.7186-7.2145-5.3182-10.943z" fill="none" stroke="#b8b8c7" stroke-miterlimit="10" stroke-width=".1"/>
  <path d="m40.778 132.05c1.205-0.28503 2.4234-0.5561 3.6655-0.60774 1.981 2.6354 3.4544 5.6109 4.948 8.5399l-3.2954 3.0113c-1.9174-3.5762-3.7186-7.2145-5.3182-10.943z" fill="#b8b8c7"/>
  <path d="m35.907 137c-0.68295-1.6192-0.73447-3.3705-0.59282-5.0924l0.63377 1.5758c1.6221-0.43689 3.2156-0.97076 4.8306-1.432 1.5995 3.729 3.4007 7.3672 5.3182 10.943 1.0978-1.0056 2.1968-2.0086 3.2954-3.0113 0.78722 1.9812 1.3626 4.0365 1.9453 6.0872-2.8429-0.64521-5.6644-1.3758-8.4713-2.1585-0.69182 0.64201-1.3827 1.2862-2.0727 1.9327 1.0003 2.1274 1.9654 4.2743 3.0715 6.3524-4.171-4.1214-5.9728-9.8399-7.9579-15.197z" fill="none" stroke="#9794a1" stroke-miterlimit="10" stroke-width=".1"/>
  <path d="m35.907 137c-0.68295-1.6192-0.73447-3.3705-0.59282-5.0924l0.63377 1.5758c1.6221-0.43689 3.2156-0.97076 4.8306-1.432 1.5995 3.729 3.4007 7.3672 5.3182 10.943 1.0978-1.0056 2.1968-2.0086 3.2954-3.0113 0.78722 1.9812 1.3626 4.0365 1.9453 6.0872-2.8429-0.64521-5.6644-1.3758-8.4713-2.1585-0.69182 0.64201-1.3827 1.2862-2.0727 1.9327 1.0003 2.1274 1.9654 4.2743 3.0715 6.3524-4.171-4.1214-5.9728-9.8399-7.9579-15.197z" fill="#9794a1"/>
  <path d="m129.16 135c0.71773 2.8863 1.5604 5.7553 2.826 8.457-10.882-2.175-22.088-0.43037-33.069-1.8397 1.9998-1.3509 3.978-2.7345 6.0098-4.0376 0.92502-0.38064 1.8546-0.75152 2.7886-1.1126 6.8337-1.0022 13.518 0.99881 20.012 2.8579 0.52503-1.427 0.99639-2.8713 1.4336-4.325z" fill="none" stroke="#b8b8c7" stroke-miterlimit="10" stroke-width=".1"/>
  <path d="m129.16 135c0.71773 2.8863 1.5604 5.7553 2.826 8.457-10.882-2.175-22.088-0.43037-33.069-1.8397 1.9998-1.3509 3.978-2.7345 6.0098-4.0376 0.92502-0.38064 1.8546-0.75152 2.7886-1.1126 6.8337-1.0022 13.518 0.99881 20.012 2.8579 0.52503-1.427 0.99639-2.8713 1.4336-4.325z" fill="#b8b8c7"/>
  <path d="m55.841 141.11c1.2541 0.50601 2.5096 1.01 3.7692 1.51l-0.63092-1.6062c3.2177 4.4666 4.1796 10.088 4.9935 15.412-5.542-3.1826-6.5962-9.6962-8.1318-15.315z" fill="none" stroke="#9794a1" stroke-miterlimit="10" stroke-width=".1"/>
  <path d="m55.841 141.11c1.2541 0.50601 2.5096 1.01 3.7692 1.51l-0.63092-1.6062c3.2177 4.4666 4.1796 10.088 4.9935 15.412-5.542-3.1826-6.5962-9.6962-8.1318-15.315z" fill="#9794a1"/>
  <path d="m114.62 144.79c4.1096-1.245 8.4135-0.3933 12.456 0.67399-1.6733 4.5345-0.3967 9.2704 0.94329 13.698-3.8378 0.1594-7.5974 1.1669-11.069 2.7892-5.4139 2.9152-11.085 5.4768-16.011 9.2001-0.96652 0.82087-1.8978 1.6824-2.8328 2.54 4.1205 5.1378 8.4455 10.147 11.9 15.777-1.5623 0.20389-3.1185 0.46913-4.6923 0.54208-1.0288-1.2479-1.869-2.631-2.7605-3.9707-1.7415-2.8315-4.105-5.1989-6.667-7.288 1.0469 2.4846 2.2354 4.9065 3.3954 7.3422-1.7454-0.72128-3.4946-1.4316-5.2001-2.2369-3.1583-2.1904-5.099-5.6266-6.8686-8.9417l4.2168-0.47905c-0.76891-3.3477-1.6645-6.9383-0.46642-10.295 1.321-3.4452 3.5509-6.4296 5.5065-9.5273 1.4788-2.1342 2.8943-4.636 5.4821-5.5612 4.1579-1.5935 8.3988-2.9921 12.667-4.2622z" fill="none" stroke="#33214a" stroke-miterlimit="10" stroke-width=".1"/>
  <path d="m114.62 144.79c4.1096-1.245 8.4135-0.3933 12.456 0.67399-1.6733 4.5345-0.3967 9.2704 0.94329 13.698-3.8378 0.1594-7.5974 1.1669-11.069 2.7892-5.4139 2.9152-11.085 5.4768-16.011 9.2001-0.96652 0.82087-1.8978 1.6824-2.8328 2.54 4.1205 5.1378 8.4455 10.147 11.9 15.777-1.5623 0.20389-3.1185 0.46913-4.6923 0.54208-1.0288-1.2479-1.869-2.631-2.7605-3.9707-1.7415-2.8315-4.105-5.1989-6.667-7.288 1.0469 2.4846 2.2354 4.9065 3.3954 7.3422-1.7454-0.72128-3.4946-1.4316-5.2001-2.2369-3.1583-2.1904-5.099-5.6266-6.8686-8.9417l4.2168-0.47905c-0.76891-3.3477-1.6645-6.9383-0.46642-10.295 1.321-3.4452 3.5509-6.4296 5.5065-9.5273 1.4788-2.1342 2.8943-4.636 5.4821-5.5612 4.1579-1.5935 8.3988-2.9921 12.667-4.2622z" fill="#33214a"/>
  <path d="m134.86 157.81c1.3199 5.0962 1.7857 10.423 3.8664 15.31 3.1896 7.9224 6.0572 16.208 6.024 24.856-0.09118 5.0524 1.6466 9.8434 2.5486 14.754l-4.8513-0.20024c0.8218-4.2458 1.334-8.5464 1.4713-12.868 0.27039-3.1059-0.29082-6.1932-0.99362-9.2026-2.1149 4.2334-3.1234 8.8772-3.987 13.498-2.444-4.6771-5.7891-8.9456-10.626-11.302-1.4834 1.2354-2.9188 2.562-4.6108 3.5138-2.1455 0.83962-5.031-0.72299-5.1-3.1342-0.45537-5.3905 1.1626-10.681 1.2743-16.055 0.21666-5.173-1.5026-10.13-2.9254-15.026 3.4719-1.6223 7.2315-2.6298 11.069-2.7892 2.3331 0.08335 4.657 0.33283 6.9898 0.46028l-0.14993-1.8138z" fill="none" stroke="#b8b8c7" stroke-miterlimit="10" stroke-width=".1"/>
  <path d="m134.86 157.81c1.3199 5.0962 1.7857 10.423 3.8664 15.31 3.1896 7.9224 6.0572 16.208 6.024 24.856-0.09118 5.0524 1.6466 9.8434 2.5486 14.754l-4.8513-0.20024c0.8218-4.2458 1.334-8.5464 1.4713-12.868 0.27039-3.1059-0.29082-6.1932-0.99362-9.2026-2.1149 4.2334-3.1234 8.8772-3.987 13.498-2.444-4.6771-5.7891-8.9456-10.626-11.302-1.4834 1.2354-2.9188 2.562-4.6108 3.5138-2.1455 0.83962-5.031-0.72299-5.1-3.1342-0.45537-5.3905 1.1626-10.681 1.2743-16.055 0.21666-5.173-1.5026-10.13-2.9254-15.026 3.4719-1.6223 7.2315-2.6298 11.069-2.7892 2.3331 0.08335 4.657 0.33283 6.9898 0.46028l-0.14993-1.8138z" fill="#b8b8c7"/>
  <path d="m100.94 171.16c4.9259-3.7234 10.597-6.285 16.011-9.2001 1.4228 4.8954 3.1421 9.8529 2.9254 15.026-0.11165 5.3739-1.7296 10.665-1.2743 16.055 0.06902 2.4112 2.9545 3.9738 5.1 3.1342 1.692-0.95175 3.1275-2.2784 4.6108-3.5138 4.8365 2.3564 8.1816 6.6249 10.626 11.302 0.86357-4.6205 1.8721-9.2642 3.987-13.498 0.7028 3.0094 1.264 6.0967 0.99362 9.2026-2.3005 4.452-3.4404 9.36-5.393 13.943-2.7765 3.5225-6.9389 5.6504-10.041 8.8862-2.6042-1.9722-5.5252-3.9491-6.6609-7.1732-2.3939-6.378-3.1843-13.205-4.5849-19.838-1.4405-6.8885-0.90073-13.95-0.82316-20.929-2.3841 2.3446-4.5908 7.8283-8.7082 5.8864-2.9541-2.5089-4.6806-6.0892-6.768-9.2844z" fill="none" stroke="#9794a1" stroke-miterlimit="10" stroke-width=".1"/>
  <path d="m100.94 171.16c4.9259-3.7234 10.597-6.285 16.011-9.2001 1.4228 4.8954 3.1421 9.8529 2.9254 15.026-0.11165 5.3739-1.7296 10.665-1.2743 16.055 0.06902 2.4112 2.9545 3.9738 5.1 3.1342 1.692-0.95175 3.1275-2.2784 4.6108-3.5138 4.8365 2.3564 8.1816 6.6249 10.626 11.302 0.86357-4.6205 1.8721-9.2642 3.987-13.498 0.7028 3.0094 1.264 6.0967 0.99362 9.2026-2.3005 4.452-3.4404 9.36-5.393 13.943-2.7765 3.5225-6.9389 5.6504-10.041 8.8862-2.6042-1.9722-5.5252-3.9491-6.6609-7.1732-2.3939-6.378-3.1843-13.205-4.5849-19.838-1.4405-6.8885-0.90073-13.95-0.82316-20.929-2.3841 2.3446-4.5908 7.8283-8.7082 5.8864-2.9541-2.5089-4.6806-6.0892-6.768-9.2844z" fill="#9794a1"/>
  <path d="m59.263 169.56c3.6167-0.32644 7.1746-1.0736 10.707-1.8932-0.79228 1.3918-1.614 2.7715-2.3231 4.2112 0.33324 1.1846 0.71425 2.3549 1.0795 3.5353l-2.6883-0.23542c-1.4438-0.16832-2.8773-0.40428-4.3114-0.62485 0.99167 1.9164 1.9617 3.8466 3.0417 5.7185-4.0087-2.0829-4.4293-6.8229-5.5056-10.711z" fill="none" stroke="#b8b8c7" stroke-miterlimit="10" stroke-width=".1"/>
  <path d="m59.263 169.56c3.6167-0.32644 7.1746-1.0736 10.707-1.8932-0.79228 1.3918-1.614 2.7715-2.3231 4.2112 0.33324 1.1846 0.71425 2.3549 1.0795 3.5353l-2.6883-0.23542c-1.4438-0.16832-2.8773-0.40428-4.3114-0.62485 0.99167 1.9164 1.9617 3.8466 3.0417 5.7185-4.0087-2.0829-4.4293-6.8229-5.5056-10.711z" fill="#b8b8c7"/>
  <path d="m98.106 173.7c0.93495-0.85761 1.8662-1.7191 2.8328-2.54 2.0873 3.1951 3.8138 6.7755 6.768 9.2844 4.1174 1.9418 6.3241-3.5419 8.7082-5.8864-0.07757 6.9784-0.61734 14.04 0.82316 20.929 1.4006 6.6327 2.191 13.46 4.5849 19.838 1.1356 3.224 4.0566 5.201 6.6609 7.1732 3.1018-3.2358 7.2642-5.3637 10.041-8.8862 1.9527-4.5832 3.0926-9.4911 5.393-13.943-0.13725 4.322-0.64947 8.6227-1.4713 12.868-0.52122 2.8305-0.69748 5.7065-0.84175 8.5784-0.97449 6.0958-3.6699 11.781-4.3141 17.947-0.53781 4.7872-2.212 9.3936-2.3168 14.238 4.0949-4.6757 2.2562-11.336 4.2889-16.806 1.8587-5.1231 4.7546-9.9289 5.1001-15.508 1.5019 1.6137 2.8033 3.3978 4.1125 5.1721l0.5816 0.78844c-3.1694 2.8404-6.2786 5.7804-8.8234 9.2111 2.7247 0.31712 5.4793 0.30225 8.191-0.13998l-0.55166 2.017c-1.48 5.5141-4.1934 10.623-5.5005 16.186-1.9724 10.49-5.9865 20.437-9.9457 30.302-2.7189 7.4374-5.9276 15.45-4.2899 23.482 0.35077 1.5204 0.75172 3.0356 1.1434 4.5529-3.0319 2.6635-5.3184 6.0102-7.1022 9.6079 4.5792 0.3088 9.3076 0.82171 13.25 3.3932l-2.5064 0.73095c-3.2145 0.07512-6.3738-0.68644-9.5812-0.75827-4.9072-0.26198-9.8268 0.39386-14.724-0.05519-2.4105-2.6803-2.3889-6.6851-0.95578-9.8311 3.1149-7.3459 4.2029-15.289 5.9044-23.026 1.0595-5.7921 2.5859-11.654 1.8624-17.583-0.40761-3.2915-0.9708-6.5598-1.4176-9.843-6.7877 8.5734-15.789 14.862-24.392 21.443-7.594 6.0758-14.609 13.236-18.928 22.056-2.9483 5.9727-6.1465 11.844-8.6177 18.039 1.821 0.94545 3.6384 1.8971 5.4496 2.8697-2.8803 1.9009-6.2047 1.3752-9.2971 0.37404 0.02011-1.2429 0.03618-2.4817 0.0482-3.7164 0.25795-3.7953 0.14803-7.6143-0.67702-11.337 3.6794 0.07015 7.3445-0.66671 10.382-2.8522-4.1723-2.2132-8.4872-4.1687-12.459-6.7408 3.1974-0.86421 7.9794 0.12714 9.6644-3.4065 1.4933-3.2603-2.9034-4.8999-4.3582-7.2033 0.28517-2.4994 1.8474-4.5776 3.31-6.5247 6.7874-7.0169 13.233-14.523 17.938-23.124 1.9887-4.9844 2.9624-10.993 7.9522-14.024 1.1376-0.37585 2.2894-0.70654 3.4389-1.045-1.1666 2.7477-1.4992 5.7425-0.46104 8.5924 3.2453-0.12107 6.6368-0.51941 9.7234 0.76832 1.7486 0.41903 3.6101 1.8398 5.4099 0.8147 4.0244-1.8525 7.6947-4.3726 11.599-6.4559 1.9636-1.2164 4.2185-2.2149 5.6241-4.1186 1.4479-2.7386 2.0057-5.8291 2.7638-8.803 1.3793 2.3857 3.1673 4.537 5.7017 5.7486-0.16513-1.8679-0.14092-3.7766-0.67827-5.5832-3.0135-2.7083-7.2129-3.147-11.064-3.5575-1.2454-1.3721-2.4807-2.7502-3.7049-4.1361-0.83728 1.8593-1.6675 3.7229-2.5039 5.5857-1.8693-0.28543-3.7381-0.5678-5.6048-0.8519-0.15595-1.288-0.31731-2.5722-0.48407-3.8526 1.6487 0.67861 3.3004 1.3524 4.9568 2.0217 0.02909-3.1361 0.48941-6.4321-0.75801-9.4078-1.4738-3.5239-3.2667-6.9051-4.7193-10.438l-1.6486 0.04686c-0.75876 0.89828-1.5148 1.8004-2.2683 2.7064-3.9379-6.517-3.5381-14.447-3.8003-21.777 0.05925-3.772 0.47818-7.5249 1.0057-11.255 0.89148 1.3397 1.7317 2.7228 2.7605 3.9707 1.5738-0.07295 3.13-0.33819 4.6923-0.54208-3.4546-5.6298-7.7796-10.639-11.9-15.777z" fill="none" stroke="#70687a" stroke-miterlimit="10" stroke-width=".1"/>
  <path d="m98.106 173.7c0.93495-0.85761 1.8662-1.7191 2.8328-2.54 2.0873 3.1951 3.8138 6.7755 6.768 9.2844 4.1174 1.9418 6.3241-3.5419 8.7082-5.8864-0.07757 6.9784-0.61734 14.04 0.82316 20.929 1.4006 6.6327 2.191 13.46 4.5849 19.838 1.1356 3.224 4.0566 5.201 6.6609 7.1732 3.1018-3.2358 7.2642-5.3637 10.041-8.8862 1.9527-4.5832 3.0926-9.4911 5.393-13.943-0.13725 4.322-0.64947 8.6227-1.4713 12.868-0.52122 2.8305-0.69748 5.7065-0.84175 8.5784-0.97449 6.0958-3.6699 11.781-4.3141 17.947-0.53781 4.7872-2.212 9.3936-2.3168 14.238 4.0949-4.6757 2.2562-11.336 4.2889-16.806 1.8587-5.1231 4.7546-9.9289 5.1001-15.508 1.5019 1.6137 2.8033 3.3978 4.1125 5.1721l0.5816 0.78844c-3.1694 2.8404-6.2786 5.7804-8.8234 9.2111 2.7247 0.31712 5.4793 0.30225 8.191-0.13998l-0.55166 2.017c-1.48 5.5141-4.1934 10.623-5.5005 16.186-1.9724 10.49-5.9865 20.437-9.9457 30.302-2.7189 7.4374-5.9276 15.45-4.2899 23.482 0.35077 1.5204 0.75172 3.0356 1.1434 4.5529-3.0319 2.6635-5.3184 6.0102-7.1022 9.6079 4.5792 0.3088 9.3076 0.82171 13.25 3.3932l-2.5064 0.73095c-3.2145 0.07512-6.3738-0.68644-9.5812-0.75827-4.9072-0.26198-9.8268 0.39386-14.724-0.05519-2.4105-2.6803-2.3889-6.6851-0.95578-9.8311 3.1149-7.3459 4.2029-15.289 5.9044-23.026 1.0595-5.7921 2.5859-11.654 1.8624-17.583-0.40761-3.2915-0.9708-6.5598-1.4176-9.843-6.7877 8.5734-15.789 14.862-24.392 21.443-7.594 6.0758-14.609 13.236-18.928 22.056-2.9483 5.9727-6.1465 11.844-8.6177 18.039 1.821 0.94545 3.6384 1.8971 5.4496 2.8697-2.8803 1.9009-6.2047 1.3752-9.2971 0.37404 0.02011-1.2429 0.03618-2.4817 0.0482-3.7164 0.25795-3.7953 0.14803-7.6143-0.67702-11.337 3.6794 0.07015 7.3445-0.66671 10.382-2.8522-4.1723-2.2132-8.4872-4.1687-12.459-6.7408 3.1974-0.86421 7.9794 0.12714 9.6644-3.4065 1.4933-3.2603-2.9034-4.8999-4.3582-7.2033 0.28517-2.4994 1.8474-4.5776 3.31-6.5247 6.7874-7.0169 13.233-14.523 17.938-23.124 1.9887-4.9844 2.9624-10.993 7.9522-14.024 1.1376-0.37585 2.2894-0.70654 3.4389-1.045-1.1666 2.7477-1.4992 5.7425-0.46104 8.5924 3.2453-0.12107 6.6368-0.51941 9.7234 0.76832 1.7486 0.41903 3.6101 1.8398 5.4099 0.8147 4.0244-1.8525 7.6947-4.3726 11.599-6.4559 1.9636-1.2164 4.2185-2.2149 5.6241-4.1186 1.4479-2.7386 2.0057-5.8291 2.7638-8.803 1.3793 2.3857 3.1673 4.537 5.7017 5.7486-0.16513-1.8679-0.14092-3.7766-0.67827-5.5832-3.0135-2.7083-7.2129-3.147-11.064-3.5575-1.2454-1.3721-2.4807-2.7502-3.7049-4.1361-0.83728 1.8593-1.6675 3.7229-2.5039 5.5857-1.8693-0.28543-3.7381-0.5678-5.6048-0.8519-0.15595-1.288-0.31731-2.5722-0.48407-3.8526 1.6487 0.67861 3.3004 1.3524 4.9568 2.0217 0.02909-3.1361 0.48941-6.4321-0.75801-9.4078-1.4738-3.5239-3.2667-6.9051-4.7193-10.438l-1.6486 0.04686c-0.75876 0.89828-1.5148 1.8004-2.2683 2.7064-3.9379-6.517-3.5381-14.447-3.8003-21.777 0.05925-3.772 0.47818-7.5249 1.0057-11.255 0.89148 1.3397 1.7317 2.7228 2.7605 3.9707 1.5738-0.07295 3.13-0.33819 4.6923-0.54208-3.4546-5.6298-7.7796-10.639-11.9-15.777z" fill="#70687a"/>
  <path d="m67.647 171.88c2.1866 0.12152 4.3748 0.20679 6.5637 0.30579l-0.08092 3.1982c-2.6981 0.10868-5.4091 0.14913-8.0916-0.20417l2.6883 0.23542c-0.36527-1.1804-0.74628-2.3506-1.0795-3.5353z" fill="none" stroke="#9794a1" stroke-miterlimit="10" stroke-width=".1"/>
  <path d="m67.647 171.88c2.1866 0.12152 4.3748 0.20679 6.5637 0.30579l-0.08092 3.1982c-2.6981 0.10868-5.4091 0.14913-8.0916-0.20417l2.6883 0.23542c-0.36527-1.1804-0.74628-2.3506-1.0795-3.5353z" fill="#9794a1"/>
  <path d="m95.887 178.76c2.562 2.089 4.9255 4.4565 6.667 7.288-0.52748 3.7299-0.94641 7.4829-1.0057 11.255-0.35207-2.2156-0.35283-4.5583-1.2978-6.6257-1.6914-2.5771-4.1372-4.5225-6.1682-6.8118 1.7056 0.80527 3.4547 1.5156 5.2001 2.2369-1.16-2.4357-2.3485-4.8576-3.3954-7.3422z" fill="none" stroke="#9794a1" stroke-miterlimit="10" stroke-width=".1"/>
  <path d="m95.887 178.76c2.562 2.089 4.9255 4.4565 6.667 7.288-0.52748 3.7299-0.94641 7.4829-1.0057 11.255-0.35207-2.2156-0.35283-4.5583-1.2978-6.6257-1.6914-2.5771-4.1372-4.5225-6.1682-6.8118 1.7056 0.80527 3.4547 1.5156 5.2001 2.2369-1.16-2.4357-2.3485-4.8576-3.3954-7.3422z" fill="#9794a1"/>
  <path d="m142.45 212.53 4.8513 0.20024c0.77399 4.432 1.2734 8.9125 1.1775 13.42-1.3092-1.7742-2.6106-3.5584-4.1125-5.1721-0.77573-0.62172-1.5592-1.2285-2.3503-1.8202l-0.40776 1.95c0.14427-2.8719 0.32053-5.7479 0.84175-8.5784z" fill="none" stroke="#9794a1" stroke-miterlimit="10" stroke-width=".1"/>
  <path d="m142.45 212.53 4.8513 0.20024c0.77399 4.432 1.2734 8.9125 1.1775 13.42-1.3092-1.7742-2.6106-3.5584-4.1125-5.1721-0.77573-0.62172-1.5592-1.2285-2.3503-1.8202l-0.40776 1.95c0.14427-2.8719 0.32053-5.7479 0.84175-8.5784z" fill="#9794a1"/>
  <path d="m107.62 216.37 1.6486-0.04686c1.4526 3.5324 3.2454 6.9137 4.7193 10.438 1.2474 2.9757 0.7871 6.2718 0.75801 9.4078-1.6564-0.66928-3.3082-1.343-4.9568-2.0217-0.66293-4.592-1.7582-9.1537-3.6604-13.398l-0.77695-1.6725c0.75342-0.90599 1.5095-1.8081 2.2683-2.7064z" fill="none" stroke="#33214a" stroke-miterlimit="10" stroke-width=".1"/>
  <path d="m107.62 216.37 1.6486-0.04686c1.4526 3.5324 3.2454 6.9137 4.7193 10.438 1.2474 2.9757 0.7871 6.2718 0.75801 9.4078-1.6564-0.66928-3.3082-1.343-4.9568-2.0217-0.66293-4.592-1.7582-9.1537-3.6604-13.398l-0.77695-1.6725c0.75342-0.90599 1.5095-1.8081 2.2683-2.7064z" fill="#33214a"/>
  <path d="m142.01 219.16c0.79112 0.59172 1.5745 1.1985 2.3503 1.8202-0.34554 5.5795-3.2414 10.385-5.1001 15.508-2.0327 5.4704-0.19397 12.13-4.2889 16.806 0.10483-4.8444 1.779-9.4508 2.3168-14.238 0.64427-6.1655 3.3396-11.851 4.3141-17.947l0.40776-1.95z" fill="none" stroke="#33214a" stroke-miterlimit="10" stroke-width=".1"/>
  <path d="m142.01 219.16c0.79112 0.59172 1.5745 1.1985 2.3503 1.8202-0.34554 5.5795-3.2414 10.385-5.1001 15.508-2.0327 5.4704-0.19397 12.13-4.2889 16.806 0.10483-4.8444 1.779-9.4508 2.3168-14.238 0.64427-6.1655 3.3396-11.851 4.3141-17.947l0.40776-1.95z" fill="#33214a"/>
  <path d="m106.13 220.75c1.9022 4.2442 2.9974 8.8059 3.6604 13.398 0.16676 1.2804 0.32812 2.5646 0.48407 3.8526l5.6048 0.8519c0.83637-1.8628 1.6666-3.7264 2.5039-5.5857 1.2242 1.3858 2.4595 2.764 3.7049 4.1361 3.8509 0.41052 8.0503 0.84928 11.064 3.5575 0.53735 1.8066 0.51314 3.7153 0.67827 5.5832-2.5344-1.2116-4.3224-3.3629-5.7017-5.7486-0.75805 2.9739-1.3159 6.0644-2.7638 8.803-1.4057 1.9037-3.6605 2.9022-5.6241 4.1186-3.9041 2.0833-7.5743 4.6034-11.599 6.4559-1.7998 1.0251-3.6613-0.39567-5.4099-0.8147-3.0866-1.2877-6.4781-0.88939-9.7234-0.76832-1.0382-2.8499-0.70555-5.8447 0.46104-8.5924-1.1495 0.33844-2.3013 0.66913-3.4389 1.045 1.6661-1.7257 3.4371-3.5203 5.7584-4.318 1.4215-0.26638 2.8539-0.47043 4.2863-0.67891-1.1198 4.2963-2.8896 8.3705-4.7 12.412 4.2895-2.7037 7.6187-6.7238 12.246-8.9197 2.9204 2.4948 6.3925 4.2949 10.291 4.5007 0.14717-4.6616-1.4062-9.0959-3.9873-12.926-2.5493 0.60555-5.1012 1.1974-7.6462 1.8181 0.55034-1.0005 1.1031-1.9978 1.6389-3.0013 3.5748-6.2303-2.4884-12.63-1.7878-19.179z" fill="none" stroke="#9794a1" stroke-miterlimit="10" stroke-width=".1"/>
  <path d="m106.13 220.75c1.9022 4.2442 2.9974 8.8059 3.6604 13.398 0.16676 1.2804 0.32812 2.5646 0.48407 3.8526l5.6048 0.8519c0.83637-1.8628 1.6666-3.7264 2.5039-5.5857 1.2242 1.3858 2.4595 2.764 3.7049 4.1361 3.8509 0.41052 8.0503 0.84928 11.064 3.5575 0.53735 1.8066 0.51314 3.7153 0.67827 5.5832-2.5344-1.2116-4.3224-3.3629-5.7017-5.7486-0.75805 2.9739-1.3159 6.0644-2.7638 8.803-1.4057 1.9037-3.6605 2.9022-5.6241 4.1186-3.9041 2.0833-7.5743 4.6034-11.599 6.4559-1.7998 1.0251-3.6613-0.39567-5.4099-0.8147-3.0866-1.2877-6.4781-0.88939-9.7234-0.76832-1.0382-2.8499-0.70555-5.8447 0.46104-8.5924-1.1495 0.33844-2.3013 0.66913-3.4389 1.045 1.6661-1.7257 3.4371-3.5203 5.7584-4.318 1.4215-0.26638 2.8539-0.47043 4.2863-0.67891-1.1198 4.2963-2.8896 8.3705-4.7 12.412 4.2895-2.7037 7.6187-6.7238 12.246-8.9197 2.9204 2.4948 6.3925 4.2949 10.291 4.5007 0.14717-4.6616-1.4062-9.0959-3.9873-12.926-2.5493 0.60555-5.1012 1.1974-7.6462 1.8181 0.55034-1.0005 1.1031-1.9978 1.6389-3.0013 3.5748-6.2303-2.4884-12.63-1.7878-19.179z" fill="#9794a1"/>
  <path d="m149.06 226.94c0.77866 3.7236 1.2131 7.822-1.184 11.088l0.55166-2.017c-2.7117 0.44223-5.4663 0.4571-8.191 0.13998 2.5448-3.4307 5.654-6.3707 8.8234-9.2111z" fill="none" stroke="#9794a1" stroke-miterlimit="10" stroke-width=".1"/>
  <path d="m149.06 226.94c0.77866 3.7236 1.2131 7.822-1.184 11.088l0.55166-2.017c-2.7117 0.44223-5.4663 0.4571-8.191 0.13998 2.5448-3.4307 5.654-6.3707 8.8234-9.2111z" fill="#9794a1"/>
  <path d="m95.784 246.72c3.6975-2.8318 7.8327-5.0229 12.129-6.7956-0.53579 1.0035-1.0885 2.0008-1.6389 3.0013 2.545-0.6207 5.0969-1.2125 7.6462-1.8181 2.581 3.8302 4.1345 8.2646 3.9873 12.926-3.8985-0.20581-7.3706-2.0059-10.291-4.5007-4.6273 2.1959-7.9565 6.216-12.246 8.9197 1.8104-4.0413 3.5802-8.1155 4.7-12.412-1.4324 0.20848-2.8648 0.41253-4.2863 0.67891z" fill="none" stroke="#b8b8c7" stroke-miterlimit="10" stroke-width=".1"/>
  <path d="m95.784 246.72c3.6975-2.8318 7.8327-5.0229 12.129-6.7956-0.53579 1.0035-1.0885 2.0008-1.6389 3.0013 2.545-0.6207 5.0969-1.2125 7.6462-1.8181 2.581 3.8302 4.1345 8.2646 3.9873 12.926-3.8985-0.20581-7.3706-2.0059-10.291-4.5007-4.6273 2.1959-7.9565 6.216-12.246 8.9197 1.8104-4.0413 3.5802-8.1155 4.7-12.412-1.4324 0.20848-2.8648 0.41253-4.2863 0.67891z" fill="#b8b8c7"/>
  <path d="m116.98 263.01c4.37-4.4986 9.6209-8.1688 15.295-10.837-1.8574 5.6953-7.1799 8.8975-10.744 13.384-1.595 2.0015-3.4939 3.7284-5.5837 5.2034-0.03586-2.5757-1.2171-5.7524 1.033-7.7505z" fill="none" stroke="#33214a" stroke-miterlimit="10" stroke-width=".1"/>
  <path d="m116.98 263.01c4.37-4.4986 9.6209-8.1688 15.295-10.837-1.8574 5.6953-7.1799 8.8975-10.744 13.384-1.595 2.0015-3.4939 3.7284-5.5837 5.2034-0.03586-2.5757-1.2171-5.7524 1.033-7.7505z" fill="#33214a"/>
  <path d="m56.93 293.97c2.2577-2.0987 4.8056-3.8507 7.2046-5.7776-1.4626 1.9471-3.0248 4.0253-3.31 6.5247 1.4548 2.3034 5.8515 3.943 4.3582 7.2033-1.685 3.5337-6.4669 2.5423-9.6644 3.4065 3.9716 2.572 8.2866 4.5276 12.459 6.7408-3.0376 2.1855-6.7027 2.9224-10.382 2.8522 0.82504 3.7227 0.93497 7.5418 0.67702 11.337-0.76746-1.9216-1.6544-3.7878-2.5024-5.6677-1.0501 1.6646-2.571 3.1959-2.9502 5.1861 0.05043 2.1764 0.83719 4.3771 2.2042 6.0807 1.589 0.49779 3.2536 0.67708 4.8943 0.93741l0.5368 2.6216c-3.984-0.10835-9.2518 0.98439-11.891-2.8643 2.1297-7.1336 1.4919-14.635 0.59151-21.919-0.9986-4.4365-1.7966-8.9783-0.96031-13.519 2.6683 5.1553 2.6403 11.012 3.5181 16.603 0.22916 1.9894 2.4576 2.6032 3.7916 3.738-1.027-7.8014-2.81-16.248 1.425-23.483z" fill="none" stroke="#9794a1" stroke-miterlimit="10" stroke-width=".1"/>
  <path d="m56.93 293.97c2.2577-2.0987 4.8056-3.8507 7.2046-5.7776-1.4626 1.9471-3.0248 4.0253-3.31 6.5247 1.4548 2.3034 5.8515 3.943 4.3582 7.2033-1.685 3.5337-6.4669 2.5423-9.6644 3.4065 3.9716 2.572 8.2866 4.5276 12.459 6.7408-3.0376 2.1855-6.7027 2.9224-10.382 2.8522 0.82504 3.7227 0.93497 7.5418 0.67702 11.337-0.76746-1.9216-1.6544-3.7878-2.5024-5.6677-1.0501 1.6646-2.571 3.1959-2.9502 5.1861 0.05043 2.1764 0.83719 4.3771 2.2042 6.0807 1.589 0.49779 3.2536 0.67708 4.8943 0.93741l0.5368 2.6216c-3.984-0.10835-9.2518 0.98439-11.891-2.8643 2.1297-7.1336 1.4919-14.635 0.59151-21.919-0.9986-4.4365-1.7966-8.9783-0.96031-13.519 2.6683 5.1553 2.6403 11.012 3.5181 16.603 0.22916 1.9894 2.4576 2.6032 3.7916 3.738-1.027-7.8014-2.81-16.248 1.425-23.483z" fill="#9794a1"/>
  <path d="m111.98 309.83c1.171-6.157 0.50353-13.169 4.7014-18.299l4.4564 3.4893c-1.9432 3.9871-4.3527 8.2502-3.6537 12.852 0.74731 3.0377 2.297 5.7965 3.4757 8.6804l-6.6843 1.2455c-1.3252-2.448-3.0272-5.05-2.2956-7.9682z" fill="none" stroke="#33214a" stroke-miterlimit="10" stroke-width=".1"/>
  <path d="m111.98 309.83c1.171-6.157 0.50353-13.169 4.7014-18.299l4.4564 3.4893c-1.9432 3.9871-4.3527 8.2502-3.6537 12.852 0.74731 3.0377 2.297 5.7965 3.4757 8.6804l-6.6843 1.2455c-1.3252-2.448-3.0272-5.05-2.2956-7.9682z" fill="#33214a"/>
  <path d="m48.196 297.11c2.5134-1.9737 5.5828-2.8854 8.7347-3.1419-4.235 7.2351-2.4521 15.682-1.425 23.483-1.334-1.1348-3.5624-1.7486-3.7916-3.738-0.87779-5.5915-0.84981-11.448-3.5181-16.603z" fill="none" stroke="#b8b8c7" stroke-miterlimit="10" stroke-width=".1"/>
  <path d="m48.196 297.11c2.5134-1.9737 5.5828-2.8854 8.7347-3.1419-4.235 7.2351-2.4521 15.682-1.425 23.483-1.334-1.1348-3.5624-1.7486-3.7916-3.738-0.87779-5.5915-0.84981-11.448-3.5181-16.603z" fill="#b8b8c7"/>
  <path d="m128.14 308c1.9302 2.4442 4.1137 4.6715 6.3912 6.7956-0.05774 2.158-0.39349 4.3608 0.03424 6.5031 0.68311 1.7074 2.0326 3.0358 3.1348 4.4835 1.1737-0.55661 2.3515-1.1037 3.5314-1.6465l3.1192 2.833c-1.8733 0.21796-3.742 0.46613-5.6177 0.63651-1.9955-0.13149-3.9175-0.71794-5.808-1.3204l2.5064-0.73095c-3.9427-2.5715-8.6711-3.0844-13.25-3.3932 1.7838-3.5977 4.0702-6.9444 7.1022-9.6079-0.3917-1.5173-0.79265-3.0325-1.1434-4.5529z" fill="none" stroke="#9794a1" stroke-miterlimit="10" stroke-width=".1"/>
  <path d="m128.14 308c1.9302 2.4442 4.1137 4.6715 6.3912 6.7956-0.05774 2.158-0.39349 4.3608 0.03424 6.5031 0.68311 1.7074 2.0326 3.0358 3.1348 4.4835 1.1737-0.55661 2.3515-1.1037 3.5314-1.6465l3.1192 2.833c-1.8733 0.21796-3.742 0.46613-5.6177 0.63651-1.9955-0.13149-3.9175-0.71794-5.808-1.3204l2.5064-0.73095c-3.9427-2.5715-8.6711-3.0844-13.25-3.3932 1.7838-3.5977 4.0702-6.9444 7.1022-9.6079-0.3917-1.5173-0.79265-3.0325-1.1434-4.5529z" fill="#9794a1"/>
  <path d="m134.53 314.8c3.5968 2.5073 7.3783 4.8756 11.735 5.7872 2.9841 0.55788 5.4769 2.3015 7.524 4.4803-3.8666 4.1324-10.007 4.075-15.057 2.5422 1.8757-0.17038 3.7444-0.41855 5.6177-0.63651l-3.1192-2.833c-1.1799 0.5428-2.3576 1.0899-3.5314 1.6465-1.1023-1.4477-2.4517-2.7761-3.1348-4.4835-0.42773-2.1424-0.09198-4.3451-0.03424-6.5031z" fill="none" stroke="#b8b8c7" stroke-miterlimit="10" stroke-width=".1"/>
  <path d="m134.53 314.8c3.5968 2.5073 7.3783 4.8756 11.735 5.7872 2.9841 0.55788 5.4769 2.3015 7.524 4.4803-3.8666 4.1324-10.007 4.075-15.057 2.5422 1.8757-0.17038 3.7444-0.41855 5.6177-0.63651l-3.1192-2.833c-1.1799 0.5428-2.3576 1.0899-3.5314 1.6465-1.1023-1.4477-2.4517-2.7761-3.1348-4.4835-0.42773-2.1424-0.09198-4.3451-0.03424-6.5031z" fill="#b8b8c7"/>
  <path d="m52.82 325.77c0.3792-1.9902 1.9001-3.5215 2.9502-5.1861 0.84799 1.8799 1.7349 3.7462 2.5024 5.6677-0.01202 1.2348-0.02809 2.4736-0.0482 3.7164 3.0924 1.0011 6.4168 1.5269 9.2971-0.37404 1.2757-0.87221 2.7322-0.27873 4.1111-0.11064-0.14856 0.85504-0.44571 2.5651-0.59427 3.4202-3.4856 1.0029-6.9989 1.9246-10.583 2.5061l-0.5368-2.6216c-1.6406-0.26033-3.3053-0.43962-4.8943-0.93741-1.3671-1.7036-2.1538-3.9043-2.2042-6.0807z" fill="none" stroke="#b8b8c7" stroke-miterlimit="10" stroke-width=".1"/>
  <path d="m52.82 325.77c0.3792-1.9902 1.9001-3.5215 2.9502-5.1861 0.84799 1.8799 1.7349 3.7462 2.5024 5.6677-0.01202 1.2348-0.02809 2.4736-0.0482 3.7164 3.0924 1.0011 6.4168 1.5269 9.2971-0.37404 1.2757-0.87221 2.7322-0.27873 4.1111-0.11064-0.14856 0.85504-0.44571 2.5651-0.59427 3.4202-3.4856 1.0029-6.9989 1.9246-10.583 2.5061l-0.5368-2.6216c-1.6406-0.26033-3.3053-0.43962-4.8943-0.93741-1.3671-1.7036-2.1538-3.9043-2.2042-6.0807z" fill="#b8b8c7"/>
 </g>
</svg>
