<?xml version="1.0" encoding="UTF-8"?>
<svg viewBox="0 0 1600 1200" xmlns="http://www.w3.org/2000/svg">
 <g fill="#fff" fill-rule="evenodd" stroke="#000" stroke-width="2">
  <path d="m449.04 63.68l37.372 3.4604 2.7683 2.0762c1.8455 1.3841 6.9207 3.4604 15.226 6.2286 8.3049 2.7683 16.148 4.3831 23.53 4.8445l11.073 0.6921v1.3841c0 0.92275 3.6911 2.5376 11.073 4.8445 7.3821 2.3069 15.226 6.2287 23.53 11.765 8.3049 5.5366 14.764 9.9197 19.378 13.149l6.9207 4.8445 3.4604 6.9207c2.3069 4.6138 4.1525 8.7663 5.5366 12.457l2.0762 5.5366-0.692 6.9207c-0.46143 4.6138-2.5377 9.2277-6.2287 13.842-3.691 4.6138-8.5355 8.3049-14.534 11.073l-8.9969 4.1524-5.5366-0.6921c-3.691-0.46136-9.2276-4.8445-16.61-13.149-7.3821-8.3049-13.38-13.842-17.994-16.61-4.6138-2.7683-10.15-6.2286-16.61-10.381l-9.689-6.2287-13.842-4.1524-13.842-4.1524v-2.7683l-6.9207-2.0762c-4.6138-1.3841-12.457-1.6148-23.53-0.69207-11.073 0.92274-17.532 1.6148-19.378 2.0762l-2.7683 0.6921v-1.3842c0-0.92275-26.299-2.5376-78.896-4.8445-52.598-2.3069-94.583-3.9218-125.96-4.8445-31.374-0.92275-58.134-0.69207-80.28 0.69207l-33.22 2.0762-6.2287-22.146-6.2287-22.146 8.9969-11.765 8.997-11.765 15.226-1.3841c10.15-0.92275 17.994-0.4614 23.53 1.3842 5.5366 1.8455 48.906 5.0752 130.11 9.689 81.203 4.6138 134.26 8.0742 159.18 10.381z"/>
  <path d="m950.1 127.35l-37.372 0.6921-23.53 6.2287c-15.687 4.1524-25.145 6.9207-28.375 8.3049l-4.8445 2.0762-0.6921 1.3842-0.6921 1.3841-11.073-0.6921c-7.3821-0.46136-18.455 2.999-33.22 10.381-14.764 7.3821-26.299 12.227-34.604 14.534-8.3049 2.3069-12.457 3.9217-12.457 4.8445v1.3841l-5.5366-2.0762c-3.691-1.3841-9.2277-4.8445-16.61-10.381-7.382-5.5366-11.996-12.227-13.841-20.07l-2.7683-11.765h1.3842c0.92273 0 1.8456-1.8456 2.7683-5.5366l1.3841-5.5366 9.6891-6.2287c6.4594-4.1524 19.378-8.997 38.756-14.534 19.378-5.5366 32.297-8.997 38.756-10.381l9.689-2.0762h2.7683c1.8455 0 2.7683 0.92275 2.7683 2.7683 0 1.8455 5.9979 1.1535 17.994-2.0762l17.994-4.8445-1.3842-2.0762-1.3841-2.0762 81.665-14.534c54.443-9.689 104.27-16.84 149.49-21.454 45.216-4.6138 80.05-4.8445 104.5-0.69208l36.68 6.2287-6.9208 19.378c-4.6138 12.919-8.997 20.993-13.149 24.223l-6.2285 4.8445-12.457 1.3841c-8.3049 0.92275-27.222 1.3842-56.75 1.3842s-62.748 4.1524-99.659 12.457c-36.91 8.3049-67.823 12.688-92.738 13.149z"/>
  <path d="m486.41 121.12v1.3842l-1.3842 9.689-1.3841 9.689-2.0762-1.3842c-1.3842-0.92279-1.6148 3.6911-0.69208 13.842 0.92276 10.15 2.999 17.302 6.2287 21.454 3.2297 4.1524 6.6901 6.9207 10.381 8.3049l5.5366 2.0762v9.689c0 6.4594-0.92276 9.689-2.7683 9.689-1.8456 0-2.7683 2.5376-2.7683 7.6128s-1.8455 8.7662-5.5365 11.073l-5.5366 3.4604-8.3049-0.6921c-5.5366-0.46135-10.381-2.3069-14.534-5.5366-4.1524-3.2296-8.3049-5.7673-12.457-7.6128l-6.2287-2.7683-0.6921-5.5366c-0.4614-3.6911-1.6148-6.4594-3.4604-8.3049-1.8455-1.8455-2.5376-5.9979-2.0762-12.457 0.4614-6.4594-0.23068-9.689-2.0762-9.689-1.8456 0-2.7683-1.8455-2.7683-5.5366v-5.5366h-2.7683c-1.8455 0-2.7683-0.46135-2.7683-1.3841v-1.3842l-0.692-16.61c-0.46143-11.073-0.23071-17.532 0.69205-19.378l1.3842-2.7683 2.0762-1.3841 2.0762-1.3841 2.7683-0.6921c1.8455-0.4614 8.3049-1.1535 19.378-2.0762 11.073-0.92275 18.917-0.69207 23.53 0.69207l6.9207 2.0762v1.3841z"/>
  <path d="m599.22 57.451l0.6921 1.3841-2.0762 4.1524c-1.3842 2.7683-3.691 7.8435-6.9208 15.226-3.2297 7.3821-5.7672 11.073-7.6128 11.073h-2.7682l-8.3049-3.4604c-5.5366-2.3069-12.457-4.1524-20.762-5.5366-8.3049-1.3842-12.457-1.6148-12.457-0.69208v1.3842l-11.073-0.6921c-7.3821-0.4614-15.226-2.0762-23.53-4.8445-8.3049-2.7683-13.38-4.8445-15.226-6.2286l-2.7683-2.0762 6.9207-11.765c4.6139-7.8435 7.8435-12.227 9.6891-13.149 1.8456-0.92275 5.5366-1.6148 11.073-2.0762 5.5366-0.46139 9.2276-2.3069 11.073-5.5366 1.8456-3.2297 5.5366-4.8445 11.073-4.8445h8.3049l6.9208 9.689c4.6138 6.4594 7.8435 10.15 9.689 11.073 1.8456 0.92275 8.5355 2.0762 20.07 3.4604 11.534 1.3841 17.532 2.5376 17.994 3.4604z"/>
  <path d="m858.05 72.677l7.6129 8.3049 1.3841 2.0762 1.3842 2.0762-17.994 4.8445c-11.996 3.2297-17.994 3.9218-17.994 2.0762 0-1.8455-0.92279-2.7683-2.7683-2.7683h-2.7683l-9.689-4.8445c-6.4594-3.2297-15.226-5.3059-26.299-6.2287-11.073-0.92275-17.763-0.69208-20.07 0.69207s-6.4594 3.4604-12.457 6.2286l-8.9969 4.1524-4.1525-0.6921c-2.7683-0.4614-4.8445-1.3842-6.2286-2.7683l-2.0762-2.0762-2.0762-13.842-2.0762-13.842 0.6921-1.3841 0.6921-1.3841 0.6921-0.6921c0.46136-0.4614 6.2286-1.1535 17.302-2.0762l16.61-1.3841 6.2286-6.2287c4.1524-4.1524 6.9207-7.8435 8.3049-11.073l2.0762-4.8445 10.381 0.6921c6.9207 0.46139 11.073 1.8455 12.457 4.1524 1.3842 2.3069 5.7673 3.691 13.149 4.1524l11.073 0.6921 3.4603 6.9207c2.307 4.6138 5.3058 9.2276 8.997 13.842 3.691 4.6138 8.0742 9.689 13.149 15.226z"/>
  <path d="m889.2 134.27l23.53-6.2287-0.6921 1.3842c-0.46143 0.92274-1.3842 5.5366-2.7683 13.841l-2.0762 12.457h-5.5366l-2.0762 16.61-2.0762 16.61-3.4603 5.5366-3.4604 5.5366-1.3842 2.0762c-0.92279 1.3841-4.6138 4.3832-11.073 8.997-6.4594 4.6138-12.919 8.0742-19.378 10.381l-9.689 3.4604-5.5366-4.8445c-3.6911-3.2296-5.5366-7.3821-5.5366-12.457 0-5.0752-0.92279-7.6128-2.7683-7.6128s-2.7682-3.2297-2.7682-9.689v-9.689l6.2286-2.7683c4.1525-1.8455 7.6128-4.6138 10.381-8.3049s4.3832-8.3049 4.8445-13.842l0.6921-8.3049 0.6921-1.3841 0.6921-1.3842 4.8445-2.0762c3.2296-1.3841 12.688-4.1524 28.375-8.3049z"/>
  <path d="m615.13 601.42l1.3842-2.7682 6.2287 8.3048c4.1525 5.5366 6.6901 9.6891 7.6128 12.457l1.3842 4.1525-2.0762 12.457-2.0762 12.457-9.6891 5.5366c-6.4593 3.6911-9.9196 8.7664-10.381 15.226l-0.6921 9.689 1.3842-1.3842c0.92273-0.92279 2.0762 0.69208 3.4603 4.8445 1.3842 4.1525 4.8445 4.1525 10.381 0l8.3049-6.2286h16.61l0.6921 11.073c0.46149 7.3821-1.3842 15.687-5.5366 24.915l-6.2287 13.842-20.07 26.299c-13.38 17.532-25.837 34.834-37.372 51.906l-17.302 25.607 5.5366 3.4604c3.6911 2.3069 4.3831 11.765 2.0762 28.375l-3.4603 24.915-29.067 37.372c-19.378 24.915-40.14 54.904-62.287 89.97-22.146 35.065-49.137 68.977-80.973 101.74-31.835 32.758-55.596 51.444-71.284 56.058-15.687 4.6136-27.683 7.1514-35.988 7.6128l-12.457 0.692 2.7683-1.3842c1.8455-0.92285 2.999-2.7683 3.4604-5.5365 0.46133-2.7683 3.2296-5.7673 8.3049-8.9971 5.0752-3.2296 8.3049-8.7662 9.689-16.61 1.3841-7.8435 2.3069-11.996 2.7683-12.457 0.4614-0.4613 0.69208-1.8455 0.69208-4.1525v-3.4603l4.1524-0.692c2.7683-0.46143 8.3049-2.0763 16.61-4.8446 8.3049-2.7683 15.687-6.4594 22.146-11.073l9.689-6.9208-13.842 1.3842c-9.2276 0.92273-14.303 0.23071-15.226-2.0763l-1.3842-3.4603 8.997-8.3049c5.998-5.5365 10.842-12.919 14.534-22.146 3.6911-9.2277 6.4594-15.687 8.3049-19.378 1.8455-3.6912 3.9218-7.3821 6.2286-11.073l3.4604-5.5366 33.22-13.149c22.146-8.7663 35.296-15.687 39.448-20.762l6.2286-7.6127v-2.7683c0-1.8455-5.7673-3.2297-17.302-4.1525l-17.302-1.3842h-4.1524c-2.7683 0-3.9218-2.7683-3.4604-8.3049s1.6148-11.535 3.4604-17.994c1.8456-6.4594 4.3831-10.842 7.6128-13.149l4.8445-3.4604-1.3841-0.6921-1.3842-0.6921 12.457-6.2286c8.3049-4.1524 15.918-8.7662 22.838-13.842 6.9207-5.0752 12.227-9.9197 15.918-14.534 3.691-4.6138 6.6901-9.689 8.997-15.226l3.4603-8.3048h-38.756l-2.0762-1.3842-2.0762-1.3842 4.1524-8.3049c2.7683-5.5365 3.4604-13.38 2.0762-23.53l-2.0762-15.226 17.994-3.4604 17.994-3.4604 20.762-19.378c13.842-12.919 21.685-23.3 23.53-31.143l2.7682-11.765-16.61 7.6129c-11.073 5.0752-19.839 8.7662-26.299 11.073l-9.689 3.4604-2.0762-4.1525c-1.3842-2.7683-0.69208-7.8435 2.0762-15.226 2.7683-7.3821 4.6138-14.764 5.5366-22.146l1.3842-11.073-2.0762-1.3842-2.0762-1.3842 20.762-10.381c13.842-6.9207 23.3-11.996 28.375-15.226 5.0752-3.2296 8.7664-7.6127 11.073-13.149l3.4603-8.3049-19.378 2.7683-19.378 2.7683v-2.7684l2.0762-4.1524c1.3841-2.7683 3.691-5.7673 6.9208-8.997 3.2297-3.2297 5.5366-7.8434 6.9208-13.842 1.3842-5.998 2.7683-11.765 4.1524-17.302l2.0762-8.3049 1.3841-0.6921c0.92279-0.46143 11.073-2.5377 30.451-6.2286 19.378-3.691 34.604-8.0742 45.677-13.149 11.073-5.0752 17.071-8.5355 17.994-10.381z"/>
  <path d="m514.09 186.18h11.073l22.146 1.3841 22.146 1.3842v2.7682l0.6921 1.3842c0.46149 0.92279 0 8.997-1.3842 24.223-1.3841 15.226-2.5377 23.53-3.4603 24.915l-1.3842 2.0762-4.1524-2.0762c-2.7683-1.3841-15.687-3.6911-38.756-6.9207l-34.604-4.8445v-2.7683l5.5366-3.4604c3.691-2.307 5.5365-5.9979 5.5365-11.073 0-5.0752 0.92276-7.6128 2.7683-7.6128s2.7683-3.2297 2.7683-9.689v-9.689h11.073z"/>
  <path d="m566.69 271.3l11.073 0.6921 1.3842 0.6921 1.3842 0.6921 1.3842 3.4604c0.92267 2.3069 2.3069 3.4604 4.1524 3.4604s3.9218 2.3069 6.2286 6.9207c2.3069 4.6138 4.6139 9.2276 6.9207 13.842l3.4604 6.9207h2.7684l-2.7683 15.918-2.7683 15.918-4.1524 0.692-4.1525 0.6921-16.61-7.6128c-11.073-5.0752-22.146-8.7663-33.22-11.073l-16.61-3.4604 0.6921-4.1524c0.46136-2.7683 2.5377-5.998 6.2287-9.689s6.9207-7.8435 9.689-12.457c2.7683-4.6138 4.8445-8.5355 6.2287-11.765l2.0762-4.8445-1.3842-2.0762-1.3842-2.0762 4.1525-0.6921c2.7682-0.4614 7.8435-0.4614 15.226 0z"/>
  <path d="m550.08 397.95v-1.3842l6.9207 2.0762c4.6139 1.3841 13.38 2.3069 26.299 2.7682l19.378 0.6921 4.8445 9.689c3.2297 6.4594 4.1524 15.687 2.7683 27.683l-2.0762 17.994-2.7683 1.3841-2.7683 1.3842-2.0762-1.3842c-1.3842-0.92273-11.996-2.0762-31.835-3.4603-19.84-1.3842-31.143-2.3069-33.912-2.7683l-4.1525-0.6921-2.0762-15.226c-1.3842-10.15-1.3842-17.071 0-20.762s3.4604-6.2287 6.2287-7.6128c2.7682-1.3842 5.9979-3.2297 9.689-5.5366s5.5366-3.9218 5.5366-4.8445z"/>
  <path d="m539.7 518.37l-3.4604-8.3048 33.22 1.3841 33.22 1.3841v2.7684l8.3049 3.4604c5.5366 2.3069 8.5355 3.691 8.997 4.1524 0.46143 0.46143 0 5.998-1.3842 16.61s-2.3068 16.148-2.7683 16.61c-0.46143 0.46143-0.92267 2.0762-1.3841 4.8445l-0.6921 4.1525-2.0762-1.3842c-1.3841-0.92273-4.6138-1.1534-9.689-0.69208-5.0751 0.46143-13.611 1.1534-25.607 2.0762-11.996 0.92273-22.146 1.6148-30.451 2.0762l-12.457 0.6921v-4.1525c0-2.7683 0.92273-4.1525 2.7682-4.1525 1.8456 0 3.4604-5.5366 4.8445-16.61 1.3842-11.073 0.92273-19.378-1.3841-24.915z"/>
  <path d="m597.83 62.988l2.0762-4.1524 1.3842 2.7683c0.92273 1.8456 2.7683 2.999 5.5366 3.4604s4.383 0.92275 4.8445 1.3842l0.6921 0.6921 1.3842 11.073c0.92279 7.3821 0.23059 11.535-2.0762 12.457-2.3068 0.92275-3.4603 2.7683-3.4603 5.5366s-0.92273 3.9218-2.7683 3.4604l-2.7683-0.6921-9.689-0.6921c-6.4593-0.4614-10.15-2.0762-11.073-4.8445l-1.3842-4.1524h2.7682c1.8456 0 4.3831-3.691 7.6128-11.073 3.2297-7.3821 5.5366-12.457 6.9208-15.226z"/>
  <path d="m729.33 119.74l0.6921 2.7683-1.3841 5.5366c-0.92267 3.691-1.8456 5.5366-2.7683 5.5366h-1.3842l-19.378 7.6128c-12.919 5.0752-25.837 8.0741-38.756 8.997-12.919 0.92279-22.608 0-29.067-2.7683-6.4592-2.7683-11.996-4.6138-16.61-5.5366l-6.9207-1.3842-1.3842 0.6921-1.3842 0.6921-2.0762-5.5366c-1.3842-3.691-3.2297-7.8435-5.5366-12.457l-3.4604-6.9207 2.7683-6.2287c1.8456-4.1524 4.6139-7.1514 8.3049-8.997 3.6911-1.8456 15.687-2.3069 35.988-1.3842 20.301 0.92275 37.603 2.5376 51.906 4.8445s22.838 4.8445 25.607 7.6128l4.1525 4.1524 0.692 2.7683z"/>
  <path d="m723.79 600.04l6.2286-4.1525 11.073 2.0762c7.3821 1.3842 18.455 4.3831 33.22 8.9969 14.764 4.6139 29.528 8.0742 44.293 10.381l22.146 3.4604 2.7683 15.918c1.8455 10.612 3.4604 16.61 4.8445 17.994 1.3842 1.3842 2.307 3.9218 2.7683 7.6128 0.46136 3.691 1.6149 5.5366 3.4603 5.5366h2.7683v2.7684l-17.994 4.1525-17.994 4.1524 2.7682 7.6128c1.8455 5.0752 8.3049 12.227 19.378 21.454 11.073 9.2277 20.762 16.379 29.067 21.454l12.457 7.6129-2.0762 1.3842-2.0762 1.3842 2.0762 11.765c1.3842 7.8435 2.7683 13.38 4.1525 16.61 1.3842 3.2296 1.3842 6.69 0 10.381l-2.0762 5.5366-12.457-3.4604c-8.3048-2.3069-16.84-5.0752-25.607-8.3049-8.7663-3.2297-13.38-4.6138-13.842-4.1524l-0.6921 0.6921 2.0762 4.8445c1.3841 3.2297 3.9217 7.1515 7.6128 11.765 3.691 4.6138 7.1514 9.2277 10.381 13.841 3.2297 4.6138 8.997 8.0742 17.302 10.381 8.3049 2.307 15.226 4.1525 20.762 5.5366l8.3048 2.0762v2.7683l-3.4603 5.5366c-2.307 3.6912-3.9217 7.3821-4.8445 11.073-0.92285 3.691 0.92279 8.7662 5.5366 15.226 4.6138 6.4594 7.8436 10.612 9.689 12.457 1.8455 1.8455 2.999 4.6138 3.4604 8.3048l0.6921 5.5366-5.5366 0.6921c-3.691 0.4613-14.534-3.2296-32.528-11.073l-26.991-11.765v1.3842c0 0.92279 1.6148 5.3058 4.8445 13.149 3.2297 7.8436 7.8436 14.764 13.842 20.762 5.9979 5.998 14.764 13.842 26.299 23.53 11.534 9.689 20.531 15.918 26.991 18.686 6.4594 2.7683 12.457 4.8445 17.994 6.2286l8.3049 2.0762-2.0762 6.9207c-1.3842 4.6138-0.46143 9.9198 2.7682 15.918 3.2297 5.998 8.7662 11.996 16.61 17.994 7.8435 5.9979 11.996 9.9197 12.457 11.765l0.6921 2.7682v2.7684l-20.762 2.0762-20.762 2.0762 5.5366 5.5366c3.691 3.691 9.2277 8.3049 16.61 13.842 7.3821 5.5366 16.148 10.612 26.299 15.226 10.15 4.6136 18.917 7.1514 26.299 7.6127l11.073 0.6921v1.3842c0 0.92285 1.3842 1.3842 4.1525 1.3842h4.1523l2.7683 14.534c1.8455 9.689 3.9218 16.148 6.2286 19.378 2.3069 3.2296 3.691 7.1514 4.1525 11.765l0.692 6.9208-8.3048 0.692c-5.5366 0.46143-12.688-0.4613-21.454-2.7683l-13.149-3.4603 2.0762 6.2286c1.3842 4.1525 5.7673 10.612 13.149 19.378l11.073 13.149h-2.7683l-0.6921 5.5365c-0.46143 3.6912-0.23084 8.7662 0.69208 15.226 0.92273 6.4594 2.5375 13.38 4.8444 20.762l3.4604 11.073-8.3048-2.0762c-5.5366-1.3842-17.994-11.765-37.372-31.143s-39.91-41.755-61.594-67.131c-21.685-25.376-36.218-46.83-43.601-64.363-7.3821-17.533-17.302-34.834-29.759-51.906-12.457-17.071-25.837-35.526-40.14-55.366-14.303-19.839-24.915-35.988-31.835-48.445l-10.381-18.686 0.6921-0.6921c0.4613-0.46136-0.23077-7.6128-2.0762-21.454-1.8455-13.841-13.149-37.372-33.912-70.591l-31.143-49.829-2.7683-5.5366c-1.8455-3.691-3.691-5.7673-5.5366-6.2286-1.8455-0.46143-2.999-1.8456-3.4604-4.1525l-0.6921-3.4604 1.3842-4.1525c0.92279-2.7682 4.3831-4.8445 10.381-6.2286 5.998-1.3841 9.2275-2.307 9.689-2.7682 0.46143-0.46136 1.8456-2.9991 4.1524-7.6128l3.4604-6.9207v-2.7684l6.9208 1.3842c4.6139 0.92279 7.1514 2.3069 7.6127 4.1525 0.46136 1.8456 2.307 3.4603 5.5366 4.8445 3.2297 1.3842 5.5366 3.2297 6.9207 5.5366 1.3842 2.3069 3.6911 4.1524 6.9208 5.5366 3.2296 1.3842 6.69 3.2297 10.381 5.5366 3.6912 2.307 5.3058 2.0762 4.8445-0.69208l-0.6921-4.1524-1.3842-4.1524c-0.92279-2.7683-6.2287-9.9197-15.918-21.454-9.689-11.534-16.379-18.455-20.07-20.762-3.691-2.3069-5.5366-3.9218-5.5366-4.8445v-1.3842l-4.1525-3.4604c-2.7683-2.3069-3.9218-4.6138-3.4604-6.9207l0.6921-3.4604 1.3842-4.1525c0.92285-2.7682 3.4604-5.5366 7.6128-8.3048z"/>
  <path d="m731.4 56.067h1.3842l2.0762 13.842 2.0762 13.842 2.0762 2.0762c1.3842 1.3842 3.4603 2.3069 6.2286 2.7683l4.1525 0.6921v2.7683c0 1.8455-4.1525 3.2297-12.457 4.1524-8.3049 0.92274-12.688 0.46139-13.149-1.3842-0.46149-1.8455-1.8456-3.2297-4.1525-4.1524-2.3069-0.92274-3.2297-4.1524-2.7683-9.689 0.46143-5.5366 1.3842-10.15 2.7683-13.842 1.3842-3.691 3.4604-5.5366 6.2286-5.5366 2.7683 0 4.1524-0.92275 4.1524-2.7683 0-1.8455 0.46143-2.7683 1.3842-2.7683z"/>
  <path d="m735.55 414.56v-4.1524l30.451 2.7683 30.451 2.7683v1.3841c0 0.92276 0.92279 1.3842 2.7683 1.3842s3.4603 1.8456 4.8444 5.5366c1.3842 3.691 1.8456 10.15 1.3842 19.378l-0.6921 13.842-4.1524 2.0762c-2.7682 1.3842-14.303 2.5376-34.604 3.4604-20.301 0.92276-31.374 2.0762-33.22 3.4604l-2.7683 2.0762h-2.7683l-2.0762-6.9207c-1.3841-4.6138-2.5376-9.2276-3.4603-13.842l-1.3842-6.9207 2.7683-8.3049c1.8456-5.5366 4.3831-9.2276 7.6127-11.073l4.8445-2.7683v-4.1524z"/>
  <path d="m804.76 509.38l2.7683 0.6921 2.0762 4.1524c1.3842 2.7683 2.307 8.997 2.7683 18.686s-0.23077 15.687-2.0762 17.994l-2.7683 3.4603-24.915 2.0762c-16.61 1.3842-26.76 2.5376-30.451 3.4603-3.6912 0.92279-8.3049 2.0762-13.842 3.4604l-8.3049 2.0762-3.4603-17.994c-2.3068-11.996-3.691-18.225-4.1524-18.686l-0.6921-0.6921 0.6921-0.6921c0.46143-0.46136 1.6148-0.69208 3.4603-0.69208 1.8456 0 3.9218-2.7683 6.2286-8.3049l3.4604-8.3048 33.22-0.6921c22.146-0.46146 34.142-0.46146 35.988 0z"/>
  <path d="m782.62 282.38l13.842-2.0762-0.6921 4.1524-0.6921 4.1525 0.6921 8.9969c0.4613 5.998 3.2296 10.612 8.3048 13.842 5.0753 3.2297 9.2277 7.6128 12.457 13.149l4.8445 8.3049-23.53 3.4604c-15.687 2.3069-24.915 3.9218-27.683 4.8445-2.7683 0.92276-7.3821 2.5376-13.842 4.8445l-9.689 3.4604v-2.7684l-4.1525-0.6921c-2.7682-0.46136-4.8445-1.8455-6.2286-4.1524-1.3842-2.3069-2.5375-8.0742-3.4604-17.302-0.92279-9.2276-0.69208-16.148 0.69208-20.762l2.0762-6.9207h5.5365l1.3842-5.5366 1.3842-5.5366 1.3842 0.6921c0.92279 0.4614 5.0753 0.23068 12.457-0.69208 7.3821-0.92273 15.687-2.0762 24.915-3.4604z"/>
  <path d="m824.14 182.72l8.3049-2.0762v9.689c0 6.4594 0.92279 9.689 2.7682 9.689 1.8455 0 2.7683 2.5376 2.7683 7.6128s1.8455 9.2277 5.5366 12.457l5.5366 4.8445-29.067 7.6128c-19.378 5.0752-33.681 9.2276-42.909 12.457l-13.841 4.8445 0.6921-19.378c0.46136-12.919 2.307-23.069 5.5366-30.451l4.8445-11.073 20.762-2.0762c13.841-1.3841 23.53-2.7683 29.067-4.1524z"/>
  <path d="m705.1 141.19l19.378-7.6128 2.7683 11.765c1.8456 7.8435 6.4594 14.534 13.841 20.07 7.3821 5.5366 12.919 8.997 16.61 10.381l5.5366 2.0762 3.4604 2.7683c2.3069 1.8455 4.1525 3.6911 5.5366 5.5366l2.0762 2.7683-4.8445 11.073c-3.2297 7.3821-5.0753 17.532-5.5366 30.451l-0.6921 19.378-3.4604 8.3049c-2.3069 5.5366-5.5366 11.535-9.689 17.994l-6.2287 9.689-1.3842 5.5366-1.3842 5.5366h-5.5365l-13.841-6.2287c-9.2276-4.1524-23.992-6.69-44.293-7.6128-20.301-0.92273-35.988 0.92279-47.061 5.5366s-17.532 8.997-19.378 13.149c-1.8455 4.1524-3.2297 6.2286-4.1524 6.2286h-4.1526l-3.4604-6.9207c-2.3068-4.6138-4.6138-9.2276-6.9207-13.842-2.3069-4.6138-4.3831-6.9207-6.2286-6.9207s-3.2297-1.1535-4.1524-3.4604l-1.3842-3.4604-1.3842-0.6921-1.3842-0.6921-2.0762-2.7683c-1.3842-1.8455-3.691-4.8445-6.9208-8.997l-4.8445-6.2286 2.0762-2.0762c1.3842-1.3842 1.3842-2.999 0-4.8445l-2.0762-2.7683 1.3842-2.0762c0.92267-1.3841 2.0762-9.689 3.4603-24.915 1.3842-15.226 1.8456-23.3 1.3842-24.223l-0.6921-1.3842h1.3842c0.92273 0 1.8456-1.3841 2.7683-4.1524l1.3842-4.1524 2.7683-2.7683 2.7683-2.7683 8.9969-4.1524c5.998-2.7683 10.843-6.4594 14.534-11.073 3.691-4.6138 5.7673-9.2277 6.2287-13.842l0.692-6.9207 1.3842-0.6921 1.3842-0.6921 6.9207 1.3842c4.6139 0.92278 10.15 2.7683 16.61 5.5366 6.4593 2.7683 16.148 3.6911 29.067 2.7683 12.919-0.92281 25.838-3.9217 38.756-8.997z"/>
  <path d="m721.71 290.68l13.841 6.2287-2.0762 6.9207c-1.3842 4.6138-1.6149 11.534-0.69208 20.762 0.92285 9.2276 2.0762 14.995 3.4604 17.302 1.3842 2.3069 3.4604 3.6911 6.2286 4.1524l4.1525 0.6921v2.7684h-1.3842c-0.92279 0-2.7683 2.999-5.5366 8.997s-4.8445 9.689-6.2287 11.073c-1.3842 1.3842-1.3842 8.5356 0 21.454l2.0762 19.378v8.3048l-4.8445 2.7683c-3.2297 1.8455-5.7672 5.5366-7.6127 11.073l-2.7683 8.3049 1.3842 6.9207c0.92273 4.6138 2.0762 9.2276 3.4603 13.842l2.0762 6.9207h2.7683l2.7683 20.762 2.7683 20.762-3.4604 8.3048c-2.3069 5.5366-4.383 8.3049-6.2286 8.3049s-2.9989 0.23071-3.4603 0.69208l-0.6921 0.6921 0.6921 0.6921c0.46143 0.46136 1.8456 6.6901 4.1524 18.686l3.4603 17.994v30.452l-6.2286 4.1525c-4.1525 2.7682-6.69 5.5366-7.6128 8.3048l-1.3842 4.1525-0.6921 3.4604c-0.46143 2.3069 0.69208 4.6138 3.4604 6.9207l4.1525 3.4604h-1.3842c-0.92273 0-2.3069 5.5366-4.1525 16.61-1.8455 11.073-2.3069 16.61-1.3842 16.61h1.3842l-3.4604 6.9207c-2.3068 4.6138-3.691 7.1515-4.1524 7.6128-0.46149 0.4613-3.691 1.3842-9.689 2.7682-5.998 1.3842-9.4583 3.4604-10.381 6.2286l-1.3842 4.1525 0.6921 3.4604c0.46143 2.3069 1.6149 3.691 3.4604 4.1525 1.8456 0.4613 3.691 2.5375 5.5366 6.2286l2.7683 5.5366-0.6921 20.762c-0.46143 13.842-1.6148 25.376-3.4604 34.604-1.8456 9.2277-4.3831 19.378-7.6128 30.451s-8.5355 16.84-15.918 17.302l-11.073 0.6921-1.3842-1.3842c-0.92273-0.92279-4.6138-14.995-11.073-42.216-6.4593-27.222-10.15-40.832-11.073-40.832h-1.3842l6.2287-13.842c4.1524-9.2277 5.998-17.532 5.5366-24.915l-0.6921-11.073h-16.61l-1.3841-13.842-1.3842-13.842 2.0762-12.457 2.0762-12.457-1.3842-4.1525c-0.92267-2.7682-3.4603-6.9207-7.6128-12.457l-6.2287-8.3048-1.3842-16.61-1.3841-16.61 0.6921-4.1525c0.46143-2.7682 0.92267-4.3831 1.3841-4.8445 0.46149-0.46143 1.3842-5.998 2.7683-16.61 1.3842-10.612 1.8456-16.148 1.3842-16.61-0.46143-0.46136-3.4604-1.8455-8.997-4.1524l-8.3049-3.4604v-2.7684l2.7683-0.6921c1.8456-0.46136 3.4604-5.5365 4.8445-15.226 1.3841-9.689 0.46143-18.225-2.7683-25.607l-4.8445-11.073 2.7683-1.3842 2.7683-1.3841 2.0762-17.994c1.3841-11.996 0.46143-21.224-2.7683-27.683l-4.8445-9.689 2.0762-11.073c1.3842-7.3821-0.46143-17.532-5.5366-30.451l-7.6128-19.378 4.1525-0.6921 4.1524-0.692 2.7683-15.918 2.7683-15.918h1.3842c0.92273 0 2.3069-2.0762 4.1524-6.2286 1.8456-4.1524 8.3049-8.5356 19.378-13.149 11.073-4.6138 26.76-6.4594 47.061-5.5366 20.301 0.92279 35.065 3.4604 44.293 7.6128z"/>
  <path d="m415.82 166.11l12.457-4.8445v1.3842c0 0.92279 0.92276 1.3841 2.7683 1.3841h2.7683v5.5366c0 3.6911 0.92273 5.5366 2.7683 5.5366 1.8455 0 2.5376 3.2296 2.0762 9.689s0.23068 10.612 2.0762 12.457c1.8456 1.8455 2.999 4.6138 3.4604 8.3049l0.6921 5.5366-2.0762-1.3841c-1.3842-0.92281-2.3069-0.46136-2.7683 1.3841-0.46136 1.8455-2.999 3.9217-7.6128 6.2287-4.6138 2.3069-8.0742 4.6138-10.381 6.9207l-3.4604 3.4604 0.6921 4.8445c0.4614 3.2296 1.6148 5.0752 3.4604 5.5366 1.8456 0.46136 2.7683 1.6148 2.7683 3.4604 0 1.8455 5.0752 3.9218 15.226 6.2286 10.15 2.3069 21.224 4.8445 33.22 7.6128s27.222 6.2286 45.677 10.381l27.683 6.2286 1.3842 2.0762 1.3842 2.0762-2.0762 4.8445c-1.3842 3.2297-3.4604 7.1514-6.2287 11.765-2.7682 4.6139-5.998 8.7663-9.689 12.457-3.691 3.6911-5.7673 6.9208-6.2287 9.689l-0.6921 4.1524-20.762-2.0762c-13.841-1.3841-26.299-3.4603-37.372-6.2286s-23.069-5.3059-35.988-7.6128l-19.378-3.4604-0.6921-1.3841c-0.46143-0.92276-7.8435-4.8445-22.146-11.765-14.303-6.9207-23.761-11.073-28.375-12.457l-6.9207-2.0762-4.8445-5.5366-4.8445-5.5366-1.3841-2.7683c-0.92279-1.8456-1.8456-7.3821-2.7683-16.61-0.92273-9.2277-0.92273-15.226 0-17.994 0.92273-2.7683 3.9218-7.6128 8.997-14.534 5.0752-6.9207 15.456-14.995 31.143-24.223 15.687-9.2277 27.683-15.456 35.988-18.686z"/>
  <path d="m505.79 134.27l8.3049-3.4604 9.689 6.2287c6.4594 4.1524 11.996 7.6128 16.61 10.381 4.6139 2.7683 10.612 8.3049 17.994 16.61 7.3821 8.3049 12.919 12.688 16.61 13.149l5.5366 0.6921-2.7683 2.7683-2.7683 2.7683-22.146-0.6921c-14.764-0.46135-23.069-0.46135-24.915 0-1.8455 0.46136-2.7683 1.1534-2.7683 2.0762v1.3842h-22.146l-5.5366-2.0762c-3.691-1.3841-7.1514-4.1524-10.381-8.3049-3.2297-4.1524-5.3059-11.304-6.2287-21.454-0.92276-10.15-0.69208-14.764 0.69208-13.842l2.0762 1.3842 6.9207-2.0762c4.6138-1.3841 9.689-3.2297 15.226-5.5366z"/>
  <path d="m843.52 146.73l11.073 0.6921-0.6921 8.3049c-0.4613 5.5366-2.0762 10.15-4.8445 13.842-2.7682 3.6911-6.2286 6.4594-10.381 8.3049l-6.2286 2.7683-8.3049 2.0762c-5.5365 1.3841-15.226 2.7683-29.067 4.1524l-20.762 2.0762-2.0762-2.7683c-1.3841-1.8455-3.2297-3.6911-5.5366-5.5366l-3.4604-2.7683v-1.3841c0-0.92279 4.1525-2.5376 12.457-4.8445 8.3049-2.307 19.839-7.1514 34.604-14.534 14.764-7.3821 25.837-10.842 33.22-10.381z"/>
  <path d="m904.42 155.73h2.7683l12.457 3.4604c8.3049 2.3069 19.378 7.6128 33.22 15.918 13.842 8.3049 23.761 16.379 29.759 24.223 5.998 7.8435 9.4584 12.688 10.381 14.534l1.3842 2.7683-0.6921 26.299-0.6921 26.299-5.5366 2.0762c-3.6911 1.3842-7.8435 4.8445-12.457 10.381-4.6138 5.5366-8.7663 9.4583-12.457 11.765-3.691 2.3069-5.998 5.3059-6.9207 8.997l-1.3842 5.5366-13.841 3.4604c-9.2277 2.3069-26.76 5.7672-52.598 10.381s-41.524 6.9207-47.061 6.9207c-5.5366 0-9.2277 0.4614-11.073 1.3842-1.8455 0.92276-3.6911 1.6148-5.5366 2.0762l-2.7682 0.6921-4.8445-8.3049c-3.2297-5.5366-7.3821-9.9197-12.457-13.149-5.0752-3.2297-7.8435-7.8435-8.3048-13.842l-0.6921-8.9969 0.6921-4.1525 0.6921-4.1524 45.677-7.6128c30.451-5.0752 50.983-9.2276 61.594-12.457 10.612-3.2297 16.148-5.7673 16.61-7.6128 0.46136-1.8455 2.307-3.691 5.5366-5.5366 3.2297-1.8455 5.3058-3.691 6.2286-5.5366 0.92279-1.8456 1.3842-5.0752 1.3842-9.689v-6.9207l-6.2286-7.6128c-4.1525-5.0752-9.4583-8.997-15.918-11.765-6.4594-2.7683-11.534-4.3832-15.226-4.8445l-5.5366-0.6921 3.4604-5.5366 3.4603-5.5366 2.0762-16.61 2.0762-16.61h2.7683z"/>
  <path d="m353.53 273.38v-1.3842l6.9207 2.0762c4.6138 1.3841 14.072 5.5366 28.375 12.457 14.303 6.9207 21.685 10.842 22.146 11.765l0.6921 1.3841v2.7684l-13.842 5.5366c-9.2277 3.691-14.303 6.6901-15.226 8.997-0.92276 2.3069-2.5376 4.6139-4.8445 6.9208s-4.3831 4.8445-6.2287 7.6128-2.7683 5.0752-2.7683 6.9208v2.7683l6.2287 5.5366c4.1525 3.691 12.227 7.1514 24.223 10.381 11.996 3.2297 28.606 7.6128 49.829 13.149 21.224 5.5366 41.755 10.381 61.594 14.534 19.84 4.1524 29.99 7.1514 30.451 8.9969 0.46143 1.8456 2.0762 2.7683 4.8445 2.7683h4.1525v1.3842c0 0.92273-1.8455 2.5376-5.5366 4.8445-3.691 2.3069-6.9207 4.1525-9.689 5.5366s-4.8445 3.9218-6.2287 7.6128-1.3842 10.612 0 20.762l2.0762 15.226-1.3842 0.6921c-0.92273 0.4614-14.764-2.0762-41.524-7.6128s-47.522-10.15-62.287-13.842c-14.764-3.691-25.837-6.6901-33.22-8.997l-11.073-3.4604v-8.3048l-6.9207-2.0762c-4.6139-1.3842-12.919-5.3059-24.915-11.765-11.996-6.4594-20.301-10.381-24.915-11.765l-6.9207-2.0762-3.4604-5.5366-3.4604-5.5366-1.3841-2.7683c-0.92276-1.8456-1.8456-9.2277-2.7683-22.146-0.92276-12.919-0.4614-21.224 1.3842-24.915 1.8455-3.691 5.7673-9.4584 11.765-17.302 5.998-7.8435 11.304-13.611 15.918-17.302 4.6139-3.691 8.7663-6.6901 12.457-8.997 3.691-2.3069 5.5366-3.9218 5.5366-4.8445z"/>
  <path d="m987.47 271.3l5.5366-2.0762 8.3049 6.2287c5.5366 4.1525 11.765 10.612 18.686 19.378 6.9206 8.7663 11.765 16.84 14.533 24.223 2.7683 7.3821 3.6912 17.071 2.7683 29.067-0.92273 11.996-2.5375 20.762-4.8445 26.299l-3.4603 8.3049-2.7683 0.6921c-1.8455 0.46136-4.6138 1.6148-8.3048 3.4604-3.6912 1.8456-10.612 5.998-20.762 12.457l-15.226 9.689 1.3842 2.0762 1.3842 2.0762-59.518 20.07c-39.679 13.38-66.9 21.454-81.665 24.223-14.764 2.7683-24.915 3.4604-30.451 2.0762l-8.3049-2.0762 0.6921-13.842c0.46143-9.2276 0-15.687-1.3842-19.378-1.3841-3.691-2.999-5.5366-4.8444-5.5366-1.8455 0-2.7683-0.4614-2.7683-1.3842v-1.3841l1.3842-4.1525 1.3842-4.1524 22.146-6.2287c14.764-4.1524 38.756-10.381 71.976-18.686 33.22-8.3049 53.751-14.534 61.594-18.686 7.8435-4.1524 13.611-8.5355 17.302-13.149l5.5365-6.9207-2.0762-8.9969c-1.3841-5.998-3.9218-11.304-7.6128-15.918-3.691-4.6138-6.9208-7.6128-9.689-8.997l-4.1525-2.0762 1.3842-5.5366c0.92273-3.6911 3.2297-6.6901 6.9207-8.997 3.6911-2.3069 7.8436-6.2286 12.457-11.765 4.6137-5.5366 8.7661-8.997 12.457-10.381z"/>
  <path d="m316.16 384.8l1.3842-2.0762 6.9207 2.0762c4.6138 1.3841 12.919 5.3059 24.915 11.765 11.996 6.4594 20.301 10.381 24.915 11.765l6.9207 2.0762v8.3048l-6.2287 5.5366c-4.1524 3.691-7.8435 8.0742-11.073 13.149l-4.8445 7.6128 6.2287 6.2286c4.1524 4.1525 7.8435 6.9207 11.073 8.3049 3.2297 1.3842 16.379 7.1514 39.448 17.302 23.069 10.15 48.906 18.225 77.512 24.223l42.909 8.997 3.4604 8.3048c2.3068 5.5366 2.7682 13.842 1.3841 24.915s-2.9988 16.61-4.8445 16.61c-1.8455 0-2.7682 1.3842-2.7682 4.1525v4.1525l-1.3842 0.6921c-0.92273 0.46136-9.2277-0.69208-24.915-3.4604s-36.449-8.3049-62.287-16.61c-25.837-8.3049-44.293-14.534-55.366-18.686l-16.61-6.2287-1.3842-4.1524c-0.92273-2.7683-7.3821-6.6901-19.378-11.765-11.996-5.0752-22.146-8.7663-30.451-11.073l-12.457-3.4604-8.997-6.9207c-5.9979-4.6139-10.842-9.2277-14.534-13.842l-5.5366-6.9207-1.3841-2.7683c-0.92279-1.8456-1.8455-8.3049-2.7683-19.378-0.92279-11.073-0.92279-17.994 0-20.762l1.3842-4.1524 6.2287-7.6128c4.1524-5.0752 10.381-10.381 18.686-15.918 8.3049-5.5366 12.919-8.997 13.842-10.381z"/>
  <path d="m1026.2 383.42l2.7683-0.6921 5.5365 4.8445c3.6912 3.2297 10.842 11.073 21.454 23.53s16.379 20.532 17.302 24.223l1.3842 5.5366-1.3842 11.073c-0.92273 7.3821-3.2295 14.303-6.9206 20.762l-5.5365 9.6891-7.6129 5.5366-7.6128 5.5366-15.226 7.6128c-10.15 5.0752-19.378 9.2276-27.683 12.457l-12.457 4.8445 0.6921 4.1525c0.46136 2.7682 0.46136 4.6138 0 5.5366l-0.6921 1.3842-2.7683-0.6921c-1.8455-0.46136-14.303 2.5376-37.372 8.997s-51.675 11.534-85.817 15.226c-34.142 3.691-51.444 5.7672-51.906 6.2286l-0.6921 0.6921-2.0762-2.7682-2.0762-2.7683 2.7683-3.4603c1.8455-2.307 2.5375-8.3049 2.0762-17.994-0.46136-9.6891-1.3842-15.918-2.7683-18.686l-2.0762-4.1524 5.5366-3.4604c3.691-2.3069 14.303-3.9218 31.835-4.8445 17.532-0.92279 46.6-5.7673 87.201-14.534 40.602-8.7663 62.287-15.226 65.055-19.378 2.7683-4.1524 5.7673-8.3049 8.997-12.457 3.2297-4.1525 4.1524-9.2277 2.7682-15.226-1.3841-5.998-5.7673-11.996-13.149-17.994l-11.073-8.997-1.3842-2.0762-1.3842-2.0762 15.226-9.689c10.15-6.4593 17.071-10.612 20.762-12.457 3.691-1.8456 6.4594-2.999 8.3048-3.4604z"/>
  <path d="m281.55 509.38l27.683-15.918 12.457 3.4604c8.3049 2.3069 18.455 5.998 30.451 11.073 11.996 5.0752 18.455 8.9969 19.378 11.765l1.3842 4.1524-2.7683 2.0762c-1.8455 1.3842-11.996 6.4594-30.451 15.226l-27.683 13.149 3.4604 12.457c2.3069 8.3049 6.9207 14.995 13.842 20.07 6.9207 5.0753 19.147 10.381 36.68 15.918 17.532 5.5366 35.526 10.381 53.982 14.534 18.455 4.1525 27.683 7.1514 27.683 8.997 0 1.8455 11.996 3.2297 35.988 4.1524l35.988 1.3842-2.0762 8.3049c-1.3841 5.5366-2.7682 11.304-4.1524 17.302s-3.6911 10.612-6.9208 13.842c-3.2297 3.2296-5.5366 6.2286-6.9208 8.997l-2.0762 4.1524-31.835-0.6921c-21.224-0.4613-40.602-3.4603-58.134-8.9969s-31.835-9.6891-42.908-12.457c-11.073-2.7683-19.378-5.5366-24.915-8.3049-5.5366-2.7682-11.073-4.6138-16.61-5.5366-5.5366-0.92273-8.7663-1.1535-9.689-0.69202l-1.3842 0.692 1.3842-5.5366 1.3842-5.5366-8.3049-3.4604c-5.5366-2.3068-10.612-4.8444-15.226-7.6127-4.6138-2.7683-9.689-5.3059-15.226-7.6128l-8.3049-3.4603-5.5366-3.4604c-3.6911-2.3069-7.8436-6.2286-12.457-11.765-4.6138-5.5366-8.5356-12.227-11.765-20.07l-4.8445-11.765v-8.305l1.3842-5.5366c0.92279-3.691 4.3832-9.4583 10.381-17.302 5.9979-7.8435 18.225-17.071 36.68-27.683z"/>
  <path d="m1030.4 501.07l15.226-7.6128 1.3842 2.0762c0.92273 1.3842 7.8435 5.5366 20.762 12.457 12.919 6.9207 20.532 12.227 22.838 15.918 2.3069 3.6911 4.3832 6.9208 6.2286 9.6891 1.8456 2.7682 3.2297 5.5365 4.1525 8.3048l1.3842 4.1525-1.3842 13.841c-0.92273 9.2277-3.691 17.071-8.3048 23.53-4.6139 6.4594-8.9971 11.534-13.149 15.226l-6.2288 5.5366-1.3842 2.7682-1.384 2.7683-6.9208 0.6921c-4.6138 0.46143-11.534 3.4604-20.762 8.997-9.2277 5.5366-14.764 9.9197-16.61 13.149l-2.7682 4.8445-30.451 8.997c-20.301 5.998-41.063 9.9197-62.287 11.765-21.224 1.8455-38.756 3.9218-52.598 6.2287l-20.762 3.4603h-2.7683c-1.8455 0-2.999-1.8455-3.4603-5.5366-0.46136-3.691-1.3842-6.2287-2.7683-7.6128-1.3841-1.3842-2.999-7.3821-4.8445-17.994l-2.7683-15.918 38.756-3.4604c25.838-2.3069 49.368-6.4593 70.591-12.457 21.224-5.998 31.835-9.9197 31.835-11.765 0-1.8455 4.1525-3.691 12.457-5.5366 8.3049-1.8455 12.457-3.691 12.457-5.5365 0-1.8456 2.0762-4.1525 6.2286-6.9208 4.1525-2.7683 7.8435-5.998 11.073-9.689 3.2296-3.691 4.6138-6.9207 4.1523-9.689l-0.692-4.1524-1.3842 1.3842c-0.92285 0.92267-2.999-0.69208-6.2286-4.8445-3.2297-4.1525-8.0742-7.6128-14.534-10.381-6.4594-2.7683-10.612-4.8445-12.457-6.2286l-2.7682-2.0762 0.6921-1.3842c0.46136-0.92273 0.46136-2.7683 0-5.5366l-0.6921-4.1525 12.457-4.8445c8.3049-3.2297 17.532-7.3821 27.683-12.457z"/>
  <path d="m267.71 616.65v-1.3842l8.3049 3.4603c5.5366 2.307 10.612 4.8445 15.226 7.6128 4.6138 2.7683 9.689 5.3059 15.226 7.6127l8.3049 3.4604-1.3842 5.5366-1.3842 5.5366v1.3842c0 0.92273-1.8455 2.5377-5.5366 4.8445-3.691 2.307-5.7673 3.6911-6.2287 4.1525-0.4614 0.46136-0.69208 3.4604-0.69208 8.997v8.3049l8.997 8.9969c5.998 5.9979 16.379 12.688 31.143 20.07 14.764 7.3821 28.144 12.457 40.14 15.226 11.996 2.7683 24.915 5.5366 38.756 8.3048 13.842 2.7683 26.299 3.4604 37.372 2.0762l16.61-2.0762 2.0762 1.3842 2.0762 1.3842-1.3842 11.073c-0.92276 7.382-2.7683 14.764-5.5366 22.146-2.7683 7.3821-3.4604 12.457-2.0762 15.226l2.0762 4.1525-20.762-0.6921c-13.842-0.46136-29.067-2.0762-45.677-4.8445s-32.297-5.9979-47.061-9.689c-14.764-3.6912-25.837-6.6901-33.22-8.997l-11.073-3.4603 2.7683-2.0762 2.7683-2.0762-20.762-12.457c-13.842-8.3049-23.992-13.611-30.451-15.918l-9.689-3.4603-4.8445-5.5366c-3.2296-3.691-7.6128-9.689-13.149-17.994-5.5366-8.3049-8.7662-17.532-9.689-27.683-0.92279-10.15-0.92279-16.61 0-19.378l1.3841-4.1524 1.3841-2.7683c0.92281-1.8455 4.1524-5.0752 9.689-9.689 5.5366-4.6139 11.304-8.3049 17.302-11.073 5.9979-2.7683 8.997-4.6138 8.997-5.5366z"/>
  <path d="m1071.9 606.96l1.3842-2.7682 1.3842 2.0762c0.92285 1.3842 4.3833 4.1525 10.381 8.3049 5.998 4.1524 10.842 9.4583 14.534 15.918 3.6912 6.4594 5.998 11.534 6.9208 15.226 0.92273 3.691 0.92273 13.38 0 29.067s-2.5376 26.299-4.8445 31.835l-3.4604 8.3049h-2.7684l-4.8445 2.7683c-3.2296 1.8455-8.997 5.9979-17.302 12.457-8.3048 6.4594-15.456 11.073-21.454 13.842l-8.9969 4.1524v8.305l-29.067 8.9969c-19.378 5.9979-32.297 9.9197-38.756 11.765-6.4595 1.8456-23.069 3.4604-49.829 4.8445l-40.14 2.0762 2.0762-5.5366c1.3842-3.691 1.3842-7.1514 0-10.381-1.3842-3.2297-2.7683-8.7663-4.1525-16.61l-2.0762-11.765 2.0762-1.3842 2.0762-1.3842 17.994 0.6921c11.996 0.4613 30.913-1.6149 56.75-6.2287s42.678-8.9969 50.521-13.149c7.8435-4.1525 14.995-8.997 21.454-14.534 6.4594-5.5366 11.073-11.996 13.841-19.378 2.7683-7.3821 3.4603-14.534 2.0762-21.454-1.384-6.9208-5.3058-12.688-11.765-17.302-6.4594-4.6138-10.15-7.1515-11.073-7.6128l-1.3841-0.6921 2.7683-4.8445c1.8455-3.2297 7.3821-7.6128 16.61-13.149 9.2277-5.5366 16.148-8.5355 20.762-8.997l6.9208-0.6921 1.384-2.7683z"/>
  <path d="m249.72 723.92l6.9207-3.4603 9.689 3.4603c6.4594 2.307 16.61 7.6128 30.451 15.918l20.762 12.457-2.7683 2.0762-2.7683 2.0762-8.3049 6.2286c-5.5366 4.1525-8.9969 7.3821-10.381 9.689l-2.0762 3.4603 2.0762 10.381c1.3842 6.9207 3.9217 11.534 7.6128 13.841 3.691 2.307 5.5366 4.3832 5.5366 6.2286 0 1.8455 2.999 4.1525 8.997 6.9208s11.073 5.3058 15.226 7.6128c4.1524 2.307 12.227 5.7673 24.223 10.381 11.996 4.6138 23.53 6.4594 34.604 5.5366 11.073-0.92285 22.146-2.0762 33.22-3.4604l16.61-2.0762 2.0762 15.226c1.3842 10.15 0.69208 17.994-2.0762 23.53l-4.1524 8.3049 2.0762 1.3842 2.0762 1.3842-33.22 2.0762c-22.146 1.3842-37.833 1.1534-47.061-0.69208-9.2276-1.8456-21.224-4.6138-35.988-8.3049-14.764-3.691-22.608-5.9979-23.53-6.9207-0.92273-0.92279-5.0752-2.999-12.457-6.2286l-11.073-4.8445v-5.5365h-2.7683c-1.8455 0-2.999-0.92279-3.4604-2.7683-0.46136-1.8455-3.6911-5.3058-9.689-10.381-5.998-5.0753-11.765-8.7662-17.302-11.073l-8.3049-3.4604-0.6921-4.1524c-0.46136-2.7682-0.92281-4.3832-1.3842-4.8445-0.46135-0.46136-2.307-3.6911-5.5366-9.689s-5.3059-14.534-6.2287-25.607c-0.92279-11.073 0.46135-20.762 4.1524-29.067 3.6911-8.3048 7.6128-14.072 11.765-17.302 4.1524-3.2296 8.5356-5.9979 13.149-8.3049z"/>
  <path d="m1090.6 717.69l4.8445-2.7683 1.3842 2.0762c0.92285 1.3842 3.6912 3.9217 8.3049 7.6128 4.6138 3.6911 8.5356 8.0742 11.765 13.149 3.2296 5.0752 5.7673 10.842 7.6128 17.302 1.8455 6.4594 2.307 15.226 1.3842 26.299-0.92285 11.073-2.999 20.762-6.2288 29.067l-4.8444 12.457h-2.7684l-2.0763 2.7683c-1.384 1.8455-4.6138 4.8445-9.689 8.997-5.0752 4.1524-9.9198 8.0742-14.534 11.765-4.6138 3.6911-7.8435 7.6128-9.6891 11.765l-2.7683 6.2287-9.689 3.4603c-6.4594 2.307-11.304 4.1524-14.534 5.5366-3.2296 1.3842-23.069 2.7683-59.518 4.1525s-57.903 1.6149-64.363 0.69208c-6.4594-0.92279-10.612-1.1534-12.457-0.69208l-2.7683 0.6921-0.6921-5.5366c-0.46143-3.691-1.6149-6.4594-3.4604-8.3048-1.8455-1.8455-5.0752-5.998-9.689-12.457-4.6138-6.4594-6.4594-11.534-5.5366-15.226 0.92279-3.6912 2.5375-7.3821 4.8445-11.073l3.4603-5.5366 8.3049 2.0762c5.5366 1.3841 13.38 2.5376 23.53 3.4603 10.15 0.92285 28.144 0.92285 53.982 0 25.838-0.92273 45.216-3.9217 58.134-8.9969 12.919-5.0753 20.762-11.534 23.53-19.378l4.1525-11.765-2.0762-4.8445c-1.3842-3.2296-3.2297-6.4594-5.5366-9.689-2.307-3.2297-6.2286-6.4594-11.765-9.6891l-8.3049-4.8445v-8.305l8.9969-4.1524c5.998-2.7682 13.149-7.3821 21.454-13.842 8.3049-6.4594 14.072-10.612 17.302-12.457z"/>
  <path d="m229.65 827.04l4.8445-4.1525 8.3049 3.4604c5.5366 2.307 11.304 5.9979 17.302 11.073 5.9979 5.0753 9.2277 8.5356 9.689 10.381 0.46133 1.8455 1.6149 2.7683 3.4604 2.7683h2.7683v5.5365l-4.1524 6.9208c-2.7683 4.6138-5.0753 6.9206-6.9208 6.9206s-2.999 3.6912-3.4603 11.073l-0.6921 11.073 2.0762 5.5366c1.3842 3.691 3.9217 6.69 7.6128 8.997s9.2277 6.2286 16.61 11.765c7.3821 5.5366 13.38 9.2277 17.994 11.073 4.6138 1.8455 13.38 4.1524 26.299 6.9207 12.919 2.7682 29.99 3.9217 51.213 3.4603l31.835-0.6921 1.3842 0.6921 1.3841 0.6921-4.8445 3.4604c-3.2297 2.307-5.7673 6.69-7.6128 13.149-1.8456 6.4594-2.999 12.457-3.4604 17.994-0.4614 5.5366 0.69208 8.3049 3.4604 8.3049h4.1524v2.7684l-15.226 3.4604c-10.15 2.3069-25.837 2.999-47.061 2.0762-21.224-0.92291-35.065-2.3071-41.524-4.1525-6.4593-1.8455-14.764-4.6138-24.915-8.3049-10.15-3.691-16.148-5.3058-17.994-4.8445l-2.7683 0.6921v-11.073l-2.7683-0.692c-1.8455-0.46143-7.1514-4.6138-15.918-12.457l-13.149-11.765-2.0762 1.3842-2.0762 1.3842-4.8445-11.073c-3.2296-7.3821-5.3059-20.762-6.2287-40.14-0.92278-19.378-0.92278-30.451 0-33.22 0.92281-2.7683 3.2297-7.8435 6.9207-15.226 3.6911-7.3821 7.1515-12.457 10.381-15.226z"/>
  <path d="m1110 825.65l2.0763-2.7683 2.7683 3.4604c1.8455 2.307 5.0752 5.3058 9.689 8.997 4.6138 3.691 8.997 8.5356 13.149 14.534 4.1525 5.9979 7.6128 12.227 10.381 18.686 2.7683 6.4594 3.691 17.532 2.7683 33.22-0.92285 15.687-2.999 26.068-6.2288 31.143l-4.8445 7.6128-6.9208 6.2287-6.9207 6.2286-15.226 7.6129c-10.15 5.0752-17.533 8.7662-22.146 11.073-4.6139 2.307-6.9208 4.3831-6.9208 6.2287 0 1.8455-0.92273 2.7682-2.7683 2.7682h-2.7683v2.7684l-8.3048 2.0762c-5.5365 1.3842-12.919 2.5375-22.146 3.4604-9.2277 0.92273-14.303 2.0762-15.226 3.4604-0.92285 1.3842-2.7683 1.8454-5.5366 1.3842-2.7682-0.46143-11.534-0.23084-26.299 0.69202-14.764 0.92279-22.608 1.6149-23.53 2.0761l-1.3842 0.6921-0.6921-2.7682c-0.46143-1.8455-4.6138-5.7674-12.457-11.765-7.8436-5.998-13.38-11.996-16.61-17.994-3.2297-5.9979-4.1524-11.304-2.7682-15.918l2.0762-6.9207 35.988-2.0762c23.992-1.3842 46.138-4.1524 66.439-8.3048l30.451-6.2287v-2.7683c0-1.8455 0.92285-2.7683 2.7683-2.7683 1.8456 0 4.3833-3.691 7.6128-11.073 3.2297-7.3821 4.1525-14.534 2.7683-21.454-1.3842-6.9207-3.9218-11.534-7.6128-13.842-3.691-2.3069-5.9979-4.3831-6.9208-6.2286l-1.3842-2.7682 2.7683-6.2287c1.8456-4.1525 5.0753-8.0742 9.6891-11.765 4.6138-3.691 9.4584-7.6128 14.534-11.765 5.0752-4.1525 8.3049-7.1515 9.689-8.997z"/>
  <path d="m259.41 969.6v5.5366l-0.6921 5.5366c-0.46133 3.6911-0.23071 7.382 0.69208 11.073l1.3842 5.5364 3.4604 4.8445c2.3069 3.2297 4.3832 5.0753 6.2287 5.5366 1.8455 0.46136 3.9217 2.5376 6.2286 6.2286 2.307 3.6911 5.0753 6.2287 8.3049 7.6128 3.2296 1.3842 8.997 3.9218 17.302 7.6128 8.3049 3.691 20.762 5.3058 37.372 4.8445l24.915-0.692-3.4604 5.5366c-2.3069 3.691-4.3831 7.382-6.2286 11.073-1.8456 3.6912-4.6138 10.15-8.3049 19.378-3.691 9.2277-8.5355 16.61-14.534 22.146l-8.997 8.3049-15.226-4.1525c-10.15-2.7683-15.226-4.6138-15.226-5.5365v-1.3842l-0.6921-1.3842c-0.46136-0.92285-7.3821-5.3059-20.762-13.149-13.38-7.8435-22.838-12.919-28.375-15.226l-8.3049-3.4604-5.5366-2.0762-5.5366-2.0763-4.8445-4.8445c-3.2296-3.2295-6.69-8.5355-10.381-15.918-3.6911-7.3821-5.9979-16.61-6.9207-27.683-0.92278-11.073-0.92278-18.455 0-22.146 0.92279-3.691 3.6911-10.15 8.3049-19.378 4.6138-9.2277 8.0742-14.764 10.381-16.61l3.4604-2.7683 2.0762-1.3842 2.0762-1.3842 13.149 11.765c8.7662 7.8436 14.072 11.996 15.918 12.457l2.7683 0.692v5.5366z"/>
  <path d="m1110.7 960.61l15.226-7.6129 3.4603 11.073c2.3069 7.3821 2.999 18.917 2.0762 34.604-0.92273 15.687-3.2295 28.144-6.9206 37.372-3.6912 9.2277-6.4595 15.226-8.3048 17.994l-2.7683 4.1525-3.4604 2.7683-3.4603 2.7683-2.7683 0.6921c-1.8455 0.4613-6.6901 3.691-14.534 9.689-7.8435 5.9979-16.148 11.073-24.915 15.226l-13.149 6.2285 1.3842 0.6921 1.3842 0.692-6.9208 2.7683-6.9208 2.7683-0.692-6.9208c-0.46143-4.6138-1.8456-8.5355-4.1525-11.765-2.3069-3.2297-4.3832-9.6891-6.2286-19.378l-2.7683-14.534h-4.1523c-2.7683 0-4.1525-0.4613-4.1525-1.3842v-1.3842l15.226-6.2286c10.15-4.1525 17.763-7.8436 22.838-11.073l7.6128-4.8446 2.7683-6.9207c1.8455-4.6138 3.9216-11.534 6.2286-20.762l3.4603-13.841v-2.7684h2.7683c1.8456 0 2.7683-0.92273 2.7683-2.7682 0-1.8456 2.3069-3.9218 6.9208-6.2287 4.6138-2.307 11.996-5.998 22.146-11.073z"/>
  <path d="m231.03 1062.3l3.4604-6.9208 8.3049 3.4604c5.5366 2.3069 14.995 7.3821 28.375 15.226 13.38 7.8435 20.301 12.227 20.762 13.149l0.6921 1.3842-3.4604 2.7682c-2.307 1.8456-4.3831 5.5366-6.2286 11.073l-2.7683 8.3049 3.4604 4.8445c2.307 3.2296 5.7673 5.5366 10.381 6.9208l6.9207 2.0762v6.2287c0 2.307-0.23068 3.6912-0.69208 4.1525s-1.3842 4.6138-2.7683 12.457c-1.3842 7.8435-4.6138 13.38-9.689 16.61-5.0752 3.2297-7.8435 6.2288-8.3049 8.9971-0.46136 2.7682-1.6149 4.6136-3.4604 5.5365l-2.7683 1.3842-6.9207-0.692-6.9207-0.6921-11.765-8.9969c-7.8435-5.9979-14.072-12.227-18.686-18.686l-6.9207-9.689-1.3842-24.915c-0.92279-16.61 0-28.606 2.7683-35.988 2.7683-7.3822 5.3059-13.38 7.6128-17.994z"/>
  <path d="m1103.7 1064.4l2.7683-0.6921 4.8445 11.073c3.2296 7.382 5.7673 14.303 7.6128 20.762 1.8455 6.4594 2.307 17.071 1.3842 31.835-0.92285 14.764-4.1523 26.299-9.689 34.604-5.5366 8.3049-11.304 14.534-17.302 18.686l-8.9969 6.2285-4.1525 1.3842c-2.7683 0.92285-11.996 1.1534-27.683 0.69214l-23.53-0.6921-3.4604-11.073c-2.3069-7.3821-3.9216-14.303-4.8444-20.762-0.92291-6.4594-1.1535-11.534-0.69208-15.226l0.6921-5.5365h2.7683l9.6889 0.692c6.4595 0.4613 11.996 0.23071 16.61-0.69202 4.6138-0.92285 8.5355-3.4604 11.765-7.6128l4.8445-6.2288-2.7683-9.689c-1.8455-6.4595-3.9218-10.612-6.2286-12.457l-3.4603-2.7683-1.3842-0.692-1.3842-0.6921 13.149-6.2285c8.7661-4.1525 17.071-9.2278 24.915-15.226 7.8435-5.9979 12.688-9.2277 14.534-9.689z"/>
 </g>
</svg>
