<?xml version="1.0" encoding="UTF-8"?>
<svg version="1.1" viewBox="0 0 361.56 515.59" xmlns="http://www.w3.org/2000/svg">
 <defs>
  <filter id="d" x="-1.0381" y="-.31217" width="3.0762" height="1.6243" color-interpolation-filters="sRGB">
   <feGaussianBlur stdDeviation="24.411272"/>
  </filter>
  <filter id="e" x="-.25952" y="-.078043" width="1.519" height="1.1561" color-interpolation-filters="sRGB">
   <feGaussianBlur stdDeviation="6.102818"/>
  </filter>
  <filter id="f" x="-.38928" y="-.11706" width="1.7786" height="1.2341" color-interpolation-filters="sRGB">
   <feGaussianBlur stdDeviation="9.154227"/>
  </filter>
 </defs>
 <g transform="translate(-193.22 -203.56)">
  <g transform="matrix(1.7663 0 0 1.7663 -298.63 -380.35)">
   <path transform="matrix(1.25 0 0 1.25 15.959 922.32)" d="m290.33-449.2s10.409-1.019 9.2441 11.646c-1.6748 6.623-2.9111 9.8994-2.6924 13.465 0.29101 2.4018-0.27542 4.7432 14.483 9.0254 1.5482 0.44919 7.1338 1.3828 7.0615 15.285 0 6.623 1.3828 8.3711-0.58301 18.27 0 0 2.8096 0.52051-2.9121 29.257 1.2715 3.3066 4.0684 12.842-6.8662 13.859l-0.2539-2.6699 2.1611-2.1611-0.12695-7.5029 0.45905-27.859-2.1124-24.144s-4.4492 15.767-4.5772 31.533c0 0 6.8232 18.604-1.6533 51.155 0.50976 8.9854-0.50782 27.635-4.916 40.18 1.3564 7.6279 2.543 15.766 2.543 15.766s-2.7129 5.2549-6.4424 0.67871c-1.1865-4.5772-2.0342-12.206-2.0342-12.206l0.84765-5.4258s-1.3555-21.191-0.50781-28.651c-1.0176-6.7803-1.3574-36.787-2.0352-36.957-0.67774 3.2217-1.1875 25.26-1.1875 29.159 0 3.8994 2.375 14.409 0.84863 28.65-0.16895 12.376-0.84863 17.462-0.84863 17.462l-8.9839 7.9688c-2.0553-0.46373-5.2935-0.93605-2.2046-4.7471l3.5601-3.3916s5.9341-6.2715 2.3745-14.918c-2.3745-8.6475-5.9346-21.36-5.4253-34.245-2.3735-10.343-5.7637-32.55-3.2207-49.674 1.1856-6.2715 2.0337-13.054 2.0337-13.054s-1.5259-18.14-2.2036-18.14c-0.33935 5.7637-3.9445 23.11-3.9445 23.11l-1.1415 25.545s1.5254 2.0342 0.84766 8.4775c1.356 3.3906 1.6953 4.7461 1.6953 4.7461s-6.103 0.67871-7.4595-6.9502c0.5083-4.5772 0.16895-11.868 0.16895-11.868l-1.8643-10.34 1.5259-34.925s1.8647-10.342 8.8159-11.019c9.0472-3.4108 12.823-7.1711 12.205-12.885-1.5254-4.5771-4.6603-2.8136-3.0503-15.427 0.49421-3.8718 3.0122-5.8882 8.3716-6.0806z" fill="#00f" filter="url(#d)"/>
   <g transform="matrix(1.25 0 0 1.25 15.959 922.82)" fill="#f0f" filter="url(#e)">
    <path d="m290.33-449.2s10.409-1.019 9.2441 11.646c-1.6748 6.623-2.9111 9.8994-2.6924 13.465 0.29101 2.4018-0.27542 4.7432 14.483 9.0254 1.5482 0.44919 7.1338 1.3828 7.0615 15.285 0 6.623 1.3828 8.3711-0.58301 18.27 0 0 2.8096 0.52051-2.9121 29.257 1.2715 3.3066 4.0684 12.842-6.8662 13.859l-0.2539-2.6699 2.1611-2.1611-0.12695-7.5029 0.45905-27.859-2.1124-24.144s-4.4492 15.767-4.5772 31.533c0 0 6.8232 18.604-1.6533 51.155 0.50976 8.9854-0.50782 27.635-4.916 40.18 1.3564 7.6279 2.543 15.766 2.543 15.766s-2.7129 5.2549-6.4424 0.67871c-1.1865-4.5772-2.0342-12.206-2.0342-12.206l0.84765-5.4258s-1.3555-21.191-0.50781-28.651c-1.0176-6.7803-1.3574-36.787-2.0352-36.957-0.67774 3.2217-1.1875 25.26-1.1875 29.159 0 3.8994 2.375 14.409 0.84863 28.65-0.16895 12.376-0.84863 17.462-0.84863 17.462l-8.9839 7.9688c-2.0553-0.46373-5.2935-0.93605-2.2046-4.7471l3.5601-3.3916s5.9341-6.2715 2.3745-14.918c-2.3745-8.6475-5.9346-21.36-5.4253-34.245-2.3735-10.343-5.7637-32.55-3.2207-49.674 1.1856-6.2715 2.0337-13.054 2.0337-13.054s-1.5259-18.14-2.2036-18.14c-0.33935 5.7637-3.9445 23.11-3.9445 23.11l-1.1415 25.545s1.5254 2.0342 0.84766 8.4775c1.356 3.3906 1.6953 4.7461 1.6953 4.7461s-6.103 0.67871-7.4595-6.9502c0.5083-4.5772 0.16895-11.868 0.16895-11.868l-1.8643-10.34 1.5259-34.925s1.8647-10.342 8.8159-11.019c9.0472-3.4108 12.823-7.1711 12.205-12.885-1.5254-4.5771-4.6603-2.8136-3.0503-15.427 0.49421-3.8718 3.0122-5.8882 8.3716-6.0806z" fill="#f0f"/>
   </g>
   <g transform="matrix(1.25 0 0 1.25 15.704 923.03)" fill="#ffe2c7">
    <path d="m290.33-449.2s10.409-1.019 9.2441 11.646c-1.6748 6.623-2.9111 9.8994-2.6924 13.465 0.29101 2.4018-0.27542 4.7432 14.483 9.0254 1.5482 0.44919 7.1338 1.3828 7.0615 15.285 0 6.623 1.3828 8.3711-0.58301 18.27 0 0 2.8096 0.52051-2.9121 29.257 1.2715 3.3066 4.0684 12.842-6.8662 13.859l-0.2539-2.6699 2.1611-2.1611-0.12695-7.5029 0.45905-27.859-2.1124-24.144s-4.4492 15.767-4.5772 31.533c0 0 6.8232 18.604-1.6533 51.155 0.50976 8.9854-0.50782 27.635-4.916 40.18 1.3564 7.6279 2.543 15.766 2.543 15.766s-2.7129 5.2549-6.4424 0.67871c-1.1865-4.5772-2.0342-12.206-2.0342-12.206l0.84765-5.4258s-1.3555-21.191-0.50781-28.651c-1.0176-6.7803-1.3574-36.787-2.0352-36.957-0.67774 3.2217-1.1875 25.26-1.1875 29.159 0 3.8994 2.375 14.409 0.84863 28.65-0.16895 12.376-0.84863 17.462-0.84863 17.462l-8.9839 7.9688c-2.0553-0.46373-5.2935-0.93605-2.2046-4.7471l3.5601-3.3916s5.9341-6.2715 2.3745-14.918c-2.3745-8.6475-5.9346-21.36-5.4253-34.245-2.3735-10.343-5.7637-32.55-3.2207-49.674 1.1856-6.2715 2.0337-13.054 2.0337-13.054s-1.5259-18.14-2.2036-18.14c-0.33935 5.7637-3.9445 23.11-3.9445 23.11l-1.1415 25.545s1.5254 2.0342 0.84766 8.4775c1.356 3.3906 1.6953 4.7461 1.6953 4.7461s-6.103 0.67871-7.4595-6.9502c0.5083-4.5772 0.16895-11.868 0.16895-11.868l-1.8643-10.34 1.5259-34.925s1.8647-10.342 8.8159-11.019c9.0472-3.4108 12.823-7.1711 12.205-12.885-1.5254-4.5771-4.6603-2.8136-3.0503-15.427 0.49421-3.8718 3.0122-5.8882 8.3716-6.0806z" fill="#ffe2c7"/>
   </g>
   <g transform="matrix(1.25 0 0 1.25 15.959 922.32)" fill="#ff0" filter="url(#f)">
    <path d="m290.33-449.2s10.409-1.019 9.2441 11.646c-1.6748 6.623-2.9111 9.8994-2.6924 13.465 0.29101 2.4018-0.27542 4.7432 14.483 9.0254 1.5482 0.44919 7.1338 1.3828 7.0615 15.285 0 6.623 1.3828 8.3711-0.58301 18.27 0 0 2.8096 0.52051-2.9121 29.257 1.2715 3.3066 4.0684 12.842-6.8662 13.859l-0.2539-2.6699 2.1611-2.1611-0.12695-7.5029 0.45905-27.859-2.1124-24.144s-4.4492 15.767-4.5772 31.533c0 0 6.8232 18.604-1.6533 51.155 0.50976 8.9854-0.50782 27.635-4.916 40.18 1.3564 7.6279 2.543 15.766 2.543 15.766s-2.7129 5.2549-6.4424 0.67871c-1.1865-4.5772-2.0342-12.206-2.0342-12.206l0.84765-5.4258s-1.3555-21.191-0.50781-28.651c-1.0176-6.7803-1.3574-36.787-2.0352-36.957-0.67774 3.2217-1.1875 25.26-1.1875 29.159 0 3.8994 2.375 14.409 0.84863 28.65-0.16895 12.376-0.84863 17.462-0.84863 17.462l-8.9839 7.9688c-2.0553-0.46373-5.2935-0.93605-2.2046-4.7471l3.5601-3.3916s5.9341-6.2715 2.3745-14.918c-2.3745-8.6475-5.9346-21.36-5.4253-34.245-2.3735-10.343-5.7637-32.55-3.2207-49.674 1.1856-6.2715 2.0337-13.054 2.0337-13.054s-1.5259-18.14-2.2036-18.14c-0.33935 5.7637-3.9445 23.11-3.9445 23.11l-1.1415 25.545s1.5254 2.0342 0.84766 8.4775c1.356 3.3906 1.6953 4.7461 1.6953 4.7461s-6.103 0.67871-7.4595-6.9502c0.5083-4.5772 0.16895-11.868 0.16895-11.868l-1.8643-10.34 1.5259-34.925s1.8647-10.342 8.8159-11.019c9.0472-3.4108 12.823-7.1711 12.205-12.885-1.5254-4.5771-4.6603-2.8136-3.0503-15.427 0.49421-3.8718 3.0122-5.8882 8.3716-6.0806z" fill="#ff0"/>
   </g>
  </g>
 </g>
</svg>
