<?xml version="1.0" encoding="UTF-8"?>
<svg viewBox="0 0 42 25" xmlns="http://www.w3.org/2000/svg">
 <defs>
  <linearGradient id="g" x1=".074244" x2=".43547" y1=".48676" y2=".51887">
   <stop stop-color="#dcba56" offset="0"/>
   <stop stop-color="#dcba56" stop-opacity="0" offset="1"/>
  </linearGradient>
  <linearGradient id="f" x1=".29668" x2=".39761" y1=".40564" y2=".67836">
   <stop stop-color="#dcba56" offset="0"/>
   <stop stop-color="#dcba56" stop-opacity="0" offset="1"/>
  </linearGradient>
  <linearGradient id="h" x1=".35117" x2=".55593" y1=".3608" y2=".64594">
   <stop stop-color="#dcba56" offset="0"/>
   <stop stop-color="#dcba56" stop-opacity="0" offset="1"/>
  </linearGradient>
  <linearGradient id="e" x1=".76076" x2=".46696" y1=".45955" y2=".52024">
   <stop stop-color="#dcba56" offset="0"/>
   <stop stop-color="#dcba56" stop-opacity="0" offset="1"/>
  </linearGradient>
 </defs>
 <g fill-rule="evenodd">
  <path d="m22.726 1.7706c-2.2469 1.5187-5.6186 3.7558-8.0839 4.7174-2.7126 1.0582-4.6936 0.23554-7.4328 1.4698-3.5084 1.5808-5.3276 2.0878-3.3521 5.6482 1.0127 1.8253 3.6672 3.938 5.6218 5.6995 2.0205 1.8208 2.4626 2.8656 5.0896 3.4574 5.2973 1.1934 10.421-1.0578 13.609-2.4306 3.5436-1.5264 8.3894-1.244 11.3-1.8998" fill="#fddf87" stroke="#000"/>
  <path d="m22.725 1.771c-2.2468 1.518-5.6189 3.756-8.0838 4.717-2.7129 1.058-4.6929 0.23599-7.4322 1.47-3.5087 1.581-5.3282 2.088-3.352 5.648 1.0125 1.825 3.6666 3.938 5.6214 5.7 2.02 1.82 2.4624 2.865 5.0889 3.457 5.2982 1.193 10.422-1.057 13.609-2.431 3.5438-1.526 8.3895-1.244 11.3-1.899" fill="url(#e)"/>
  <g stroke="#000">
   <path d="m22.128 13.606c-1.9759 2.3543-8.8844 2.42-11.946 3.7996-1.5108 0.68077-0.1597 3.7419 2.165 4.3817" fill="none"/>
   <g stroke-width=".4">
    <path d="m17.247 11.997c-1.4358 0.64696-2.9393 1.1243-5.1732 1.5935-1.4143 0.29712-3.6053 0.50384-4.7164 1.0261-0.53684 0.25234-0.36429 1.1264-0.74679 1.4711-0.33125 0.29852 1.4039 1.4051 1.4039 1.8273" fill="url(#f)"/>
    <g fill="none">
     <path d="m13.467 10.585c-0.12046 0.10861-4.7554 2.0437-7.7105 1.8391-0.85134-0.058929-1.2618 2.0248-1.1975 2.1922"/>
     <path d="m11.207 9.4908c-2.8655 0.98166-3.6251 1.1706-6.5802 0.966-0.85134-0.058929-1.1004 2.7524-0.067229 1.9012"/>
    </g>
    <path d="m13.467 10.585c-0.12046 0.10861-4.7554 2.0437-7.7105 1.8391-0.50166-0.034714-0.82625 0.80377-0.99521 1.5328-0.11778 0.50824 2.1139 3.0744 1.2447 2.2739" fill="url(#g)"/>
   </g>
   <path d="m22.128 13.606c-1.9759 2.3543-8.8844 2.42-11.946 3.7996-1.5108 0.68077 1.0806 4.487 3.4053 5.1268" fill="url(#h)"/>
   <path d="m11.653 17.125c0.40636 0.17462 1.2269 0.66695 1.6536 1.1798 0.31496 0.37842-0.10991 0.6893 0.41339 0.8072 0.80094 0.18044 2.0538-0.29565 2.8251-0.43465 0.092852-0.016754 0.18371-0.041412 0.27557-0.062103 0.58877-0.13264 0.57294-0.097687 0.68904-0.62093 0.039007-0.17566-0.52682-0.73651-0.68904-0.9314-0.29048-0.34908-0.95612-0.86932-1.3781-0.86932-1.1962 0-2.086 0.1638-3.1006 0.62093-0.2433 0.10963-0.43091 0.21742-0.68904 0.31047z" fill="#f4f2ec" fill-opacity=".589" stroke-width=".1"/>
  </g>
 </g>
</svg>
